<?xml version="1.0" encoding="UTF-8" standalone="no"?>
<!-- Created with Inkscape (http://www.inkscape.org/) -->

<svg
   xmlns:dc="http://purl.org/dc/elements/1.1/"
   xmlns:cc="http://creativecommons.org/ns#"
   xmlns:rdf="http://www.w3.org/1999/02/22-rdf-syntax-ns#"
   xmlns:svg="http://www.w3.org/2000/svg"
   xmlns="http://www.w3.org/2000/svg"
   xmlns:sodipodi="http://sodipodi.sourceforge.net/DTD/sodipodi-0.dtd"
   xmlns:inkscape="http://www.inkscape.org/namespaces/inkscape"
   id="svg2985"
   version="1.1"
   inkscape:version="0.48.2 r9819"
   width="1351.2109"
   height="1125.781"
   xml:space="preserve"
   sodipodi:docname="ITS_Logo_minimized.svg"
   inkscape:export-filename="C:\Users\Romedius\Documents\Hackerspace\Logo\v3\ITS_Logo.png"
   inkscape:export-xdpi="50"
   inkscape:export-ydpi="50"><metadata
     id="metadata2991"><rdf:RDF><cc:Work
         rdf:about=""><dc:format>image/svg+xml</dc:format><dc:type
           rdf:resource="http://purl.org/dc/dcmitype/StillImage" /><dc:title></dc:title></cc:Work></rdf:RDF></metadata><defs
     id="defs2989">






</defs><sodipodi:namedview
     pagecolor="#ffffff"
     bordercolor="#666666"
     borderopacity="1"
     objecttolerance="10"
     gridtolerance="10"
     guidetolerance="10"
     inkscape:pageopacity="0"
     inkscape:pageshadow="2"
     inkscape:window-width="1574"
     inkscape:window-height="763"
     id="namedview2987"
     showgrid="false"
     inkscape:zoom="0.48322008"
     inkscape:cx="-15.391646"
     inkscape:cy="642.68451"
     inkscape:window-x="0"
     inkscape:window-y="0"
     inkscape:window-maximized="0"
     inkscape:current-layer="g2993"
     fit-margin-top="0"
     fit-margin-left="0"
     fit-margin-right="0"
     fit-margin-bottom="0"
     showguides="true"
     inkscape:guide-bbox="true"
     showborder="false"
     inkscape:document-units="cm"
     units="cm"><sodipodi:guide
       orientation="1,0"
       position="862.59754,640.63375"
       id="guide7426" /><sodipodi:guide
       orientation="1,0"
       position="894.79286,640.31734"
       id="guide7428" /></sodipodi:namedview><g
     id="g2993"
     inkscape:groupmode="layer"
     inkscape:label="gol-shirt"
     transform="matrix(1.25,0,0,-1.25,-10.273438,1029.2951)">

<rect
   style="fill:#2d431a;fill-opacity:1;stroke:none"
   id="rect7476"
   width="1080.9637"
   height="900.6236"
   x="8.2212524"
   y="-823.43549"
   transform="scale(1,-1)" /><path
   inkscape:connector-curvature="0"
   id="rect7470"
   d="m 40.21875,791.43618 0,-2.375 0,-831.875002 0,-2.375 2.375,0 1012.21875,0 2.375,0 0,2.375 0,831.875002 0,2.375 -2.375,0 -1012.21875,0 -2.375,0 z m 4.75,-4.75 1007.50005,0 0,-827.125002 -1007.50005,0 0,827.125002 z"
   style="font-size:medium;font-style:normal;font-variant:normal;font-weight:normal;font-stretch:normal;text-indent:0;text-align:start;text-decoration:none;line-height:normal;letter-spacing:normal;word-spacing:normal;text-transform:none;direction:ltr;block-progression:tb;writing-mode:lr-tb;text-anchor:start;baseline-shift:baseline;opacity:0.93000034;color:#000000;fill:#ffdf00;fill-opacity:1;stroke:none;stroke-width:4.7460618;marker:none;visibility:visible;display:inline;overflow:visible;enable-background:accumulate;font-family:Sans;-inkscape-font-specification:Sans" /><g
   transform="scale(1,-1)"
   style="font-size:123.68276978px;font-style:normal;font-variant:normal;font-weight:normal;font-stretch:normal;line-height:125%;letter-spacing:0px;word-spacing:0px;fill:#ffdf00;fill-opacity:1;stroke:none;font-family:OCR A Std;-inkscape-font-specification:OCR A Std"
   id="text4248-1"><path
     d="m 109.93655,-23.831028 18.18176,0 c 1.64812,1.2e-5 3.09061,0.474341 4.32746,1.422986 1.2367,0.948667 1.85509,2.536471 1.85517,4.763417 -8e-5,2.224442 -0.61847,3.810988 -1.85517,4.759643 -1.23685,0.948658 -2.67934,1.422986 -4.32746,1.422986 l -48.732555,0 c -1.648216,0 -3.090702,-0.474328 -4.327463,-1.422986 -1.236791,-0.948655 -1.85518,-2.535201 -1.855166,-4.759643 -1.4e-5,-2.226946 0.618375,-3.81475 1.855166,-4.763417 1.236761,-0.948645 2.679247,-1.422974 4.327463,-1.422986 l 18.18176,0 0,-71.489003 -18.18176,0 c -1.648216,8.4e-5 -3.090702,-0.473615 -4.327463,-1.421099 -1.236791,-0.947313 -1.85518,-2.534488 -1.855166,-4.76153 -1.4e-5,-2.22686 0.618375,-3.81467 1.855166,-4.76342 1.236761,-0.94856 2.679247,-1.42289 4.327463,-1.42298 l 48.732555,0 c 1.64812,9e-5 3.09061,0.47442 4.32746,1.42298 1.2367,0.94875 1.85509,2.53656 1.85517,4.76342 -8e-5,2.227042 -0.61847,3.814217 -1.85517,4.76153 -1.23685,0.947484 -2.67934,1.421183 -4.32746,1.421099 l -18.18176,0 z"
     style=""
     id="path2995" /><path
     d="m 174.71072,-95.320031 0,4.453908 c -3e-5,1.977915 -0.47436,3.502811 -1.42299,4.574692 -0.94868,1.072032 -2.53649,1.60801 -4.76342,1.607937 -2.22697,7.3e-5 -3.81414,-0.535905 -4.76153,-1.607937 -0.94741,-1.071881 -1.42111,-2.596777 -1.4211,-4.574692 l 0,-16.822937 61.09781,0 0,16.822937 c -7e-5,1.977915 -0.47377,3.502811 -1.4211,4.574692 -0.94747,1.072032 -2.53464,1.60801 -4.76153,1.607937 -2.22702,7.3e-5 -3.81482,-0.535905 -4.76341,-1.607937 -0.94872,-1.071881 -1.42305,-2.596777 -1.42299,-4.574692 l 0,-4.453908 -11.99536,0 0,77.675406 c -5e-5,1.977842 -0.47437,3.502738 -1.42298,4.574693 -0.94871,1.071958 -2.53651,1.607936 -4.76342,1.607936 -2.22448,0 -3.81103,-0.535978 -4.75964,-1.607936 -0.9487,-1.071955 -1.42303,-2.596851 -1.42299,-4.574693 l 0,-77.675406 z"
     style=""
     id="path2997" /><path
     d="m 296.49869,-66.996194 c 2.55653,5.6e-5 4.43245,0.556794 5.62777,1.670216 1.1952,1.11353 1.79282,3.071863 1.79289,5.875007 -7e-5,2.803239 -0.59769,4.761573 -1.79289,5.875007 -1.19532,1.113518 -3.07124,1.670256 -5.62777,1.670216 l -28.93908,0 c -2.55663,4e-5 -4.43255,-0.556698 -5.62778,-1.670216 -1.19528,-1.113434 -1.79291,-3.071768 -1.79289,-5.875007 -2e-5,-2.803144 0.59761,-4.761477 1.79289,-5.875007 1.19523,-1.113422 3.07115,-1.67016 5.62778,-1.670216 z"
     style=""
     id="path2999" /><path
     d="m 397.38727,-35.705601 c 1.23796,1.650737 2.26902,3.238541 3.0932,4.763418 0.82402,1.524915 1.23607,3.35932 1.23615,5.503219 -8e-5,2.310004 -0.41213,4.330617 -1.23615,6.061844 -0.82418,1.731243 -1.93702,3.194489 -3.33855,4.389742 -1.40166,1.19526 -3.05112,2.081638 -4.94836,2.659134 -1.89738,0.577499 -3.918,0.866248 -6.06185,0.866248 l -27.21036,0 c -2.39055,0 -4.59548,-0.267989 -6.61481,-0.803968 -2.01938,-0.535978 -3.97771,-1.587804 -5.87501,-3.155481 -1.64821,-1.401592 -3.02905,-3.132827 -4.14251,-5.19371 -1.11349,-2.060865 -1.67023,-4.163259 -1.67021,-6.307187 -2e-5,-1.97782 0.55672,-3.709055 1.67021,-5.19371 1.11346,-1.484614 2.7409,-2.226932 4.88232,-2.226955 1.81425,2.3e-5 3.23723,0.639171 4.26895,1.917446 1.03167,1.278316 1.54752,2.741562 1.54755,4.389742 -3e-5,1.897329 0.47367,3.072455 1.4211,3.525381 0.94737,0.452953 2.28668,0.679422 4.01795,0.67941 l 26.84046,0 c 0.24654,1.2e-5 0.59694,1.2e-5 1.0512,0 0.45414,1.2e-5 0.9077,-0.02075 1.3607,-0.06228 0.45288,-0.04151 0.84417,-0.164807 1.17387,-0.369901 0.32958,-0.205068 0.4944,-0.555467 0.49446,-1.051198 -6e-5,-0.495703 -0.30894,-1.114091 -0.92664,-1.855166 -0.61782,-0.741043 -1.05,-1.317912 -1.29654,-1.730608 l -42.42536,-54.545279 c -1.31858,-1.648124 -2.32825,-3.214539 -3.02904,-4.69925 -0.70081,-1.484558 -1.05121,-3.298832 -1.05119,-5.442827 -2e-5,-5.113101 2.18416,-9.071284 6.55253,-11.874574 1.73373,-1.15238 3.38381,-1.81166 4.95025,-1.97784 1.56639,-0.16598 3.33852,-0.24902 5.31638,-0.24911 l 26.22144,0 c 2.39046,9e-5 4.57526,0.28884 6.55442,0.86624 1.97903,0.5776 3.87571,1.65018 5.69006,3.21776 1.64812,1.40169 3.02896,3.17445 4.14251,5.318273 1.1134,2.144 1.67014,4.287913 1.67022,6.431745 -8e-5,1.977916 -0.5153,3.667632 -1.54566,5.069152 -1.03051,1.401671 -2.65921,2.102469 -4.88609,2.102396 -1.89487,7.3e-5 -3.35811,-0.535905 -4.38974,-1.607937 -1.03176,-1.071881 -1.54761,-2.473477 -1.54755,-4.204791 -6e-5,-2.143834 -0.51528,-3.48378 -1.54565,-4.019841 -1.0305,-0.535895 -2.49312,-0.803884 -4.38786,-0.803968 l -26.22144,0 c -0.32967,8.4e-5 -0.74235,8.4e-5 -1.23804,0 -0.49574,8.4e-5 -0.94931,0.0416 -1.3607,0.124558 -0.41145,0.08312 -0.78198,0.247942 -1.11159,0.49446 -0.32967,0.246683 -0.49449,0.617842 -0.49446,1.113477 -3e-5,0.576321 0.2472,1.17395 0.74169,1.792886 0.49443,0.619098 0.86496,1.134946 1.11159,1.547545 z"
     style=""
     id="path3001" /><path
     d="m 477.49721,-63.161303 0,-6.801647 c -6e-5,-0.988859 0.0622,-1.978406 0.18684,-2.968643 0.1245,-0.990114 0.41325,-1.87712 0.86625,-2.661021 0.45288,-0.783773 1.07126,-1.402161 1.85517,-1.855166 0.78377,-0.452874 1.79344,-0.679343 3.02903,-0.67941 1.23797,6.7e-5 2.24827,0.226536 3.03092,0.67941 0.78251,0.453005 1.4009,1.071393 1.85517,1.855166 0.45412,0.783901 0.74287,1.670907 0.86625,2.661021 0.12322,0.990237 0.18487,1.979784 0.18495,2.968643 l 0,4.823809 c -8e-5,1.484689 -0.0825,2.783115 -0.24723,3.895283 -0.1649,1.112268 -0.57694,2.328913 -1.23615,3.64994 L 457.95664,7.5841238 c -0.65933,1.4015767 -1.25695,2.5150522 -1.79289,3.3404312 -0.53602,0.825334 -1.15441,1.443722 -1.85517,1.855166 -0.70083,0.411396 -1.5048,0.679385 -2.4119,0.803968 -0.90718,0.124534 -2.02002,0.186813 -3.33855,0.186838 l -9.15316,0 c -0.90841,-2.5e-5 -1.83631,-0.0623 -2.78369,-0.186838 -0.94742,-0.124583 -1.81303,-0.392572 -2.59685,-0.803968 -0.78386,-0.411444 -1.44377,-1.009072 -1.97973,-1.792887 -0.53599,-0.783859 -0.80398,-1.8350557 -0.80397,-3.1535933 -10e-6,-1.2380536 0.24722,-2.24836 0.74169,-3.0309224 0.49445,-0.7825948 1.11283,-1.4009829 1.85517,-1.855166 0.7423,-0.454212 1.60792,-0.7429608 2.59685,-0.8662474 0.9889,-0.1233137 1.97908,-0.1849638 2.97053,-0.1849505 l 8.16047,0 8.78326,-18.1817594 -0.61902,0 c -1.23556,5e-6 -2.20434,-0.144055 -2.90636,-0.43218 -0.7021,-0.288115 -1.27959,-0.700164 -1.7325,-1.236149 -0.45297,-0.535971 -0.84426,-1.195879 -1.17387,-1.979724 -0.32967,-0.783828 -0.74235,-1.670206 -1.23803,-2.659134 l -14.59221,-32.283287 c -0.82538,-1.811714 -1.50605,-3.45991 -2.04201,-4.944593 -0.53599,-1.484586 -0.80398,-3.092521 -0.80397,-4.823809 l 0,-5.318269 c -10e-6,-0.988859 0.0616,-1.978406 0.18495,-2.968643 0.12329,-0.990114 0.41204,-1.87712 0.86625,-2.661021 0.45418,-0.783773 1.07257,-1.402161 1.85517,-1.855166 0.78256,-0.452874 1.79286,-0.679343 3.03092,-0.67941 1.2355,6.7e-5 2.24517,0.226536 3.02904,0.67941 0.78381,0.453005 1.4022,1.071393 1.85516,1.855166 0.45291,0.783901 0.74166,1.670907 0.86625,2.661021 0.12453,0.990237 0.18681,1.979784 0.18684,2.968643 l 0,6.801647 15.9548,35.000925 2.59686,0 z"
     style=""
     id="path3003" /><path
     d="m 532.25386,-54.132703 0,34.506466 c -3e-5,0.991443 -0.0623,1.981618 -0.18684,2.970531 -0.12459,0.988923 -0.41334,1.8753 -0.86625,2.659134 -0.45296,0.783839 -1.07135,1.402227 -1.85516,1.855166 -0.78387,0.45294 -1.79354,0.67941 -3.02904,0.67941 -1.23806,0 -2.24836,-0.22647 -3.03092,-0.67941 -0.7826,-0.452939 -1.40099,-1.071327 -1.85517,-1.855166 -0.45421,-0.783834 -0.74296,-1.670211 -0.86625,-2.659134 -0.12331,-0.988913 -0.18496,-1.979088 -0.18495,-2.970531 l 0,-49.717695 c -10e-6,-1.071899 0.0616,-2.143855 0.18495,-3.215873 0.12329,-1.071895 0.37052,-2.020552 0.74169,-2.845972 0.37115,-0.825292 0.94864,-1.485199 1.7325,-1.979724 0.78382,-0.494393 1.87653,-0.741622 3.27815,-0.741689 1.31854,6.7e-5 2.36973,0.247296 3.15359,0.741689 0.78382,0.494525 1.38144,1.154432 1.79289,1.979724 0.41139,0.82542 0.67938,1.753317 0.80397,2.783693 0.12453,1.030498 0.18681,2.081695 0.18684,3.153594 l 0,1.358819 0,0.249117 9.64761,-6.307187 c 1.56513,-0.991371 3.19319,-1.899137 4.88421,-2.723301 1.69093,-0.824032 3.48381,-1.236081 5.37866,-1.236148 l 8.78325,0 c 2.30742,6.7e-5 4.26513,0.329706 5.87312,0.988918 1.60788,0.659345 3.31898,1.772821 5.13332,3.340432 1.32101,1.155057 2.33194,2.330184 3.03281,3.525381 0.70073,1.195316 1.21595,2.452852 1.54566,3.772612 0.32957,1.31987 0.51515,2.721466 0.55674,4.204791 0.0414,1.483427 0.10247,3.008952 0.18306,4.57658 l 1.23804,37.352438 c -8e-5,1.071965 -0.0416,2.123162 -0.12456,3.153593 -0.0831,1.030443 -0.33034,1.97847 -0.74169,2.844085 -0.41149,0.86562 -1.00912,1.566418 -1.79289,2.102396 -0.78391,0.535979 -1.8351,0.803968 -3.15359,0.803968 -1.2381,0 -2.22765,-0.22647 -2.96864,-0.67941 -0.74113,-0.452939 -1.33876,-1.071327 -1.79289,-1.855166 -0.45426,-0.783834 -0.76377,-1.650081 -0.92853,-2.598742 -0.16488,-0.948651 -0.24729,-1.917438 -0.24723,-2.906364 l -1.23803,-36.608862 c -0.0806,-1.814229 -0.20389,-3.360514 -0.3699,-4.638859 -0.16614,-1.278246 -0.51717,-2.329443 -1.05309,-3.153593 -0.53604,-0.824046 -1.31924,-1.421674 -2.34962,-1.792887 -1.0305,-0.371104 -2.45285,-0.556684 -4.26707,-0.556739 l -3.95568,0 c -1.23808,5.5e-5 -2.47486,0.371214 -3.71033,1.113477 z"
     style=""
     id="path3005" /><path
     d="m 621.39244,-37.558879 c -3e-5,1.648222 0.0824,3.379457 0.24723,5.19371 0.16479,1.814294 0.70014,3.09259 1.60605,3.83489 l 3.58954,2.845972 c 0.73977,0.659293 1.48083,1.215402 2.22318,1.668329 0.74229,0.452952 1.4846,0.679421 2.22696,0.679409 l 8.40958,0 c 1.65067,1.2e-5 3.58824,-0.988905 5.81273,-2.966756 l 6.80542,-5.812727 c 0.90582,-0.742297 1.70916,-1.505374 2.41002,-2.289234 0.70073,-0.783814 1.05113,-1.75323 1.05119,-2.908251 l 0,-14.962112 c -6e-5,-1.154955 -0.35046,-2.124371 -1.05119,-2.908251 -0.70086,-0.783794 -1.5042,-1.546871 -2.41002,-2.289234 l -6.80542,-5.812728 c -2.22449,-1.977783 -4.16206,-2.966701 -5.81273,-2.966756 l -8.40958,0 c -0.74236,5.5e-5 -1.48467,0.226525 -2.22696,0.67941 -0.74235,0.452994 -1.48341,1.009103 -2.22318,1.668329 l -3.58954,2.845971 c -0.90591,0.742367 -1.44126,2.020663 -1.60605,3.834891 -0.16485,1.81432 -0.24726,3.545555 -0.24723,5.19371 z m 20.65405,-40.568311 c 2.06083,6.7e-5 3.9984,0.556804 5.81273,1.670215 1.81422,1.113541 3.79331,2.742236 5.93729,4.886089 l 1.97783,2.102396 0,-24.983407 c -6e-5,-0.991351 0.0622,-1.981526 0.18684,-2.97053 0.1245,-0.988832 0.41325,-1.875209 0.86625,-2.659133 0.45288,-0.78375 1.07126,-1.40214 1.85517,-1.85517 0.78377,-0.45285 1.79345,-0.67932 3.02903,-0.67941 1.23797,9e-5 2.24827,0.22656 3.03092,0.67941 0.78251,0.45303 1.4009,1.07142 1.85517,1.85517 0.45412,0.783924 0.74287,1.670301 0.86625,2.659133 0.12322,0.989004 0.18487,1.979179 0.18495,2.97053 l 0,74.704877 c -8e-5,0.988925 -0.0617,1.977843 -0.18495,2.966755 -0.12338,0.988923 -0.41213,1.875301 -0.86625,2.659135 -0.45427,0.783839 -1.07266,1.422987 -1.85517,1.917445 -0.78265,0.49446 -1.79295,0.741689 -3.03092,0.741689 -2.39058,0 -3.97776,-0.824727 -4.76153,-2.474184 -0.7839,-1.649452 -1.17582,-3.463096 -1.17576,-5.44094 l 0,-0.743576 -2.59685,2.596855 c -1.89737,1.731241 -3.81482,3.174356 -5.75234,4.32935 -1.93762,1.154997 -3.81355,1.732495 -5.62777,1.732495 l -11.5009,0 c -1.97787,0 -3.93621,-0.515219 -5.87501,-1.545657 -1.93886,-1.030436 -3.36122,-1.916813 -4.26707,-2.659135 l -4.08023,-3.464989 c -2.47358,-2.060867 -4.18468,-4.080851 -5.13332,-6.059958 -0.94867,-1.979079 -1.423,-4.535041 -1.42299,-7.667894 l 0,-23.869929 c -1e-5,-1.567628 0.10316,-2.969853 0.30951,-4.206678 0.20633,-1.236727 0.57749,-2.391093 1.11348,-3.463103 0.53596,-1.071903 1.216,-2.081581 2.04012,-3.029035 0.82408,-0.947342 1.85514,-1.95702 3.0932,-3.029035 l 4.08023,-3.46499 c 1.89729,-1.648133 3.64991,-2.76098 5.25788,-3.338544 1.6079,-0.577432 3.64864,-0.86618 6.12223,-0.866247 z"
     style=""
     id="path3007" /><path
     d="m 715.97381,-102.12168 c -3e-5,-2.14382 0.51519,-3.60769 1.54566,-4.39163 1.0304,-0.78374 2.36972,-1.17566 4.01795,-1.17575 l 6.80165,0 c 1.65067,9e-5 2.99124,0.39201 4.02173,1.17575 1.03039,0.78394 1.54561,2.24781 1.54566,4.39163 l 0,5.688172 c -5e-5,2.143998 -0.51527,3.607873 -1.54566,4.391629 -1.03049,0.783917 -2.37106,1.175836 -4.02173,1.175756 l -6.80165,0 c -1.64823,8e-5 -2.98755,-0.391839 -4.01795,-1.175756 -1.03047,-0.783756 -1.54569,-2.247631 -1.54566,-4.391629 z m 17.93265,78.785111 8.90404,0 c 0.98886,1.2e-5 1.9784,0.06229 2.96864,0.186838 0.99011,0.12457 1.85636,0.413319 2.59874,0.866247 0.74226,0.452951 1.36064,1.071339 1.85517,1.855167 0.49439,0.783845 0.74162,1.793523 0.74169,3.029035 -7e-5,1.318562 -0.26806,2.369759 -0.80397,3.153593 -0.53604,0.78384 -1.19595,1.382097 -1.97972,1.794774 -0.78391,0.412679 -1.67028,0.680669 -2.65914,0.803968 -0.98898,0.123301 -1.89611,0.184951 -2.72141,0.184951 l -30.17712,0 c -0.90842,0 -1.83632,-0.06165 -2.78369,-0.184951 -0.94743,-0.123299 -1.81304,-0.391289 -2.59686,-0.803968 -0.78386,-0.412677 -1.44376,-1.010934 -1.97972,-1.794774 -0.536,-0.783834 -0.80399,-1.835031 -0.80397,-3.153593 -2e-5,-1.235512 0.24721,-2.24519 0.74169,-3.029035 0.49444,-0.783828 1.11283,-1.402216 1.85517,-1.855167 0.74229,-0.452928 1.60854,-0.741677 2.59874,-0.866247 0.99015,-0.124547 1.9797,-0.186826 2.96864,-0.186838 l 9.3985,0 0,-42.916049 -9.3985,0 c -0.90842,5.5e-5 -1.83632,-0.06222 -2.78369,-0.186837 -0.94743,-0.124504 -1.81304,-0.392493 -2.59686,-0.803968 -0.78386,-0.411365 -1.44376,-1.008993 -1.97972,-1.792887 -0.536,-0.783779 -0.80399,-1.834976 -0.80397,-3.153594 -2e-5,-1.237973 0.24721,-2.24828 0.74169,-3.030922 0.49444,-0.782515 1.11283,-1.400903 1.85517,-1.855166 0.74229,-0.454132 1.60854,-0.742881 2.59874,-0.866248 0.99015,-0.123233 1.9797,-0.184883 2.96864,-0.18495 l 12.48982,0 c 1.73119,6.7e-5 3.15355,0.103236 4.26707,0.309509 1.11343,0.206405 2.00043,0.598324 2.66102,1.175756 0.66049,0.577563 1.13482,1.422421 1.42299,2.534576 0.28807,1.11228 0.43213,2.535265 0.43218,4.268958 z"
     style=""
     id="path3009" /><path
     d="m 826.8799,-73.303381 c 1.0719,-0.905817 2.30867,-1.936254 3.71033,-3.091314 1.40154,-1.154931 2.80313,-1.732428 4.20479,-1.732495 1.64813,6.7e-5 3.04973,0.597695 4.20479,1.792887 1.15493,1.195321 1.73243,2.618306 1.7325,4.268958 -7e-5,1.401656 -0.39199,2.514503 -1.17576,3.338544 -0.7839,0.824155 -1.7118,1.690401 -2.78369,2.598742 l -23.00557,19.04612 27.95394,23.250911 c 1.15492,0.908407 2.14447,1.795414 2.96864,2.661022 0.82402,0.865627 1.23607,2.081014 1.23615,3.646165 -8e-5,1.650719 -0.57757,3.073703 -1.7325,4.268958 -1.15507,1.195259 -2.55666,1.792887 -4.20479,1.792887 -1.15506,0 -2.14461,-0.309509 -2.96864,-0.928527 -0.82417,-0.619016 -1.68915,-1.258164 -2.59497,-1.917445 l -29.81099,-24.858848 -4.94459,4.453909 0,15.08667 c -3e-5,0.991443 -0.0623,1.981618 -0.18684,2.970531 -0.12459,0.988923 -0.41334,1.8753 -0.86625,2.659134 -0.45296,0.783839 -1.07135,1.402227 -1.85516,1.855166 -0.78387,0.45294 -1.79354,0.67941 -3.02904,0.67941 -1.23806,0 -2.24836,-0.22647 -3.03092,-0.67941 -0.7826,-0.452939 -1.40099,-1.071327 -1.85517,-1.855166 -0.45421,-0.783834 -0.74296,-1.670211 -0.86625,-2.659134 -0.12331,-0.988913 -0.18496,-1.979088 -0.18495,-2.970531 l 0,-74.82566 c -10e-6,-0.991351 0.0616,-1.981526 0.18495,-2.97053 0.12329,-0.988832 0.41204,-1.875209 0.86625,-2.659133 0.45418,-0.78375 1.07257,-1.40214 1.85517,-1.85517 0.78256,-0.45285 1.79286,-0.67932 3.03092,-0.67941 1.2355,9e-5 2.24517,0.22656 3.02904,0.67941 0.78381,0.45303 1.4022,1.07142 1.85516,1.85517 0.45291,0.783924 0.74166,1.670301 0.86625,2.659133 0.12453,0.989004 0.18681,1.979179 0.18684,2.97053 l 0,44.029526 z"
     style=""
     id="path3011" /><path
     d="m 896.72321,-41.269211 c -0.82539,2.9e-5 -1.69164,0.06168 -2.59874,0.18495 -0.90717,0.12333 -1.75203,0.370559 -2.53458,0.741689 -0.78261,0.371188 -1.44189,0.907166 -1.97784,1.607936 -0.536,0.700826 -0.80399,1.587203 -0.80396,2.659135 l 0,7.915123 c -3e-5,0.991451 0.26796,1.796047 0.80396,2.413792 0.53595,0.617773 1.19523,1.112232 1.97784,1.483378 0.78255,0.371171 1.60665,0.618401 2.4723,0.741689 0.86558,0.123312 1.66955,0.184962 2.4119,0.18495 l 13.11261,0 13.10883,-6.801646 0,-2.596855 c -6e-5,-3.298887 -0.57693,-5.54597 -1.7306,-6.741255 -1.1538,-1.195228 -3.38012,-1.792857 -6.67898,-1.792886 z m 0.12456,-24.983407 c -0.90843,5.5e-5 -1.83633,-0.06222 -2.78369,-0.186837 -0.94744,-0.124504 -1.81305,-0.392493 -2.59686,-0.803968 -0.78387,-0.411365 -1.44377,-1.008993 -1.97972,-1.792887 -0.53601,-0.783779 -0.804,-1.834976 -0.80397,-3.153594 -3e-5,-1.237973 0.2472,-2.24828 0.74169,-3.030922 0.49443,-0.782515 1.11282,-1.400903 1.85516,-1.855166 0.74229,-0.454132 1.60791,-0.742881 2.59686,-0.866248 0.98888,-0.123233 1.97906,-0.184883 2.97053,-0.18495 l 16.3247,0 c 3.04974,6.7e-5 5.77053,0.309575 8.16236,0.928526 2.39171,0.619083 4.78285,2.082329 7.17343,4.389742 1.15493,1.155057 2.06207,2.247773 2.72142,3.278152 0.6592,1.030496 1.17442,2.102452 1.54565,3.215873 0.37109,1.113531 0.63908,2.288657 0.80397,3.525382 0.16475,1.236827 0.24716,2.597533 0.24723,4.08212 l 1.23804,40.319194 c 0.083,1.731242 -0.32909,3.318417 -1.23615,4.76153 -0.90721,1.443117 -2.35096,2.164675 -4.33124,2.164675 -1.56522,0 -2.98695,-0.577498 -4.26518,-1.732495 -1.27836,-1.154994 -1.87599,-2.556589 -1.79289,-4.204791 l -8.16424,4.204791 c -0.82541,0.41268 -1.48532,0.742948 -1.97972,0.990806 -0.49451,0.247859 -0.98897,0.433439 -1.48338,0.556738 -0.49451,0.123301 -1.00973,0.184951 -1.54566,0.184951 -0.53603,0 -1.29847,0 -2.28735,0 l -11.38011,0 c -2.63715,0 -5.00753,-0.247229 -7.11115,-0.741689 -2.10368,-0.494458 -4.22747,-1.648824 -6.37136,-3.463103 -2.47357,-2.060869 -4.1224,-4.225542 -4.94648,-6.494024 -0.82411,-2.268461 -1.23616,-4.969112 -1.23615,-8.101962 l 0,-5.19371 c -10e-6,-2.886206 0.41204,-5.318868 1.23615,-7.297993 0.82408,-1.979062 2.34961,-3.957526 4.57658,-5.935399 2.06085,-1.814236 4.22553,-3.010122 6.49403,-3.587661 2.26844,-0.577456 4.72123,-0.866205 7.35838,-0.866247 l 25.47787,0 0,-2.721413 c -6e-5,-2.224392 -0.14412,-4.017277 -0.43218,-5.378661 -0.28818,-1.361285 -0.82416,-2.413111 -1.60794,-3.155481 -0.7839,-0.742264 -1.85585,-1.236723 -3.21587,-1.483378 -1.36013,-0.246546 -3.11213,-0.369846 -5.25599,-0.369901 z"
     style=""
     id="path3013" /><path
     d="m 989.94199,-33.848547 c -4e-5,1.648218 0.0207,3.132224 0.0623,4.452021 0.0415,1.319833 0.30947,2.433309 0.80397,3.340431 0.49442,0.907152 1.27763,1.58719 2.34963,2.040117 1.07191,0.452952 2.63832,0.679421 4.69925,0.679409 l 6.06188,0 c 2.3904,1.2e-5 4.2041,-0.267977 5.4409,-0.803968 1.2367,-0.535965 2.1847,-1.999211 2.8441,-4.389742 0.4126,-1.401578 1.1348,-2.555945 2.1665,-3.463102 1.0317,-0.907117 2.2886,-1.360685 3.7708,-1.360707 1.6506,2.2e-5 3.0736,0.57752 4.2689,1.732495 1.1952,1.155016 1.7928,2.556611 1.7929,4.204791 -10e-5,1.648212 -0.4329,3.420967 -1.2984,5.318269 -0.8657,1.897323 -1.793,3.422219 -2.7818,4.574692 -2.144,2.639636 -4.6182,4.30985 -7.4226,5.010647 -2.8045,0.700799 -5.7731,1.051198 -8.9059,1.051198 l -6.05807,0 c -2.96931,0 -5.73224,-0.412049 -8.2888,-1.236148 -2.55663,-0.824097 -4.90688,-2.391142 -7.05076,-4.701138 -1.15251,-1.235512 -2.0175,-2.492419 -2.59497,-3.770724 -0.57752,-1.278286 -0.9902,-2.598101 -1.23803,-3.959449 -0.24789,-1.361321 -0.39258,-2.762917 -0.43407,-4.204792 -0.0415,-1.441839 -0.0623,-2.988124 -0.0623,-4.638859 l 0,-32.279512 -3.83112,0 c -0.90841,5.5e-5 -1.83631,-0.06222 -2.78369,-0.186837 -0.94742,-0.124504 -1.81304,-0.392493 -2.59685,-0.803968 -0.78386,-0.411365 -1.44377,-1.008993 -1.97973,-1.792887 -0.53599,-0.783779 -0.80398,-1.834976 -0.80397,-3.153594 -10e-6,-1.237973 0.24722,-2.24828 0.74169,-3.030922 0.49445,-0.782515 1.11283,-1.400903 1.85517,-1.855166 0.7423,-0.454132 1.60792,-0.742881 2.59685,-0.866248 0.9889,-0.123233 1.97908,-0.184883 2.97053,-0.18495 l 3.83112,0 0,-12.119915 c -3e-5,-0.988839 0.0623,-1.978386 0.18684,-2.968643 0.12453,-0.990094 0.41328,-1.876472 0.86625,-2.659135 0.45291,-0.782494 1.07129,-1.400882 1.85516,-1.855166 0.78381,-0.454111 1.79348,-0.68121 3.02904,-0.681297 1.238,8.7e-5 2.2483,0.227186 3.03092,0.681297 0.78254,0.454284 1.40093,1.072672 1.85516,1.855166 0.45416,0.782663 0.74291,1.669041 0.86625,2.659135 0.12326,0.990257 0.18491,1.979804 0.18495,2.968643 l 0,12.119915 19.91421,0 c 0.9889,6.7e-5 1.9785,0.06172 2.9687,0.18495 0.9901,0.123367 1.8557,0.412116 2.5968,0.866248 0.741,0.454263 1.3594,1.072651 1.8552,1.855166 0.4957,0.782642 0.7435,1.792949 0.7436,3.030922 -10e-5,1.318618 -0.2681,2.369815 -0.804,3.153594 -0.536,0.783894 -1.1959,1.381522 -1.9797,1.792887 -0.7839,0.411475 -1.6703,0.679464 -2.6591,0.803968 -0.989,0.124613 -1.8962,0.186892 -2.7215,0.186837 l -19.91421,0 z"
     style=""
     id="path3015" /></g><path
   id="rect7393"
   d="m 410.2031,760.01764 c -6.6135,0 -12,-5.38659 -12,-12 l 0,-79 c 0,-4.1659 2.1399,-7.84743 5.375,-10 -3.2351,-2.15258 -5.375,-5.8341 -5.375,-10 l 0,-79 c 0,-4.1659 2.1399,-7.84743 5.375,-10 -3.2351,-2.15258 -5.375,-5.8341 -5.375,-10 l 0,-79 c 0,-6.61341 5.3865,-12 12,-12 l 79,0 c 4.1659,0 7.8474,2.13997 10,5.375 2.1525,-3.23503 5.834,-5.375 10,-5.375 l 79,0 c 4.1659,0 7.8474,2.13997 10,5.375 2.1525,-3.23503 5.834,-5.375 10,-5.375 l 79,0 c 6.6134,0 12,5.38659 12,12 l 0,79 c 0,4.1653 -2.1408,7.84729 -5.375,10 3.2342,2.15271 5.375,5.8347 5.375,10 l 0,79 c 0,4.1653 -2.1408,7.84729 -5.375,10 3.2342,2.15271 5.375,5.8347 5.375,10 l 0,79 c 0,6.61341 -5.3866,12 -12,12 l -79,0 c -4.1653,0 -7.8473,-2.14077 -10,-5.375 -2.1528,3.23423 -5.8348,5.375 -10,5.375 l -79,0 c -4.1653,0 -7.8473,-2.14077 -10,-5.375 -2.1528,3.23423 -5.8348,5.375 -10,5.375 l -79,0 z m 325,0 c -6.6135,0 -12,-5.38659 -12,-12 l 0,-79 c 0,-4.1659 2.1399,-7.84743 5.375,-10 -3.2351,-2.15258 -5.375,-5.8341 -5.375,-10 l 0,-79 c 0,-4.1659 2.1399,-7.84743 5.375,-10 -3.2351,-2.15258 -5.375,-5.8341 -5.375,-10 l 0,-79 c 0,-6.61341 5.3865,-12 12,-12 l 78.9999,0 c 4.1659,0 7.8475,2.13997 10,5.375 2.1527,-3.23503 5.8342,-5.375 10,-5.375 l 79.0001,0 c 4.1659,0 7.8473,2.13997 10,5.375 2.1526,-3.23503 5.834,-5.375 10,-5.375 l 79,0 c 6.6134,0 12,5.38659 12,12 l 0,79 c 0,4.1653 -2.1408,7.84729 -5.375,10 3.2342,2.15271 5.375,5.8347 5.375,10 l 0,79 c 0,4.1653 -2.1408,7.84729 -5.375,10 3.2342,2.15271 5.375,5.8347 5.375,10 l 0,79 c 0,6.61341 -5.3866,12 -12,12 l -79,0 c -4.1653,0 -7.8473,-2.14077 -10,-5.375 -2.1528,3.23423 -5.8348,5.375 -10,5.375 l -79.0001,0 c -4.1653,0 -7.8473,-2.14077 -10,-5.375 -2.1526,3.23423 -5.8346,5.375 -10,5.375 l -78.9999,0 z m -325,-4 79,0 c 4.4665,0 8,-3.53341 8,-8 l 0,-79 c 0,-4.46659 -3.5335,-8 -8,-8 l -79,0 c -4.4666,0 -8,3.53341 -8,8 l 0,79 c 0,4.46659 3.5334,8 8,8 z m 99,0 79,0 c 4.4665,0 8,-3.53341 8,-8 l 0,-79 c 0,-4.46659 -3.5335,-8 -8,-8 l -79,0 c -4.4666,0 -8,3.53341 -8,8 l 0,79 c 0,4.46659 3.5334,8 8,8 z m 99,0 79,0 c 4.4665,0 8,-3.53341 8,-8 l 0,-79 c 0,-4.46659 -3.5335,-8 -8,-8 l -79,0 c -4.4666,0 -8,3.53341 -8,8 l 0,79 c 0,4.46659 3.5334,8 8,8 z m 127,0 78.9999,0 c 4.4667,0 8,-3.53341 8,-8 l 0,-79 c 0,-4.46659 -3.5333,-8 -8,-8 l -78.9999,0 c -4.4666,0 -8,3.53341 -8,8 l 0,79 c 0,4.46659 3.5334,8 8,8 z m 98.9999,0 79.0001,0 c 4.4666,0 8,-3.53341 8,-8 l 0,-79 c 0,-4.46659 -3.5334,-8 -8,-8 l -79.0001,0 c -4.4665,0 -8,3.53341 -8,8 l 0,79 c 0,4.46659 3.5335,8 8,8 z m 99.0001,0 79,0 c 4.4665,0 8,-3.53341 8,-8 l 0,-79 c 0,-4.46659 -3.5335,-8 -8,-8 l -79,0 c -4.4667,0 -8,3.53341 -8,8 l 0,79 c 0,4.46659 3.5333,8 8,8 z m -497.1,-19.725 0,-5.95 5.95,0 0,5.95 -5.95,0 z m 7.075,0 0,-5.95 5.95,0 0,5.95 -5.95,0 z m 7.1,0 0,-5.95 5.95,0 0,5.95 -5.95,0 z m 7.075,0 0,-5.95 5.95,0 0,5.95 -5.95,0 z m 176.75,0 0,-5.95 5.95,0 0,5.95 -5.95,0 z m 7.075,0 0,-5.95 5.95,0 0,5.95 -5.95,0 z m 7.1,0 0,-5.95 5.95,0 0,5.95 -5.95,0 z m 7.075,0 0,-5.95 5.95,0 0,5.95 -5.95,0 z m 303.75,0 0,-5.95 5.95,0 0,5.95 -5.95,0 z m 7.075,0 0,-5.95 5.95,0 0,5.95 -5.95,0 z m 7.1,0 0,-5.95 5.95,0 0,5.95 -5.95,0 z m 7.075,0 0,-5.95 5.95,0 0,5.95 -5.95,0 z m -565.525,-7.1 0,-5.95 5.95,0 0,5.95 -5.95,0 z m 7.1,0 0,-5.95 5.95,0 0,5.95 -5.95,0 z m 7.075,0 0,-5.95 5.95,0 0,5.95 -5.95,0 z m 7.1,0 0,-5.95 5.95,0 0,5.95 -5.95,0 z m 7.075,0 0,-5.95 5.95,0 0,5.95 -5.95,0 z m 7.1,0 0,-5.95 5.95,0 0,5.95 -5.95,0 z m 7.075,0 0,-5.95 5.95,0 0,5.95 -5.95,0 z m 7.1,0 0,-5.95 5.95,0 0,5.95 -5.95,0 z m 7.075,0 0,-5.95 5.95,0 0,5.95 -5.95,0 z m 7.1,0 0,-5.95 5.925,0 0,5.95 -5.925,0 z m 134.2,0 0,-5.95 5.95,0 0,5.95 -5.95,0 z m 7.1,0 0,-5.95 5.95,0 0,5.95 -5.95,0 z m 7.075,0 0,-5.95 5.95,0 0,5.95 -5.95,0 z m 7.1,0 0,-5.95 5.95,0 0,5.95 -5.95,0 z m 7.075,0 0,-5.95 5.95,0 0,5.95 -5.95,0 z m 7.1,0 0,-5.95 5.95,0 0,5.95 -5.95,0 z m 7.075,0 0,-5.95 5.95,0 0,5.95 -5.95,0 z m 7.1,0 0,-5.95 5.95,0 0,5.95 -5.95,0 z m 7.075,0 0,-5.95 5.95,0 0,5.95 -5.95,0 z m 7.1,0 0,-5.95 5.925,0 0,5.95 -5.925,0 z m 261.2,0 0,-5.95 5.95,0 0,5.95 -5.95,0 z m 7.1,0 0,-5.95 5.95,0 0,5.95 -5.95,0 z m 7.075,0 0,-5.95 5.95,0 0,5.95 -5.95,0 z m 7.1,0 0,-5.95 5.95,0 0,5.95 -5.95,0 z m 7.075,0 0,-5.95 5.95,0 0,5.95 -5.95,0 z m 7.1,0 0,-5.95 5.95,0 0,5.95 -5.95,0 z m 7.075,0 0,-5.95 5.95,0 0,5.95 -5.95,0 z m 7.1,0 0,-5.95 5.95,0 0,5.95 -5.95,0 z m 7.075,0 0,-5.95 5.95,0 0,5.95 -5.95,0 z m 7.1,0 0,-5.95 5.925,0 0,5.95 -5.925,0 z m -593.875,-7.075 0,-5.95 5.95,0 0,5.95 -5.95,0 z m 7.075,0 0,-5.95 5.95,0 0,5.95 -5.95,0 z m 7.1,0 0,-5.95 5.95,0 0,5.95 -5.95,0 z m 7.075,0 0,-5.95 5.95,0 0,5.95 -5.95,0 z m 7.1,0 0,-5.95 5.95,0 0,5.95 -5.95,0 z m 7.075,0 0,-5.95 5.95,0 0,5.95 -5.95,0 z m 7.1,0 0,-5.95 5.95,0 0,5.95 -5.95,0 z m 7.075,0 0,-5.95 5.95,0 0,5.95 -5.95,0 z m 7.1,0 0,-5.95 5.95,0 0,5.95 -5.95,0 z m 7.075,0 0,-5.95 5.95,0 0,5.95 -5.95,0 z m 7.1,0 0,-5.95 5.925,0 0,5.95 -5.925,0 z m 7.075,0 0,-5.95 5.95,0 0,5.95 -5.95,0 z m 120.05,0 0,-5.95 5.95,0 0,5.95 -5.95,0 z m 7.075,0 0,-5.95 5.95,0 0,5.95 -5.95,0 z m 7.1,0 0,-5.95 5.95,0 0,5.95 -5.95,0 z m 7.075,0 0,-5.95 5.95,0 0,5.95 -5.95,0 z m 7.1,0 0,-5.95 5.95,0 0,5.95 -5.95,0 z m 7.075,0 0,-5.95 5.95,0 0,5.95 -5.95,0 z m 7.1,0 0,-5.95 5.95,0 0,5.95 -5.95,0 z m 7.075,0 0,-5.95 5.95,0 0,5.95 -5.95,0 z m 7.1,0 0,-5.95 5.95,0 0,5.95 -5.95,0 z m 7.075,0 0,-5.95 5.95,0 0,5.95 -5.95,0 z m 7.1,0 0,-5.95 5.925,0 0,5.95 -5.925,0 z m 7.075,0 0,-5.95 5.95,0 0,5.95 -5.95,0 z m 247.05,0 0,-5.95 5.95,0 0,5.95 -5.95,0 z m 7.075,0 0,-5.95 5.95,0 0,5.95 -5.95,0 z m 7.1,0 0,-5.95 5.95,0 0,5.95 -5.95,0 z m 7.075,0 0,-5.95 5.95,0 0,5.95 -5.95,0 z m 7.1,0 0,-5.95 5.95,0 0,5.95 -5.95,0 z m 7.075,0 0,-5.95 5.95,0 0,5.95 -5.95,0 z m 7.1,0 0,-5.95 5.95,0 0,5.95 -5.95,0 z m 7.075,0 0,-5.95 5.95,0 0,5.95 -5.95,0 z m 7.1,0 0,-5.95 5.95,0 0,5.95 -5.95,0 z m 7.075,0 0,-5.95 5.95,0 0,5.95 -5.95,0 z m 7.1,0 0,-5.95 5.925,0 0,5.95 -5.925,0 z m 7.075,0 0,-5.95 5.95,0 0,5.95 -5.95,0 z m -600.95,-7.1 0,-5.925 5.95,0 0,5.925 -5.95,0 z m 7.075,0 0,-5.925 5.95,0 0,5.925 -5.95,0 z m 7.1,0 0,-5.925 5.95,0 0,5.925 -5.95,0 z m 21.25,0 0,-5.925 5.95,0 0,5.925 -5.95,0 z m 7.1,0 0,-5.925 5.95,0 0,5.925 -5.95,0 z m 21.25,0 0,-5.925 5.95,0 0,5.925 -5.95,0 z m 7.1,0 0,-5.925 5.925,0 0,5.925 -5.925,0 z m 7.075,0 0,-5.925 5.95,0 0,5.925 -5.95,0 z m 120.05,0 0,-5.925 5.95,0 0,5.925 -5.95,0 z m 7.075,0 0,-5.925 5.95,0 0,5.925 -5.95,0 z m 7.1,0 0,-5.925 5.95,0 0,5.925 -5.95,0 z m 21.25,0 0,-5.925 5.95,0 0,5.925 -5.95,0 z m 7.1,0 0,-5.925 5.95,0 0,5.925 -5.95,0 z m 21.25,0 0,-5.925 5.95,0 0,5.925 -5.95,0 z m 7.1,0 0,-5.925 5.925,0 0,5.925 -5.925,0 z m 7.075,0 0,-5.925 5.95,0 0,5.925 -5.95,0 z m 247.05,0 0,-5.925 5.95,0 0,5.925 -5.95,0 z m 7.0749,0 0,-5.925 5.95,0 0,5.925 -5.95,0 z m 7.1,0 0,-5.925 5.95,0 0,5.925 -5.95,0 z m 21.25,0 0,-5.925 5.95,0 0,5.925 -5.95,0 z m 7.1,0 0,-5.925 5.95,0 0,5.925 -5.95,0 z m 21.25,0 0,-5.925 5.95,0 0,5.925 -5.95,0 z m 7.1,0 0,-5.925 5.9251,0 0,5.925 -5.9251,0 z m 7.075,0 0,-5.925 5.9501,0 0,5.925 -5.9501,0 z m -600.9499,-7.075 0,-5.95 5.95,0 0,5.95 -5.95,0 z m 7.075,0 0,-5.95 5.95,0 0,5.95 -5.95,0 z m 7.1,0 0,-5.95 5.95,0 0,5.95 -5.95,0 z m 7.075,0 0,-5.95 5.95,0 0,5.95 -5.95,0 z m 7.1,0 0,-5.95 5.95,0 0,5.95 -5.95,0 z m 7.075,0 0,-5.95 5.95,0 0,5.95 -5.95,0 z m 7.1,0 0,-5.95 5.95,0 0,5.95 -5.95,0 z m 7.075,0 0,-5.95 5.95,0 0,5.95 -5.95,0 z m 7.1,0 0,-5.95 5.95,0 0,5.95 -5.95,0 z m 7.075,0 0,-5.95 5.95,0 0,5.95 -5.95,0 z m 7.1,0 0,-5.95 5.925,0 0,5.95 -5.925,0 z m 7.075,0 0,-5.95 5.95,0 0,5.95 -5.95,0 z m 120.05,0 0,-5.95 5.95,0 0,5.95 -5.95,0 z m 7.075,0 0,-5.95 5.95,0 0,5.95 -5.95,0 z m 7.1,0 0,-5.95 5.95,0 0,5.95 -5.95,0 z m 7.075,0 0,-5.95 5.95,0 0,5.95 -5.95,0 z m 7.1,0 0,-5.95 5.95,0 0,5.95 -5.95,0 z m 7.075,0 0,-5.95 5.95,0 0,5.95 -5.95,0 z m 7.1,0 0,-5.95 5.95,0 0,5.95 -5.95,0 z m 7.075,0 0,-5.95 5.95,0 0,5.95 -5.95,0 z m 7.1,0 0,-5.95 5.95,0 0,5.95 -5.95,0 z m 7.075,0 0,-5.95 5.95,0 0,5.95 -5.95,0 z m 7.1,0 0,-5.95 5.925,0 0,5.95 -5.925,0 z m 7.075,0 0,-5.95 5.95,0 0,5.95 -5.95,0 z m 247.05,0 0,-5.95 5.9499,0 0,5.95 -5.9499,0 z m 7.0749,0 0,-5.95 5.95,0 0,5.95 -5.95,0 z m 7.1,0 0,-5.95 5.95,0 0,5.95 -5.95,0 z m 7.075,0 0,-5.95 5.9501,0 0,5.95 -5.9501,0 z m 7.1,0 0,-5.95 5.9501,0 0,5.95 -5.9501,0 z m 7.075,0 0,-5.95 5.95,0 0,5.95 -5.95,0 z m 7.1,0 0,-5.95 5.95,0 0,5.95 -5.95,0 z m 7.0751,0 0,-5.95 5.9499,0 0,5.95 -5.9499,0 z m 7.1,0 0,-5.95 5.9499,0 0,5.95 -5.9499,0 z m 7.0749,0 0,-5.95 5.95,0 0,5.95 -5.95,0 z m 7.1,0 0,-5.95 5.9251,0 0,5.95 -5.9251,0 z m 7.075,0 0,-5.95 5.9501,0 0,5.95 -5.9501,0 z m -579.6999,-7.075 0,-5.95 5.95,0 0,5.95 -5.95,0 z m 7.1,0 0,-5.95 5.95,0 0,5.95 -5.95,0 z m 21.25,0 0,-5.95 5.95,0 0,5.95 -5.95,0 z m 7.1,0 0,-5.95 5.95,0 0,5.95 -5.95,0 z m 162.55,0 0,-5.95 5.95,0 0,5.95 -5.95,0 z m 7.1,0 0,-5.95 5.95,0 0,5.95 -5.95,0 z m 21.25,0 0,-5.95 5.95,0 0,5.95 -5.95,0 z m 7.1,0 0,-5.95 5.95,0 0,5.95 -5.95,0 z m 289.5499,0 0,-5.95 5.9501,0 0,5.95 -5.9501,0 z m 7.1,0 0,-5.95 5.9501,0 0,5.95 -5.9501,0 z m 21.2501,0 0,-5.95 5.9499,0 0,5.95 -5.9499,0 z m 7.1,0 0,-5.95 5.9499,0 0,5.95 -5.9499,0 z m -565.525,-7.1 0,-5.95 5.95,0 0,5.95 -5.95,0 z m 7.075,0 0,-5.95 5.95,0 0,5.95 -5.95,0 z m 14.175,0 0,-5.95 5.95,0 0,5.95 -5.95,0 z m 7.1,0 0,-5.95 5.95,0 0,5.95 -5.95,0 z m 14.175,0 0,-5.95 5.95,0 0,5.95 -5.95,0 z m 7.075,0 0,-5.95 5.95,0 0,5.95 -5.95,0 z m 148.4,0 0,-5.95 5.95,0 0,5.95 -5.95,0 z m 7.075,0 0,-5.95 5.95,0 0,5.95 -5.95,0 z m 14.175,0 0,-5.95 5.95,0 0,5.95 -5.95,0 z m 7.1,0 0,-5.95 5.95,0 0,5.95 -5.95,0 z m 14.175,0 0,-5.95 5.95,0 0,5.95 -5.95,0 z m 7.075,0 0,-5.95 5.95,0 0,5.95 -5.95,0 z m 275.3999,0 0,-5.95 5.95,0 0,5.95 -5.95,0 z m 7.075,0 0,-5.95 5.9501,0 0,5.95 -5.9501,0 z m 14.175,0 0,-5.95 5.95,0 0,5.95 -5.95,0 z m 7.1,0 0,-5.95 5.95,0 0,5.95 -5.95,0 z m 14.1751,0 0,-5.95 5.9499,0 0,5.95 -5.9499,0 z m 7.0749,0 0,-5.95 5.95,0 0,5.95 -5.95,0 z m -586.7749,-7.075 0,-5.95 5.95,0 0,5.95 -5.95,0 z m 7.075,0 0,-5.95 5.95,0 0,5.95 -5.95,0 z m 63.8,0 0,-5.95 5.925,0 0,5.95 -5.925,0 z m 7.075,0 0,-5.95 5.95,0 0,5.95 -5.95,0 z m 120.05,0 0,-5.95 5.95,0 0,5.95 -5.95,0 z m 7.075,0 0,-5.95 5.95,0 0,5.95 -5.95,0 z m 63.8,0 0,-5.95 5.925,0 0,5.95 -5.925,0 z m 7.075,0 0,-5.95 5.95,0 0,5.95 -5.95,0 z m 247.05,0 0,-5.95 5.9499,0 0,5.95 -5.9499,0 z m 7.0749,0 0,-5.95 5.95,0 0,5.95 -5.95,0 z m 63.8,0 0,-5.95 5.9251,0 0,5.95 -5.9251,0 z m 7.075,0 0,-5.95 5.9501,0 0,5.95 -5.9501,0 z m -509.4999,-24.3 c 0.8879,-1.33443 2.0405,-2.48708 3.375,-3.375 -1.334,-0.8876 -2.4873,-2.04119 -3.375,-3.375 -0.8875,1.33334 -2.0417,2.48753 -3.375,3.375 1.3338,0.88779 2.4874,2.04106 3.375,3.375 z m 99,0 c 0.8879,-1.33443 2.0405,-2.48708 3.375,-3.375 -1.334,-0.8876 -2.4873,-2.04119 -3.375,-3.375 -0.8875,1.33334 -2.0417,2.48753 -3.375,3.375 1.3338,0.88779 2.4874,2.04106 3.375,3.375 z m 225.9999,0 c 0.8879,-1.33443 2.0407,-2.48708 3.3751,-3.375 -1.334,-0.8876 -2.4872,-2.04119 -3.3751,-3.375 -0.8874,1.33334 -2.0416,2.48753 -3.3749,3.375 1.3338,0.88779 2.4873,2.04106 3.3749,3.375 z m 99,0 c 0.8879,-1.33443 2.0406,-2.48708 3.375,-3.375 -1.3339,-0.8876 -2.4872,-2.04119 -3.375,-3.375 -0.8875,1.33334 -2.0416,2.48753 -3.375,3.375 1.3339,0.88779 2.4874,2.04106 3.375,3.375 z m -512.9999,-5.375 79,0 c 4.4665,0 8,-3.53341 8,-8 l 0,-79 c 0,-4.46659 -3.5335,-8 -8,-8 l -79,0 c -4.4666,0 -8,3.53341 -8,8 l 0,79 c 0,4.46659 3.5334,8 8,8 z m 99,0 79,0 c 4.4665,0 8,-3.53341 8,-8 l 0,-79 c 0,-4.46659 -3.5335,-8 -8,-8 l -79,0 c -4.4666,0 -8,3.53341 -8,8 l 0,79 c 0,4.46659 3.5334,8 8,8 z m 99,0 79,0 c 4.4665,0 8,-3.53341 8,-8 l 0,-79 c 0,-4.46659 -3.5335,-8 -8,-8 l -79,0 c -4.4666,0 -8,3.53341 -8,8 l 0,79 c 0,4.46659 3.5334,8 8,8 z m 127,0 78.9999,0 c 4.4667,0 8,-3.53341 8,-8 l 0,-79 c 0,-4.46659 -3.5333,-8 -8,-8 l -78.9999,0 c -4.4666,0 -8,3.53341 -8,8 l 0,79 c 0,4.46659 3.5334,8 8,8 z m 98.9999,0 79,0 c 4.4666,0 8,-3.53341 8,-8 l 0,-79 c 0,-4.46659 -3.5334,-8 -8,-8 l -79,0 c -4.4665,0 -8,3.53341 -8,8 l 0,79 c 0,4.46659 3.5335,8 8,8 z m 99,0 79,0 c 4.4665,0 8,-3.53341 8,-8 l 0,-79 c 0,-4.46659 -3.5335,-8 -8,-8 l -79,0 c -4.4666,0 -8,3.53341 -8,8 l 0,79 c 0,4.46659 3.5334,8 8,8 z m -398.0999,-19.725 0,-5.95 5.95,0 0,5.95 -5.95,0 z m 7.075,0 0,-5.95 5.95,0 0,5.95 -5.95,0 z m 7.1,0 0,-5.95 5.95,0 0,5.95 -5.95,0 z m 7.075,0 0,-5.95 5.95,0 0,5.95 -5.95,0 z m 77.75,0 0,-5.95 5.95,0 0,5.95 -5.95,0 z m 7.075,0 0,-5.95 5.95,0 0,5.95 -5.95,0 z m 7.1,0 0,-5.95 5.95,0 0,5.95 -5.95,0 z m 7.075,0 0,-5.95 5.95,0 0,5.95 -5.95,0 z m 105.75,0 0,-5.95 5.95,0 0,5.95 -5.95,0 z m 7.075,0 0,-5.95 5.95,0 0,5.95 -5.95,0 z m 7.1,0 0,-5.95 5.95,0 0,5.95 -5.95,0 z m 7.075,0 0,-5.95 5.95,0 0,5.95 -5.95,0 z m 176.7499,0 0,-5.95 5.9501,0 0,5.95 -5.9501,0 z m 7.075,0 0,-5.95 5.95,0 0,5.95 -5.95,0 z m 7.1,0 0,-5.95 5.95,0 0,5.95 -5.95,0 z m 7.0751,0 0,-5.95 5.9499,0 0,5.95 -5.9499,0 z m -466.525,-7.1 0,-5.95 5.95,0 0,5.95 -5.95,0 z m 7.1,0 0,-5.95 5.95,0 0,5.95 -5.95,0 z m 7.075,0 0,-5.95 5.95,0 0,5.95 -5.95,0 z m 7.1,0 0,-5.95 5.95,0 0,5.95 -5.95,0 z m 7.075,0 0,-5.95 5.95,0 0,5.95 -5.95,0 z m 7.1,0 0,-5.95 5.95,0 0,5.95 -5.95,0 z m 7.075,0 0,-5.95 5.95,0 0,5.95 -5.95,0 z m 7.1,0 0,-5.95 5.95,0 0,5.95 -5.95,0 z m 7.075,0 0,-5.95 5.95,0 0,5.95 -5.95,0 z m 7.1,0 0,-5.95 5.925,0 0,5.95 -5.925,0 z m 35.2,0 0,-5.95 5.95,0 0,5.95 -5.95,0 z m 7.1,0 0,-5.95 5.95,0 0,5.95 -5.95,0 z m 7.075,0 0,-5.95 5.95,0 0,5.95 -5.95,0 z m 7.1,0 0,-5.95 5.95,0 0,5.95 -5.95,0 z m 7.075,0 0,-5.95 5.95,0 0,5.95 -5.95,0 z m 7.1,0 0,-5.95 5.95,0 0,5.95 -5.95,0 z m 7.075,0 0,-5.95 5.95,0 0,5.95 -5.95,0 z m 7.1,0 0,-5.95 5.95,0 0,5.95 -5.95,0 z m 7.075,0 0,-5.95 5.95,0 0,5.95 -5.95,0 z m 7.1,0 0,-5.95 5.925,0 0,5.95 -5.925,0 z m 63.2,0 0,-5.95 5.95,0 0,5.95 -5.95,0 z m 7.1,0 0,-5.95 5.95,0 0,5.95 -5.95,0 z m 7.075,0 0,-5.95 5.95,0 0,5.95 -5.95,0 z m 7.1,0 0,-5.95 5.95,0 0,5.95 -5.95,0 z m 7.075,0 0,-5.95 5.95,0 0,5.95 -5.95,0 z m 7.1,0 0,-5.95 5.95,0 0,5.95 -5.95,0 z m 7.075,0 0,-5.95 5.95,0 0,5.95 -5.95,0 z m 7.1,0 0,-5.95 5.95,0 0,5.95 -5.95,0 z m 7.075,0 0,-5.95 5.95,0 0,5.95 -5.95,0 z m 7.1,0 0,-5.95 5.925,0 0,5.95 -5.925,0 z m 134.1999,0 0,-5.95 5.95,0 0,5.95 -5.95,0 z m 7.1,0 0,-5.95 5.95,0 0,5.95 -5.95,0 z m 7.075,0 0,-5.95 5.9501,0 0,5.95 -5.9501,0 z m 7.1,0 0,-5.95 5.9501,0 0,5.95 -5.9501,0 z m 7.075,0 0,-5.95 5.95,0 0,5.95 -5.95,0 z m 7.1,0 0,-5.95 5.95,0 0,5.95 -5.95,0 z m 7.0751,0 0,-5.95 5.9499,0 0,5.95 -5.9499,0 z m 7.1,0 0,-5.95 5.9499,0 0,5.95 -5.9499,0 z m 7.0749,0 0,-5.95 5.95,0 0,5.95 -5.95,0 z m 7.1,0 0,-5.95 5.9251,0 0,5.95 -5.9251,0 z m -494.8749,-7.075 0,-5.95 5.95,0 0,5.95 -5.95,0 z m 7.075,0 0,-5.95 5.95,0 0,5.95 -5.95,0 z m 7.1,0 0,-5.95 5.95,0 0,5.95 -5.95,0 z m 7.075,0 0,-5.95 5.95,0 0,5.95 -5.95,0 z m 7.1,0 0,-5.95 5.95,0 0,5.95 -5.95,0 z m 7.075,0 0,-5.95 5.95,0 0,5.95 -5.95,0 z m 7.1,0 0,-5.95 5.95,0 0,5.95 -5.95,0 z m 7.075,0 0,-5.95 5.95,0 0,5.95 -5.95,0 z m 7.1,0 0,-5.95 5.95,0 0,5.95 -5.95,0 z m 7.075,0 0,-5.95 5.95,0 0,5.95 -5.95,0 z m 7.1,0 0,-5.95 5.925,0 0,5.95 -5.925,0 z m 7.075,0 0,-5.95 5.95,0 0,5.95 -5.95,0 z m 21.05,0 0,-5.95 5.95,0 0,5.95 -5.95,0 z m 7.075,0 0,-5.95 5.95,0 0,5.95 -5.95,0 z m 7.1,0 0,-5.95 5.95,0 0,5.95 -5.95,0 z m 7.075,0 0,-5.95 5.95,0 0,5.95 -5.95,0 z m 7.1,0 0,-5.95 5.95,0 0,5.95 -5.95,0 z m 7.075,0 0,-5.95 5.95,0 0,5.95 -5.95,0 z m 7.1,0 0,-5.95 5.95,0 0,5.95 -5.95,0 z m 7.075,0 0,-5.95 5.95,0 0,5.95 -5.95,0 z m 7.1,0 0,-5.95 5.95,0 0,5.95 -5.95,0 z m 7.075,0 0,-5.95 5.95,0 0,5.95 -5.95,0 z m 7.1,0 0,-5.95 5.925,0 0,5.95 -5.925,0 z m 7.075,0 0,-5.95 5.95,0 0,5.95 -5.95,0 z m 49.05,0 0,-5.95 5.95,0 0,5.95 -5.95,0 z m 7.075,0 0,-5.95 5.95,0 0,5.95 -5.95,0 z m 7.1,0 0,-5.95 5.95,0 0,5.95 -5.95,0 z m 7.075,0 0,-5.95 5.95,0 0,5.95 -5.95,0 z m 7.1,0 0,-5.95 5.95,0 0,5.95 -5.95,0 z m 7.075,0 0,-5.95 5.95,0 0,5.95 -5.95,0 z m 7.1,0 0,-5.95 5.95,0 0,5.95 -5.95,0 z m 7.075,0 0,-5.95 5.95,0 0,5.95 -5.95,0 z m 7.1,0 0,-5.95 5.95,0 0,5.95 -5.95,0 z m 7.075,0 0,-5.95 5.95,0 0,5.95 -5.95,0 z m 7.1,0 0,-5.95 5.925,0 0,5.95 -5.925,0 z m 7.0749,0 0,-5.95 5.9501,0 0,5.95 -5.9501,0 z m 120.0501,0 0,-5.95 5.9499,0 0,5.95 -5.9499,0 z m 7.0749,0 0,-5.95 5.95,0 0,5.95 -5.95,0 z m 7.1,0 0,-5.95 5.95,0 0,5.95 -5.95,0 z m 7.075,0 0,-5.95 5.9501,0 0,5.95 -5.9501,0 z m 7.1,0 0,-5.95 5.9501,0 0,5.95 -5.9501,0 z m 7.075,0 0,-5.95 5.95,0 0,5.95 -5.95,0 z m 7.1,0 0,-5.95 5.95,0 0,5.95 -5.95,0 z m 7.0751,0 0,-5.95 5.9499,0 0,5.95 -5.9499,0 z m 7.1,0 0,-5.95 5.9499,0 0,5.95 -5.9499,0 z m 7.0749,0 0,-5.95 5.95,0 0,5.95 -5.95,0 z m 7.1,0 0,-5.95 5.9251,0 0,5.95 -5.9251,0 z m 7.075,0 0,-5.95 5.9501,0 0,5.95 -5.9501,0 z m -501.9499,-7.1 0,-5.925 5.95,0 0,5.925 -5.95,0 z m 7.075,0 0,-5.925 5.95,0 0,5.925 -5.95,0 z m 7.1,0 0,-5.925 5.95,0 0,5.925 -5.95,0 z m 21.25,0 0,-5.925 5.95,0 0,5.925 -5.95,0 z m 7.1,0 0,-5.925 5.95,0 0,5.925 -5.95,0 z m 21.25,0 0,-5.925 5.95,0 0,5.925 -5.95,0 z m 7.1,0 0,-5.925 5.925,0 0,5.925 -5.925,0 z m 7.075,0 0,-5.925 5.95,0 0,5.925 -5.95,0 z m 21.05,0 0,-5.925 5.95,0 0,5.925 -5.95,0 z m 7.075,0 0,-5.925 5.95,0 0,5.925 -5.95,0 z m 7.1,0 0,-5.925 5.95,0 0,5.925 -5.95,0 z m 21.25,0 0,-5.925 5.95,0 0,5.925 -5.95,0 z m 7.1,0 0,-5.925 5.95,0 0,5.925 -5.95,0 z m 21.25,0 0,-5.925 5.95,0 0,5.925 -5.95,0 z m 7.1,0 0,-5.925 5.925,0 0,5.925 -5.925,0 z m 7.075,0 0,-5.925 5.95,0 0,5.925 -5.95,0 z m 49.05,0 0,-5.925 5.95,0 0,5.925 -5.95,0 z m 7.075,0 0,-5.925 5.95,0 0,5.925 -5.95,0 z m 7.1,0 0,-5.925 5.95,0 0,5.925 -5.95,0 z m 21.25,0 0,-5.925 5.95,0 0,5.925 -5.95,0 z m 7.1,0 0,-5.925 5.95,0 0,5.925 -5.95,0 z m 21.25,0 0,-5.925 5.95,0 0,5.925 -5.95,0 z m 7.1,0 0,-5.925 5.925,0 0,5.925 -5.925,0 z m 7.0749,0 0,-5.925 5.9501,0 0,5.925 -5.9501,0 z m 120.0501,0 0,-5.925 5.9499,0 0,5.925 -5.9499,0 z m 7.0749,0 0,-5.925 5.95,0 0,5.925 -5.95,0 z m 7.1,0 0,-5.925 5.95,0 0,5.925 -5.95,0 z m 21.25,0 0,-5.925 5.95,0 0,5.925 -5.95,0 z m 7.1,0 0,-5.925 5.95,0 0,5.925 -5.95,0 z m 21.25,0 0,-5.925 5.95,0 0,5.925 -5.95,0 z m 7.1,0 0,-5.925 5.9251,0 0,5.925 -5.9251,0 z m 7.075,0 0,-5.925 5.9501,0 0,5.925 -5.9501,0 z m -501.9499,-7.075 0,-5.95 5.95,0 0,5.95 -5.95,0 z m 7.075,0 0,-5.95 5.95,0 0,5.95 -5.95,0 z m 7.1,0 0,-5.95 5.95,0 0,5.95 -5.95,0 z m 7.075,0 0,-5.95 5.95,0 0,5.95 -5.95,0 z m 7.1,0 0,-5.95 5.95,0 0,5.95 -5.95,0 z m 7.075,0 0,-5.95 5.95,0 0,5.95 -5.95,0 z m 7.1,0 0,-5.95 5.95,0 0,5.95 -5.95,0 z m 7.075,0 0,-5.95 5.95,0 0,5.95 -5.95,0 z m 7.1,0 0,-5.95 5.95,0 0,5.95 -5.95,0 z m 7.075,0 0,-5.95 5.95,0 0,5.95 -5.95,0 z m 7.1,0 0,-5.95 5.925,0 0,5.95 -5.925,0 z m 7.075,0 0,-5.95 5.95,0 0,5.95 -5.95,0 z m 21.05,0 0,-5.95 5.95,0 0,5.95 -5.95,0 z m 7.075,0 0,-5.95 5.95,0 0,5.95 -5.95,0 z m 7.1,0 0,-5.95 5.95,0 0,5.95 -5.95,0 z m 7.075,0 0,-5.95 5.95,0 0,5.95 -5.95,0 z m 7.1,0 0,-5.95 5.95,0 0,5.95 -5.95,0 z m 7.075,0 0,-5.95 5.95,0 0,5.95 -5.95,0 z m 7.1,0 0,-5.95 5.95,0 0,5.95 -5.95,0 z m 7.075,0 0,-5.95 5.95,0 0,5.95 -5.95,0 z m 7.1,0 0,-5.95 5.95,0 0,5.95 -5.95,0 z m 7.075,0 0,-5.95 5.95,0 0,5.95 -5.95,0 z m 7.1,0 0,-5.95 5.925,0 0,5.95 -5.925,0 z m 7.075,0 0,-5.95 5.95,0 0,5.95 -5.95,0 z m 49.05,0 0,-5.95 5.95,0 0,5.95 -5.95,0 z m 7.075,0 0,-5.95 5.95,0 0,5.95 -5.95,0 z m 7.1,0 0,-5.95 5.95,0 0,5.95 -5.95,0 z m 7.075,0 0,-5.95 5.95,0 0,5.95 -5.95,0 z m 7.1,0 0,-5.95 5.95,0 0,5.95 -5.95,0 z m 7.075,0 0,-5.95 5.95,0 0,5.95 -5.95,0 z m 7.1,0 0,-5.95 5.95,0 0,5.95 -5.95,0 z m 7.075,0 0,-5.95 5.95,0 0,5.95 -5.95,0 z m 7.1,0 0,-5.95 5.95,0 0,5.95 -5.95,0 z m 7.075,0 0,-5.95 5.95,0 0,5.95 -5.95,0 z m 7.1,0 0,-5.95 5.925,0 0,5.95 -5.925,0 z m 7.0749,0 0,-5.95 5.9501,0 0,5.95 -5.9501,0 z m 120.0501,0 0,-5.95 5.9499,0 0,5.95 -5.9499,0 z m 7.0749,0 0,-5.95 5.95,0 0,5.95 -5.95,0 z m 7.1,0 0,-5.95 5.95,0 0,5.95 -5.95,0 z m 7.075,0 0,-5.95 5.9501,0 0,5.95 -5.9501,0 z m 7.1,0 0,-5.95 5.9501,0 0,5.95 -5.9501,0 z m 7.075,0 0,-5.95 5.95,0 0,5.95 -5.95,0 z m 7.1,0 0,-5.95 5.95,0 0,5.95 -5.95,0 z m 7.0751,0 0,-5.95 5.9499,0 0,5.95 -5.9499,0 z m 7.1,0 0,-5.95 5.9499,0 0,5.95 -5.9499,0 z m 7.0749,0 0,-5.95 5.95,0 0,5.95 -5.95,0 z m 7.1,0 0,-5.95 5.9251,0 0,5.95 -5.9251,0 z m 7.075,0 0,-5.95 5.9501,0 0,5.95 -5.9501,0 z m -480.6999,-7.075 0,-5.95 5.95,0 0,5.95 -5.95,0 z m 7.1,0 0,-5.95 5.95,0 0,5.95 -5.95,0 z m 21.25,0 0,-5.95 5.95,0 0,5.95 -5.95,0 z m 7.1,0 0,-5.95 5.95,0 0,5.95 -5.95,0 z m 63.55,0 0,-5.95 5.95,0 0,5.95 -5.95,0 z m 7.1,0 0,-5.95 5.95,0 0,5.95 -5.95,0 z m 21.25,0 0,-5.95 5.95,0 0,5.95 -5.95,0 z m 7.1,0 0,-5.95 5.95,0 0,5.95 -5.95,0 z m 91.55,0 0,-5.95 5.95,0 0,5.95 -5.95,0 z m 7.1,0 0,-5.95 5.95,0 0,5.95 -5.95,0 z m 21.25,0 0,-5.95 5.95,0 0,5.95 -5.95,0 z m 7.1,0 0,-5.95 5.95,0 0,5.95 -5.95,0 z m 162.55,0 0,-5.95 5.95,0 0,5.95 -5.95,0 z m 7.1,0 0,-5.95 5.95,0 0,5.95 -5.95,0 z m 21.25,0 0,-5.95 5.95,0 0,5.95 -5.95,0 z m 7.1,0 0,-5.95 5.95,0 0,5.95 -5.95,0 z m -466.525,-7.1 0,-5.95 5.95,0 0,5.95 -5.95,0 z m 7.075,0 0,-5.95 5.95,0 0,5.95 -5.95,0 z m 14.175,0 0,-5.95 5.95,0 0,5.95 -5.95,0 z m 7.1,0 0,-5.95 5.95,0 0,5.95 -5.95,0 z m 14.175,0 0,-5.95 5.95,0 0,5.95 -5.95,0 z m 7.075,0 0,-5.95 5.95,0 0,5.95 -5.95,0 z m 49.4,0 0,-5.95 5.95,0 0,5.95 -5.95,0 z m 7.075,0 0,-5.95 5.95,0 0,5.95 -5.95,0 z m 14.175,0 0,-5.95 5.95,0 0,5.95 -5.95,0 z m 7.1,0 0,-5.95 5.95,0 0,5.95 -5.95,0 z m 14.175,0 0,-5.95 5.95,0 0,5.95 -5.95,0 z m 7.075,0 0,-5.95 5.95,0 0,5.95 -5.95,0 z m 77.4,0 0,-5.95 5.95,0 0,5.95 -5.95,0 z m 7.075,0 0,-5.95 5.95,0 0,5.95 -5.95,0 z m 14.175,0 0,-5.95 5.95,0 0,5.95 -5.95,0 z m 7.1,0 0,-5.95 5.95,0 0,5.95 -5.95,0 z m 14.175,0 0,-5.95 5.95,0 0,5.95 -5.95,0 z m 7.075,0 0,-5.95 5.95,0 0,5.95 -5.95,0 z m 148.4,0 0,-5.95 5.95,0 0,5.95 -5.95,0 z m 7.075,0 0,-5.95 5.95,0 0,5.95 -5.95,0 z m 14.175,0 0,-5.95 5.95,0 0,5.95 -5.95,0 z m 7.1,0 0,-5.95 5.95,0 0,5.95 -5.95,0 z m 14.175,0 0,-5.95 5.95,0 0,5.95 -5.95,0 z m 7.075,0 0,-5.95 5.95,0 0,5.95 -5.95,0 z m -487.775,-7.075 0,-5.95 5.95,0 0,5.95 -5.95,0 z m 7.075,0 0,-5.95 5.95,0 0,5.95 -5.95,0 z m 63.8,0 0,-5.95 5.925,0 0,5.95 -5.925,0 z m 7.075,0 0,-5.95 5.95,0 0,5.95 -5.95,0 z m 21.05,0 0,-5.95 5.95,0 0,5.95 -5.95,0 z m 7.075,0 0,-5.95 5.95,0 0,5.95 -5.95,0 z m 63.8,0 0,-5.95 5.925,0 0,5.95 -5.925,0 z m 7.075,0 0,-5.95 5.95,0 0,5.95 -5.95,0 z m 49.05,0 0,-5.95 5.95,0 0,5.95 -5.95,0 z m 7.075,0 0,-5.95 5.95,0 0,5.95 -5.95,0 z m 63.8,0 0,-5.95 5.925,0 0,5.95 -5.925,0 z m 7.0749,0 0,-5.95 5.9501,0 0,5.95 -5.9501,0 z m 120.0501,0 0,-5.95 5.95,0 0,5.95 -5.95,0 z m 7.075,0 0,-5.95 5.95,0 0,5.95 -5.95,0 z m 63.8,0 0,-5.95 5.925,0 0,5.95 -5.925,0 z m 7.075,0 0,-5.95 5.95,0 0,5.95 -5.95,0 z m -509.5,-24.3 c 0.8879,-1.33443 2.0405,-2.48708 3.375,-3.375 -1.334,-0.8876 -2.4873,-2.04119 -3.375,-3.375 -0.8875,1.33334 -2.0417,2.48753 -3.375,3.375 1.3338,0.88779 2.4874,2.04106 3.375,3.375 z m 99,0 c 0.8879,-1.33443 2.0405,-2.48708 3.375,-3.375 -1.334,-0.8876 -2.4873,-2.04119 -3.375,-3.375 -0.8875,1.33334 -2.0417,2.48753 -3.375,3.375 1.3338,0.88779 2.4874,2.04106 3.375,3.375 z m 225.9999,0 c 0.8879,-1.33443 2.0407,-2.48708 3.3751,-3.375 -1.334,-0.8876 -2.4872,-2.04119 -3.3751,-3.375 -0.8874,1.33334 -2.0416,2.48753 -3.3749,3.375 1.3338,0.88779 2.4873,2.04106 3.3749,3.375 z m 99.0001,0 c 0.8878,-1.33443 2.0405,-2.48708 3.375,-3.375 -1.3339,-0.8876 -2.4872,-2.04119 -3.375,-3.375 -0.8876,1.33334 -2.0416,2.48753 -3.375,3.375 1.3338,0.88779 2.4874,2.04106 3.375,3.375 z m -513,-5.375 79,0 c 4.4665,0 8,-3.53341 8,-8 l 0,-79 c 0,-4.46659 -3.5335,-8 -8,-8 l -79,0 c -4.4666,0 -8,3.53341 -8,8 l 0,79 c 0,4.46659 3.5334,8 8,8 z m 99,0 79,0 c 4.4665,0 8,-3.53341 8,-8 l 0,-79 c 0,-4.46659 -3.5335,-8 -8,-8 l -79,0 c -4.4666,0 -8,3.53341 -8,8 l 0,79 c 0,4.46659 3.5334,8 8,8 z m 99,0 79,0 c 4.4665,0 8,-3.53341 8,-8 l 0,-79 c 0,-4.46659 -3.5335,-8 -8,-8 l -79,0 c -4.4666,0 -8,3.53341 -8,8 l 0,79 c 0,4.46659 3.5334,8 8,8 z m 127,0 78.9999,0 c 4.4667,0 8,-3.53341 8,-8 l 0,-79 c 0,-4.46659 -3.5333,-8 -8,-8 l -78.9999,0 c -4.4666,0 -8,3.53341 -8,8 l 0,79 c 0,4.46659 3.5334,8 8,8 z m 98.9999,0 79.0001,0 c 4.4666,0 8,-3.53341 8,-8 l 0,-79 c 0,-4.46659 -3.5334,-8 -8,-8 l -79.0001,0 c -4.4665,0 -8,3.53341 -8,8 l 0,79 c 0,4.46659 3.5335,8 8,8 z m 99.0001,0 79,0 c 4.4665,0 8,-3.53341 8,-8 l 0,-79 c 0,-4.46659 -3.5335,-8 -8,-8 l -79,0 c -4.4667,0 -8,3.53341 -8,8 l 0,79 c 0,4.46659 3.5333,8 8,8 z m -398.1,-19.725 0,-5.95 5.95,0 0,5.95 -5.95,0 z m 7.075,0 0,-5.95 5.95,0 0,5.95 -5.95,0 z m 7.1,0 0,-5.95 5.95,0 0,5.95 -5.95,0 z m 7.075,0 0,-5.95 5.95,0 0,5.95 -5.95,0 z m 303.7499,0 0,-5.95 5.9501,0 0,5.95 -5.9501,0 z m 7.0751,0 0,-5.95 5.95,0 0,5.95 -5.95,0 z m 7.0999,0 0,-5.95 5.95,0 0,5.95 -5.95,0 z m 7.0751,0 0,-5.95 5.95,0 0,5.95 -5.95,0 z m 77.75,0 0,-5.95 5.95,0 0,5.95 -5.95,0 z m 7.075,0 0,-5.95 5.95,0 0,5.95 -5.95,0 z m 7.1,0 0,-5.95 5.95,0 0,5.95 -5.95,0 z m 7.075,0 0,-5.95 5.95,0 0,5.95 -5.95,0 z m -466.525,-7.1 0,-5.95 5.95,0 0,5.95 -5.95,0 z m 7.1,0 0,-5.95 5.95,0 0,5.95 -5.95,0 z m 7.075,0 0,-5.95 5.95,0 0,5.95 -5.95,0 z m 7.1,0 0,-5.95 5.95,0 0,5.95 -5.95,0 z m 7.075,0 0,-5.95 5.95,0 0,5.95 -5.95,0 z m 7.1,0 0,-5.95 5.95,0 0,5.95 -5.95,0 z m 7.075,0 0,-5.95 5.95,0 0,5.95 -5.95,0 z m 7.1,0 0,-5.95 5.95,0 0,5.95 -5.95,0 z m 7.075,0 0,-5.95 5.95,0 0,5.95 -5.95,0 z m 7.1,0 0,-5.95 5.925,0 0,5.95 -5.925,0 z m 261.2,0 0,-5.95 5.95,0 0,5.95 -5.95,0 z m 7.1,0 0,-5.95 5.95,0 0,5.95 -5.95,0 z m 7.0749,0 0,-5.95 5.9501,0 0,5.95 -5.9501,0 z m 7.1,0 0,-5.95 5.9501,0 0,5.95 -5.9501,0 z m 7.0751,0 0,-5.95 5.95,0 0,5.95 -5.95,0 z m 7.1,0 0,-5.95 5.95,0 0,5.95 -5.95,0 z m 7.075,0 0,-5.95 5.95,0 0,5.95 -5.95,0 z m 7.1,0 0,-5.95 5.95,0 0,5.95 -5.95,0 z m 7.075,0 0,-5.95 5.95,0 0,5.95 -5.95,0 z m 7.1,0 0,-5.95 5.925,0 0,5.95 -5.925,0 z m 35.2,0 0,-5.95 5.95,0 0,5.95 -5.95,0 z m 7.1,0 0,-5.95 5.95,0 0,5.95 -5.95,0 z m 7.075,0 0,-5.95 5.95,0 0,5.95 -5.95,0 z m 7.1,0 0,-5.95 5.95,0 0,5.95 -5.95,0 z m 7.075,0 0,-5.95 5.95,0 0,5.95 -5.95,0 z m 7.1,0 0,-5.95 5.95,0 0,5.95 -5.95,0 z m 7.075,0 0,-5.95 5.95,0 0,5.95 -5.95,0 z m 7.1,0 0,-5.95 5.95,0 0,5.95 -5.95,0 z m 7.075,0 0,-5.95 5.95,0 0,5.95 -5.95,0 z m 7.1,0 0,-5.95 5.925,0 0,5.95 -5.925,0 z m -494.875,-7.075 0,-5.95 5.95,0 0,5.95 -5.95,0 z m 7.075,0 0,-5.95 5.95,0 0,5.95 -5.95,0 z m 7.1,0 0,-5.95 5.95,0 0,5.95 -5.95,0 z m 7.075,0 0,-5.95 5.95,0 0,5.95 -5.95,0 z m 7.1,0 0,-5.95 5.95,0 0,5.95 -5.95,0 z m 7.075,0 0,-5.95 5.95,0 0,5.95 -5.95,0 z m 7.1,0 0,-5.95 5.95,0 0,5.95 -5.95,0 z m 7.075,0 0,-5.95 5.95,0 0,5.95 -5.95,0 z m 7.1,0 0,-5.95 5.95,0 0,5.95 -5.95,0 z m 7.075,0 0,-5.95 5.95,0 0,5.95 -5.95,0 z m 7.1,0 0,-5.95 5.925,0 0,5.95 -5.925,0 z m 7.075,0 0,-5.95 5.95,0 0,5.95 -5.95,0 z m 247.05,0 0,-5.95 5.9499,0 0,5.95 -5.9499,0 z m 7.075,0 0,-5.95 5.95,0 0,5.95 -5.95,0 z m 7.1,0 0,-5.95 5.95,0 0,5.95 -5.95,0 z m 7.0749,0 0,-5.95 5.9501,0 0,5.95 -5.9501,0 z m 7.1,0 0,-5.95 5.9501,0 0,5.95 -5.9501,0 z m 7.0751,0 0,-5.95 5.95,0 0,5.95 -5.95,0 z m 7.1,0 0,-5.95 5.95,0 0,5.95 -5.95,0 z m 7.075,0 0,-5.95 5.95,0 0,5.95 -5.95,0 z m 7.1,0 0,-5.95 5.95,0 0,5.95 -5.95,0 z m 7.075,0 0,-5.95 5.95,0 0,5.95 -5.95,0 z m 7.1,0 0,-5.95 5.925,0 0,5.95 -5.925,0 z m 7.075,0 0,-5.95 5.95,0 0,5.95 -5.95,0 z m 21.05,0 0,-5.95 5.95,0 0,5.95 -5.95,0 z m 7.075,0 0,-5.95 5.95,0 0,5.95 -5.95,0 z m 7.1,0 0,-5.95 5.95,0 0,5.95 -5.95,0 z m 7.075,0 0,-5.95 5.95,0 0,5.95 -5.95,0 z m 7.1,0 0,-5.95 5.95,0 0,5.95 -5.95,0 z m 7.075,0 0,-5.95 5.95,0 0,5.95 -5.95,0 z m 7.1,0 0,-5.95 5.95,0 0,5.95 -5.95,0 z m 7.075,0 0,-5.95 5.95,0 0,5.95 -5.95,0 z m 7.1,0 0,-5.95 5.95,0 0,5.95 -5.95,0 z m 7.075,0 0,-5.95 5.95,0 0,5.95 -5.95,0 z m 7.1,0 0,-5.95 5.925,0 0,5.95 -5.925,0 z m 7.075,0 0,-5.95 5.95,0 0,5.95 -5.95,0 z m -501.95,-7.1 0,-5.925 5.95,0 0,5.925 -5.95,0 z m 7.075,0 0,-5.925 5.95,0 0,5.925 -5.95,0 z m 7.1,0 0,-5.925 5.95,0 0,5.925 -5.95,0 z m 21.25,0 0,-5.925 5.95,0 0,5.925 -5.95,0 z m 7.1,0 0,-5.925 5.95,0 0,5.925 -5.95,0 z m 21.25,0 0,-5.925 5.95,0 0,5.925 -5.95,0 z m 7.1,0 0,-5.925 5.925,0 0,5.925 -5.925,0 z m 7.075,0 0,-5.925 5.95,0 0,5.925 -5.95,0 z m 247.05,0 0,-5.925 5.9499,0 0,5.925 -5.9499,0 z m 7.075,0 0,-5.925 5.95,0 0,5.925 -5.95,0 z m 7.1,0 0,-5.925 5.95,0 0,5.925 -5.95,0 z m 21.25,0 0,-5.925 5.95,0 0,5.925 -5.95,0 z m 7.0999,0 0,-5.925 5.95,0 0,5.925 -5.95,0 z m 21.2501,0 0,-5.925 5.95,0 0,5.925 -5.95,0 z m 7.1,0 0,-5.925 5.925,0 0,5.925 -5.925,0 z m 7.075,0 0,-5.925 5.95,0 0,5.925 -5.95,0 z m 21.05,0 0,-5.925 5.95,0 0,5.925 -5.95,0 z m 7.0749,0 0,-5.925 5.95,0 0,5.925 -5.95,0 z m 7.1,0 0,-5.925 5.95,0 0,5.925 -5.95,0 z m 21.25,0 0,-5.925 5.95,0 0,5.925 -5.95,0 z m 7.1,0 0,-5.925 5.95,0 0,5.925 -5.95,0 z m 21.25,0 0,-5.925 5.95,0 0,5.925 -5.95,0 z m 7.1,0 0,-5.925 5.9251,0 0,5.925 -5.9251,0 z m 7.075,0 0,-5.925 5.9501,0 0,5.925 -5.9501,0 z m -501.9499,-7.075 0,-5.95 5.95,0 0,5.95 -5.95,0 z m 7.075,0 0,-5.95 5.95,0 0,5.95 -5.95,0 z m 7.1,0 0,-5.95 5.95,0 0,5.95 -5.95,0 z m 7.075,0 0,-5.95 5.95,0 0,5.95 -5.95,0 z m 7.1,0 0,-5.95 5.95,0 0,5.95 -5.95,0 z m 7.075,0 0,-5.95 5.95,0 0,5.95 -5.95,0 z m 7.1,0 0,-5.95 5.95,0 0,5.95 -5.95,0 z m 7.075,0 0,-5.95 5.95,0 0,5.95 -5.95,0 z m 7.1,0 0,-5.95 5.95,0 0,5.95 -5.95,0 z m 7.075,0 0,-5.95 5.95,0 0,5.95 -5.95,0 z m 7.1,0 0,-5.95 5.925,0 0,5.95 -5.925,0 z m 7.075,0 0,-5.95 5.95,0 0,5.95 -5.95,0 z m 247.05,0 0,-5.95 5.9499,0 0,5.95 -5.9499,0 z m 7.075,0 0,-5.95 5.95,0 0,5.95 -5.95,0 z m 7.1,0 0,-5.95 5.95,0 0,5.95 -5.95,0 z m 7.0749,0 0,-5.95 5.9501,0 0,5.95 -5.9501,0 z m 7.1,0 0,-5.95 5.9501,0 0,5.95 -5.9501,0 z m 7.0751,0 0,-5.95 5.95,0 0,5.95 -5.95,0 z m 7.0999,0 0,-5.95 5.95,0 0,5.95 -5.95,0 z m 7.0751,0 0,-5.95 5.9499,0 0,5.95 -5.9499,0 z m 7.1,0 0,-5.95 5.9499,0 0,5.95 -5.9499,0 z m 7.0749,0 0,-5.95 5.95,0 0,5.95 -5.95,0 z m 7.1,0 0,-5.95 5.9251,0 0,5.95 -5.9251,0 z m 7.075,0 0,-5.95 5.9501,0 0,5.95 -5.9501,0 z m 21.0501,0 0,-5.95 5.9499,0 0,5.95 -5.9499,0 z m 7.0749,0 0,-5.95 5.95,0 0,5.95 -5.95,0 z m 7.1,0 0,-5.95 5.95,0 0,5.95 -5.95,0 z m 7.075,0 0,-5.95 5.9501,0 0,5.95 -5.9501,0 z m 7.1,0 0,-5.95 5.9501,0 0,5.95 -5.9501,0 z m 7.075,0 0,-5.95 5.95,0 0,5.95 -5.95,0 z m 7.1,0 0,-5.95 5.95,0 0,5.95 -5.95,0 z m 7.0751,0 0,-5.95 5.9499,0 0,5.95 -5.9499,0 z m 7.1,0 0,-5.95 5.9499,0 0,5.95 -5.9499,0 z m 7.0749,0 0,-5.95 5.95,0 0,5.95 -5.95,0 z m 7.1,0 0,-5.95 5.9251,0 0,5.95 -5.9251,0 z m 7.075,0 0,-5.95 5.9501,0 0,5.95 -5.9501,0 z m -480.6999,-7.075 0,-5.95 5.95,0 0,5.95 -5.95,0 z m 7.1,0 0,-5.95 5.95,0 0,5.95 -5.95,0 z m 21.25,0 0,-5.95 5.95,0 0,5.95 -5.95,0 z m 7.1,0 0,-5.95 5.95,0 0,5.95 -5.95,0 z m 289.5499,0 0,-5.95 5.9501,0 0,5.95 -5.9501,0 z m 7.1,0 0,-5.95 5.9501,0 0,5.95 -5.9501,0 z m 21.2501,0 0,-5.95 5.9499,0 0,5.95 -5.9499,0 z m 7.1,0 0,-5.95 5.9499,0 0,5.95 -5.9499,0 z m 63.5499,0 0,-5.95 5.9501,0 0,5.95 -5.9501,0 z m 7.1,0 0,-5.95 5.9501,0 0,5.95 -5.9501,0 z m 21.2501,0 0,-5.95 5.9499,0 0,5.95 -5.9499,0 z m 7.1,0 0,-5.95 5.9499,0 0,5.95 -5.9499,0 z m -466.525,-7.1 0,-5.95 5.95,0 0,5.95 -5.95,0 z m 7.075,0 0,-5.95 5.95,0 0,5.95 -5.95,0 z m 14.175,0 0,-5.95 5.95,0 0,5.95 -5.95,0 z m 7.1,0 0,-5.95 5.95,0 0,5.95 -5.95,0 z m 14.175,0 0,-5.95 5.95,0 0,5.95 -5.95,0 z m 7.075,0 0,-5.95 5.95,0 0,5.95 -5.95,0 z m 275.4,0 0,-5.95 5.95,0 0,5.95 -5.95,0 z m 7.0749,0 0,-5.95 5.9501,0 0,5.95 -5.9501,0 z m 14.1751,0 0,-5.95 5.95,0 0,5.95 -5.95,0 z m 7.0999,0 0,-5.95 5.95,0 0,5.95 -5.95,0 z m 14.1751,0 0,-5.95 5.9499,0 0,5.95 -5.9499,0 z m 7.0749,0 0,-5.95 5.95,0 0,5.95 -5.95,0 z m 49.4,0 0,-5.95 5.95,0 0,5.95 -5.95,0 z m 7.075,0 0,-5.95 5.9501,0 0,5.95 -5.9501,0 z m 14.175,0 0,-5.95 5.95,0 0,5.95 -5.95,0 z m 7.1,0 0,-5.95 5.95,0 0,5.95 -5.95,0 z m 14.1751,0 0,-5.95 5.9499,0 0,5.95 -5.9499,0 z m 7.0749,0 0,-5.95 5.95,0 0,5.95 -5.95,0 z m -487.7749,-7.075 0,-5.95 5.95,0 0,5.95 -5.95,0 z m 7.075,0 0,-5.95 5.95,0 0,5.95 -5.95,0 z m 63.8,0 0,-5.95 5.925,0 0,5.95 -5.925,0 z m 7.075,0 0,-5.95 5.95,0 0,5.95 -5.95,0 z m 247.05,0 0,-5.95 5.9499,0 0,5.95 -5.9499,0 z m 7.075,0 0,-5.95 5.95,0 0,5.95 -5.95,0 z m 63.7999,0 0,-5.95 5.9251,0 0,5.95 -5.9251,0 z m 7.075,0 0,-5.95 5.9501,0 0,5.95 -5.9501,0 z m 21.0501,0 0,-5.95 5.9499,0 0,5.95 -5.9499,0 z m 7.0749,0 0,-5.95 5.95,0 0,5.95 -5.95,0 z m 63.8,0 0,-5.95 5.9251,0 0,5.95 -5.9251,0 z m 7.075,0 0,-5.95 5.9501,0 0,5.95 -5.9501,0 z m -923.4999,-53.675 c -6.6135,0 -12,-5.38659 -12,-12 l 0,-79 c 0,-4.1659 2.1399,-7.84742 5.375,-10 -3.2351,-2.15258 -5.375,-5.8341 -5.375,-10 l 0,-79 c 0,-4.16591 2.1399,-7.84742 5.375,-10 -3.2351,-2.15258 -5.375,-5.8341 -5.375,-10 l 0,-79 c 0,-6.61341 5.3865,-12 12,-12 l 79,0 c 4.1659,0 7.8474,2.13997 10,5.375 2.1525,-3.23503 5.834,-5.375 10,-5.375 l 79,0 c 4.1659,0 7.8474,2.13997 10,5.375 2.1525,-3.23503 5.834,-5.375 10,-5.375 l 79,0 c 6.6134,0 12,5.38659 12,12 l 0,79 c 0,4.1653 -2.1408,7.84729 -5.375,10 3.2342,2.15271 5.375,5.8347 5.375,10 l 0,79 c 0,4.1653 -2.1408,7.84729 -5.375,10 3.2342,2.15271 5.375,5.8347 5.375,10 l 0,79 c 0,6.61341 -5.3866,12 -12,12 l -79,0 c -4.1653,0 -7.8473,-2.14077 -10,-5.375 -2.1528,3.23423 -5.8348,5.375 -10,5.375 l -79,0 c -4.1653,0 -7.8473,-2.14077 -10,-5.375 -2.1528,3.23423 -5.8348,5.375 -10,5.375 l -79,0 z m 325,0 c -6.6135,0 -12,-5.38659 -12,-12 l 0,-79 c 0,-4.1659 2.1399,-7.84742 5.375,-10 -3.2351,-2.15258 -5.375,-5.8341 -5.375,-10 l 0,-79 c 0,-4.16591 2.1399,-7.84742 5.375,-10 -3.2351,-2.15258 -5.375,-5.8341 -5.375,-10 l 0,-79 c 0,-6.61341 5.3865,-12 12,-12 l 79,0 c 4.1659,0 7.8474,2.13997 10,5.375 2.1525,-3.23503 5.834,-5.375 10,-5.375 l 79,0 c 4.1659,0 7.8474,2.13997 10,5.375 2.1525,-3.23503 5.834,-5.375 10,-5.375 l 79,0 c 6.6134,0 12,5.38659 12,12 l 0,79 c 0,4.1653 -2.1408,7.84729 -5.375,10 3.2342,2.15271 5.375,5.8347 5.375,10 l 0,79 c 0,4.1653 -2.1408,7.84729 -5.375,10 3.2342,2.15271 5.375,5.8347 5.375,10 l 0,79 c 0,6.61341 -5.3866,12 -12,12 l -79,0 c -4.1653,0 -7.8473,-2.14077 -10,-5.375 -2.1528,3.23423 -5.8348,5.375 -10,5.375 l -79,0 c -4.1653,0 -7.8473,-2.14077 -10,-5.375 -2.1528,3.23423 -5.8348,5.375 -10,5.375 l -79,0 z m -325,-4 79,0 c 4.4665,0 8,-3.53341 8,-8 l 0,-79 c 0,-4.46659 -3.5335,-8 -8,-8 l -79,0 c -4.4666,0 -8,3.53341 -8,8 l 0,79 c 0,4.46659 3.5334,8 8,8 z m 99,0 79,0 c 4.4665,0 8,-3.53341 8,-8 l 0,-79 c 0,-4.46659 -3.5335,-8 -8,-8 l -79,0 c -4.4666,0 -8,3.53341 -8,8 l 0,79 c 0,4.46659 3.5334,8 8,8 z m 99,0 79,0 c 4.4665,0 8,-3.53341 8,-8 l 0,-79 c 0,-4.46659 -3.5335,-8 -8,-8 l -79,0 c -4.4666,0 -8,3.53341 -8,8 l 0,79 c 0,4.46659 3.5334,8 8,8 z m 127,0 79,0 c 4.4665,0 8,-3.53341 8,-8 l 0,-79 c 0,-4.46659 -3.5335,-8 -8,-8 l -79,0 c -4.4666,0 -8,3.53341 -8,8 l 0,79 c 0,4.46659 3.5334,8 8,8 z m 99,0 79,0 c 4.4665,0 8,-3.53341 8,-8 l 0,-79 c 0,-4.46659 -3.5335,-8 -8,-8 l -79,0 c -4.4666,0 -8,3.53341 -8,8 l 0,79 c 0,4.46659 3.5334,8 8,8 z m 99,0 79,0 c 4.4665,0 8,-3.53341 8,-8 l 0,-79 c 0,-4.46659 -3.5335,-8 -8,-8 l -79,0 c -4.4666,0 -8,3.53341 -8,8 l 0,79 c 0,4.46659 3.5334,8 8,8 z m -497.1,-19.725 0,-5.95 5.95,0 0,5.95 -5.95,0 z m 7.075,0 0,-5.95 5.95,0 0,5.95 -5.95,0 z m 7.1,0 0,-5.95 5.95,0 0,5.95 -5.95,0 z m 7.075,0 0,-5.95 5.95,0 0,5.95 -5.95,0 z m 402.75,0 0,-5.95 5.95,0 0,5.95 -5.95,0 z m 7.075,0 0,-5.95 5.95,0 0,5.95 -5.95,0 z m 7.1,0 0,-5.95 5.95,0 0,5.95 -5.95,0 z m 7.075,0 0,-5.95 5.95,0 0,5.95 -5.95,0 z m -466.525,-7.1 0,-5.95 5.95,0 0,5.95 -5.95,0 z m 7.1,0 0,-5.95 5.95,0 0,5.95 -5.95,0 z m 7.075,0 0,-5.95 5.95,0 0,5.95 -5.95,0 z m 7.1,0 0,-5.95 5.95,0 0,5.95 -5.95,0 z m 7.075,0 0,-5.95 5.95,0 0,5.95 -5.95,0 z m 7.1,0 0,-5.95 5.95,0 0,5.95 -5.95,0 z m 7.075,0 0,-5.95 5.95,0 0,5.95 -5.95,0 z m 7.1,0 0,-5.95 5.95,0 0,5.95 -5.95,0 z m 7.075,0 0,-5.95 5.95,0 0,5.95 -5.95,0 z m 7.1,0 0,-5.95 5.925,0 0,5.95 -5.925,0 z m 360.2,0 0,-5.95 5.95,0 0,5.95 -5.95,0 z m 7.1,0 0,-5.95 5.95,0 0,5.95 -5.95,0 z m 7.075,0 0,-5.95 5.95,0 0,5.95 -5.95,0 z m 7.1,0 0,-5.95 5.95,0 0,5.95 -5.95,0 z m 7.075,0 0,-5.95 5.95,0 0,5.95 -5.95,0 z m 7.1,0 0,-5.95 5.95,0 0,5.95 -5.95,0 z m 7.075,0 0,-5.95 5.95,0 0,5.95 -5.95,0 z m 7.1,0 0,-5.95 5.95,0 0,5.95 -5.95,0 z m 7.075,0 0,-5.95 5.95,0 0,5.95 -5.95,0 z m 7.1,0 0,-5.95 5.925,0 0,5.95 -5.925,0 z m -494.875,-7.075 0,-5.95 5.95,0 0,5.95 -5.95,0 z m 7.075,0 0,-5.95 5.95,0 0,5.95 -5.95,0 z m 7.1,0 0,-5.95 5.95,0 0,5.95 -5.95,0 z m 7.075,0 0,-5.95 5.95,0 0,5.95 -5.95,0 z m 7.1,0 0,-5.95 5.95,0 0,5.95 -5.95,0 z m 7.075,0 0,-5.95 5.95,0 0,5.95 -5.95,0 z m 7.1,0 0,-5.95 5.95,0 0,5.95 -5.95,0 z m 7.075,0 0,-5.95 5.95,0 0,5.95 -5.95,0 z m 7.1,0 0,-5.95 5.95,0 0,5.95 -5.95,0 z m 7.075,0 0,-5.95 5.95,0 0,5.95 -5.95,0 z m 7.1,0 0,-5.95 5.925,0 0,5.95 -5.925,0 z m 7.075,0 0,-5.95 5.95,0 0,5.95 -5.95,0 z m 346.05,0 0,-5.95 5.95,0 0,5.95 -5.95,0 z m 7.075,0 0,-5.95 5.95,0 0,5.95 -5.95,0 z m 7.1,0 0,-5.95 5.95,0 0,5.95 -5.95,0 z m 7.075,0 0,-5.95 5.95,0 0,5.95 -5.95,0 z m 7.1,0 0,-5.95 5.95,0 0,5.95 -5.95,0 z m 7.075,0 0,-5.95 5.95,0 0,5.95 -5.95,0 z m 7.1,0 0,-5.95 5.95,0 0,5.95 -5.95,0 z m 7.075,0 0,-5.95 5.95,0 0,5.95 -5.95,0 z m 7.1,0 0,-5.95 5.95,0 0,5.95 -5.95,0 z m 7.075,0 0,-5.95 5.95,0 0,5.95 -5.95,0 z m 7.1,0 0,-5.95 5.925,0 0,5.95 -5.925,0 z m 7.075,0 0,-5.95 5.95,0 0,5.95 -5.95,0 z m -501.95,-7.1 0,-5.925 5.95,0 0,5.925 -5.95,0 z m 7.075,0 0,-5.925 5.95,0 0,5.925 -5.95,0 z m 7.1,0 0,-5.925 5.95,0 0,5.925 -5.95,0 z m 21.25,0 0,-5.925 5.95,0 0,5.925 -5.95,0 z m 7.1,0 0,-5.925 5.95,0 0,5.925 -5.95,0 z m 21.25,0 0,-5.925 5.95,0 0,5.925 -5.95,0 z m 7.1,0 0,-5.925 5.925,0 0,5.925 -5.925,0 z m 7.075,0 0,-5.925 5.95,0 0,5.925 -5.95,0 z m 346.05,0 0,-5.925 5.95,0 0,5.925 -5.95,0 z m 7.075,0 0,-5.925 5.95,0 0,5.925 -5.95,0 z m 7.1,0 0,-5.925 5.95,0 0,5.925 -5.95,0 z m 21.25,0 0,-5.925 5.95,0 0,5.925 -5.95,0 z m 7.1,0 0,-5.925 5.95,0 0,5.925 -5.95,0 z m 21.25,0 0,-5.925 5.95,0 0,5.925 -5.95,0 z m 7.1,0 0,-5.925 5.925,0 0,5.925 -5.925,0 z m 7.075,0 0,-5.925 5.95,0 0,5.925 -5.95,0 z m -501.95,-7.075 0,-5.95 5.95,0 0,5.95 -5.95,0 z m 7.075,0 0,-5.95 5.95,0 0,5.95 -5.95,0 z m 7.1,0 0,-5.95 5.95,0 0,5.95 -5.95,0 z m 7.075,0 0,-5.95 5.95,0 0,5.95 -5.95,0 z m 7.1,0 0,-5.95 5.95,0 0,5.95 -5.95,0 z m 7.075,0 0,-5.95 5.95,0 0,5.95 -5.95,0 z m 7.1,0 0,-5.95 5.95,0 0,5.95 -5.95,0 z m 7.075,0 0,-5.95 5.95,0 0,5.95 -5.95,0 z m 7.1,0 0,-5.95 5.95,0 0,5.95 -5.95,0 z m 7.075,0 0,-5.95 5.95,0 0,5.95 -5.95,0 z m 7.1,0 0,-5.95 5.925,0 0,5.95 -5.925,0 z m 7.075,0 0,-5.95 5.95,0 0,5.95 -5.95,0 z m 346.05,0 0,-5.95 5.95,0 0,5.95 -5.95,0 z m 7.075,0 0,-5.95 5.95,0 0,5.95 -5.95,0 z m 7.1,0 0,-5.95 5.95,0 0,5.95 -5.95,0 z m 7.075,0 0,-5.95 5.95,0 0,5.95 -5.95,0 z m 7.1,0 0,-5.95 5.95,0 0,5.95 -5.95,0 z m 7.075,0 0,-5.95 5.95,0 0,5.95 -5.95,0 z m 7.1,0 0,-5.95 5.95,0 0,5.95 -5.95,0 z m 7.075,0 0,-5.95 5.95,0 0,5.95 -5.95,0 z m 7.1,0 0,-5.95 5.95,0 0,5.95 -5.95,0 z m 7.075,0 0,-5.95 5.95,0 0,5.95 -5.95,0 z m 7.1,0 0,-5.95 5.925,0 0,5.95 -5.925,0 z m 7.075,0 0,-5.95 5.95,0 0,5.95 -5.95,0 z m -480.7,-7.075 0,-5.95 5.95,0 0,5.95 -5.95,0 z m 7.1,0 0,-5.95 5.95,0 0,5.95 -5.95,0 z m 21.25,0 0,-5.95 5.95,0 0,5.95 -5.95,0 z m 7.1,0 0,-5.95 5.95,0 0,5.95 -5.95,0 z m 388.55,0 0,-5.95 5.95,0 0,5.95 -5.95,0 z m 7.1,0 0,-5.95 5.95,0 0,5.95 -5.95,0 z m 21.25,0 0,-5.95 5.95,0 0,5.95 -5.95,0 z m 7.1,0 0,-5.95 5.95,0 0,5.95 -5.95,0 z m -466.525,-7.1 0,-5.95 5.95,0 0,5.95 -5.95,0 z m 7.075,0 0,-5.95 5.95,0 0,5.95 -5.95,0 z m 14.175,0 0,-5.95 5.95,0 0,5.95 -5.95,0 z m 7.1,0 0,-5.95 5.95,0 0,5.95 -5.95,0 z m 14.175,0 0,-5.95 5.95,0 0,5.95 -5.95,0 z m 7.075,0 0,-5.95 5.95,0 0,5.95 -5.95,0 z m 374.4,0 0,-5.95 5.95,0 0,5.95 -5.95,0 z m 7.075,0 0,-5.95 5.95,0 0,5.95 -5.95,0 z m 14.175,0 0,-5.95 5.95,0 0,5.95 -5.95,0 z m 7.1,0 0,-5.95 5.95,0 0,5.95 -5.95,0 z m 14.175,0 0,-5.95 5.95,0 0,5.95 -5.95,0 z m 7.075,0 0,-5.95 5.95,0 0,5.95 -5.95,0 z m -487.775,-7.075 0,-5.95 5.95,0 0,5.95 -5.95,0 z m 7.075,0 0,-5.95 5.95,0 0,5.95 -5.95,0 z m 63.8,0 0,-5.95 5.925,0 0,5.95 -5.925,0 z m 7.075,0 0,-5.95 5.95,0 0,5.95 -5.95,0 z m 346.05,0 0,-5.95 5.95,0 0,5.95 -5.95,0 z m 7.075,0 0,-5.95 5.95,0 0,5.95 -5.95,0 z m 63.8,0 0,-5.95 5.925,0 0,5.95 -5.925,0 z m 7.075,0 0,-5.95 5.95,0 0,5.95 -5.95,0 z m -410.5,-24.3 c 0.8879,-1.33443 2.0405,-2.48708 3.375,-3.375 -1.334,-0.8876 -2.4873,-2.04118 -3.375,-3.375 -0.8875,1.33333 -2.0417,2.48753 -3.375,3.375 1.3338,0.88779 2.4874,2.04106 3.375,3.375 z m 99,0 c 0.8879,-1.33443 2.0405,-2.48708 3.375,-3.375 -1.334,-0.8876 -2.4873,-2.04118 -3.375,-3.375 -0.8875,1.33333 -2.0417,2.48753 -3.375,3.375 1.3338,0.88779 2.4874,2.04106 3.375,3.375 z m 226,0 c 0.8879,-1.33443 2.0405,-2.48708 3.375,-3.375 -1.334,-0.8876 -2.4873,-2.04118 -3.375,-3.375 -0.8875,1.33333 -2.0417,2.48753 -3.375,3.375 1.3338,0.88779 2.4874,2.04106 3.375,3.375 z m 99,0 c 0.8879,-1.33443 2.0405,-2.48708 3.375,-3.375 -1.334,-0.8876 -2.4873,-2.04118 -3.375,-3.375 -0.8875,1.33333 -2.0417,2.48753 -3.375,3.375 1.3338,0.88779 2.4874,2.04106 3.375,3.375 z m -513,-5.375 79,0 c 4.4665,0 8,-3.53341 8,-8 l 0,-79 c 0,-4.46659 -3.5335,-8 -8,-8 l -79,0 c -4.4666,0 -8,3.53341 -8,8 l 0,79 c 0,4.46659 3.5334,8 8,8 z m 99,0 79,0 c 4.4665,0 8,-3.53341 8,-8 l 0,-79 c 0,-4.46659 -3.5335,-8 -8,-8 l -79,0 c -4.4666,0 -8,3.53341 -8,8 l 0,79 c 0,4.46659 3.5334,8 8,8 z m 99,0 79,0 c 4.4665,0 8,-3.53341 8,-8 l 0,-79 c 0,-4.46659 -3.5335,-8 -8,-8 l -79,0 c -4.4666,0 -8,3.53341 -8,8 l 0,79 c 0,4.46659 3.5334,8 8,8 z m 127,0 79,0 c 4.4665,0 8,-3.53341 8,-8 l 0,-79 c 0,-4.46659 -3.5335,-8 -8,-8 l -79,0 c -4.4666,0 -8,3.53341 -8,8 l 0,79 c 0,4.46659 3.5334,8 8,8 z m 99,0 79,0 c 4.4665,0 8,-3.53341 8,-8 l 0,-79 c 0,-4.46659 -3.5335,-8 -8,-8 l -79,0 c -4.4666,0 -8,3.53341 -8,8 l 0,79 c 0,4.46659 3.5334,8 8,8 z m 99,0 79,0 c 4.4665,0 8,-3.53341 8,-8 l 0,-79 c 0,-4.46659 -3.5335,-8 -8,-8 l -79,0 c -4.4666,0 -8,3.53341 -8,8 l 0,79 c 0,4.46659 3.5334,8 8,8 z m -398.1,-19.725 0,-5.95 5.95,0 0,5.95 -5.95,0 z m 7.075,0 0,-5.95 5.95,0 0,5.95 -5.95,0 z m 7.1,0 0,-5.95 5.95,0 0,5.95 -5.95,0 z m 7.075,0 0,-5.95 5.95,0 0,5.95 -5.95,0 z m 77.75,0 0,-5.95 5.95,0 0,5.95 -5.95,0 z m 7.075,0 0,-5.95 5.95,0 0,5.95 -5.95,0 z m 7.1,0 0,-5.95 5.95,0 0,5.95 -5.95,0 z m 7.075,0 0,-5.95 5.95,0 0,5.95 -5.95,0 z m 303.75,0 0,-5.95 5.95,0 0,5.95 -5.95,0 z m 7.075,0 0,-5.95 5.95,0 0,5.95 -5.95,0 z m 7.1,0 0,-5.95 5.95,0 0,5.95 -5.95,0 z m 7.075,0 0,-5.95 5.95,0 0,5.95 -5.95,0 z m -466.525,-7.1 0,-5.95 5.95,0 0,5.95 -5.95,0 z m 7.1,0 0,-5.95 5.95,0 0,5.95 -5.95,0 z m 7.075,0 0,-5.95 5.95,0 0,5.95 -5.95,0 z m 7.1,0 0,-5.95 5.95,0 0,5.95 -5.95,0 z m 7.075,0 0,-5.95 5.95,0 0,5.95 -5.95,0 z m 7.1,0 0,-5.95 5.95,0 0,5.95 -5.95,0 z m 7.075,0 0,-5.95 5.95,0 0,5.95 -5.95,0 z m 7.1,0 0,-5.95 5.95,0 0,5.95 -5.95,0 z m 7.075,0 0,-5.95 5.95,0 0,5.95 -5.95,0 z m 7.1,0 0,-5.95 5.925,0 0,5.95 -5.925,0 z m 35.2,0 0,-5.95 5.95,0 0,5.95 -5.95,0 z m 7.1,0 0,-5.95 5.95,0 0,5.95 -5.95,0 z m 7.075,0 0,-5.95 5.95,0 0,5.95 -5.95,0 z m 7.1,0 0,-5.95 5.95,0 0,5.95 -5.95,0 z m 7.075,0 0,-5.95 5.95,0 0,5.95 -5.95,0 z m 7.1,0 0,-5.95 5.95,0 0,5.95 -5.95,0 z m 7.075,0 0,-5.95 5.95,0 0,5.95 -5.95,0 z m 7.1,0 0,-5.95 5.95,0 0,5.95 -5.95,0 z m 7.075,0 0,-5.95 5.95,0 0,5.95 -5.95,0 z m 7.1,0 0,-5.95 5.925,0 0,5.95 -5.925,0 z m 261.2,0 0,-5.95 5.95,0 0,5.95 -5.95,0 z m 7.1,0 0,-5.95 5.95,0 0,5.95 -5.95,0 z m 7.075,0 0,-5.95 5.95,0 0,5.95 -5.95,0 z m 7.1,0 0,-5.95 5.95,0 0,5.95 -5.95,0 z m 7.075,0 0,-5.95 5.95,0 0,5.95 -5.95,0 z m 7.1,0 0,-5.95 5.95,0 0,5.95 -5.95,0 z m 7.075,0 0,-5.95 5.95,0 0,5.95 -5.95,0 z m 7.1,0 0,-5.95 5.95,0 0,5.95 -5.95,0 z m 7.075,0 0,-5.95 5.95,0 0,5.95 -5.95,0 z m 7.1,0 0,-5.95 5.925,0 0,5.95 -5.925,0 z m -494.875,-7.075 0,-5.95 5.95,0 0,5.95 -5.95,0 z m 7.075,0 0,-5.95 5.95,0 0,5.95 -5.95,0 z m 7.1,0 0,-5.95 5.95,0 0,5.95 -5.95,0 z m 7.075,0 0,-5.95 5.95,0 0,5.95 -5.95,0 z m 7.1,0 0,-5.95 5.95,0 0,5.95 -5.95,0 z m 7.075,0 0,-5.95 5.95,0 0,5.95 -5.95,0 z m 7.1,0 0,-5.95 5.95,0 0,5.95 -5.95,0 z m 7.075,0 0,-5.95 5.95,0 0,5.95 -5.95,0 z m 7.1,0 0,-5.95 5.95,0 0,5.95 -5.95,0 z m 7.075,0 0,-5.95 5.95,0 0,5.95 -5.95,0 z m 7.1,0 0,-5.95 5.925,0 0,5.95 -5.925,0 z m 7.075,0 0,-5.95 5.95,0 0,5.95 -5.95,0 z m 21.05,0 0,-5.95 5.95,0 0,5.95 -5.95,0 z m 7.075,0 0,-5.95 5.95,0 0,5.95 -5.95,0 z m 7.1,0 0,-5.95 5.95,0 0,5.95 -5.95,0 z m 7.075,0 0,-5.95 5.95,0 0,5.95 -5.95,0 z m 7.1,0 0,-5.95 5.95,0 0,5.95 -5.95,0 z m 7.075,0 0,-5.95 5.95,0 0,5.95 -5.95,0 z m 7.1,0 0,-5.95 5.95,0 0,5.95 -5.95,0 z m 7.075,0 0,-5.95 5.95,0 0,5.95 -5.95,0 z m 7.1,0 0,-5.95 5.95,0 0,5.95 -5.95,0 z m 7.075,0 0,-5.95 5.95,0 0,5.95 -5.95,0 z m 7.1,0 0,-5.95 5.925,0 0,5.95 -5.925,0 z m 7.075,0 0,-5.95 5.95,0 0,5.95 -5.95,0 z m 247.05,0 0,-5.95 5.95,0 0,5.95 -5.95,0 z m 7.075,0 0,-5.95 5.95,0 0,5.95 -5.95,0 z m 7.1,0 0,-5.95 5.95,0 0,5.95 -5.95,0 z m 7.075,0 0,-5.95 5.95,0 0,5.95 -5.95,0 z m 7.1,0 0,-5.95 5.95,0 0,5.95 -5.95,0 z m 7.075,0 0,-5.95 5.95,0 0,5.95 -5.95,0 z m 7.1,0 0,-5.95 5.95,0 0,5.95 -5.95,0 z m 7.075,0 0,-5.95 5.95,0 0,5.95 -5.95,0 z m 7.1,0 0,-5.95 5.95,0 0,5.95 -5.95,0 z m 7.075,0 0,-5.95 5.95,0 0,5.95 -5.95,0 z m 7.1,0 0,-5.95 5.925,0 0,5.95 -5.925,0 z m 7.075,0 0,-5.95 5.95,0 0,5.95 -5.95,0 z m -501.95,-7.1 0,-5.925 5.95,0 0,5.925 -5.95,0 z m 7.075,0 0,-5.925 5.95,0 0,5.925 -5.95,0 z m 7.1,0 0,-5.925 5.95,0 0,5.925 -5.95,0 z m 21.25,0 0,-5.925 5.95,0 0,5.925 -5.95,0 z m 7.1,0 0,-5.925 5.95,0 0,5.925 -5.95,0 z m 21.25,0 0,-5.925 5.95,0 0,5.925 -5.95,0 z m 7.1,0 0,-5.925 5.925,0 0,5.925 -5.925,0 z m 7.075,0 0,-5.925 5.95,0 0,5.925 -5.95,0 z m 21.05,0 0,-5.925 5.95,0 0,5.925 -5.95,0 z m 7.075,0 0,-5.925 5.95,0 0,5.925 -5.95,0 z m 7.1,0 0,-5.925 5.95,0 0,5.925 -5.95,0 z m 21.25,0 0,-5.925 5.95,0 0,5.925 -5.95,0 z m 7.1,0 0,-5.925 5.95,0 0,5.925 -5.95,0 z m 21.25,0 0,-5.925 5.95,0 0,5.925 -5.95,0 z m 7.1,0 0,-5.925 5.925,0 0,5.925 -5.925,0 z m 7.075,0 0,-5.925 5.95,0 0,5.925 -5.95,0 z m 247.05,0 0,-5.925 5.95,0 0,5.925 -5.95,0 z m 7.075,0 0,-5.925 5.95,0 0,5.925 -5.95,0 z m 7.1,0 0,-5.925 5.95,0 0,5.925 -5.95,0 z m 21.25,0 0,-5.925 5.95,0 0,5.925 -5.95,0 z m 7.1,0 0,-5.925 5.95,0 0,5.925 -5.95,0 z m 21.25,0 0,-5.925 5.95,0 0,5.925 -5.95,0 z m 7.1,0 0,-5.925 5.925,0 0,5.925 -5.925,0 z m 7.075,0 0,-5.925 5.95,0 0,5.925 -5.95,0 z m -501.95,-7.075 0,-5.95 5.95,0 0,5.95 -5.95,0 z m 7.075,0 0,-5.95 5.95,0 0,5.95 -5.95,0 z m 7.1,0 0,-5.95 5.95,0 0,5.95 -5.95,0 z m 7.075,0 0,-5.95 5.95,0 0,5.95 -5.95,0 z m 7.1,0 0,-5.95 5.95,0 0,5.95 -5.95,0 z m 7.075,0 0,-5.95 5.95,0 0,5.95 -5.95,0 z m 7.1,0 0,-5.95 5.95,0 0,5.95 -5.95,0 z m 7.075,0 0,-5.95 5.95,0 0,5.95 -5.95,0 z m 7.1,0 0,-5.95 5.95,0 0,5.95 -5.95,0 z m 7.075,0 0,-5.95 5.95,0 0,5.95 -5.95,0 z m 7.1,0 0,-5.95 5.925,0 0,5.95 -5.925,0 z m 7.075,0 0,-5.95 5.95,0 0,5.95 -5.95,0 z m 21.05,0 0,-5.95 5.95,0 0,5.95 -5.95,0 z m 7.075,0 0,-5.95 5.95,0 0,5.95 -5.95,0 z m 7.1,0 0,-5.95 5.95,0 0,5.95 -5.95,0 z m 7.075,0 0,-5.95 5.95,0 0,5.95 -5.95,0 z m 7.1,0 0,-5.95 5.95,0 0,5.95 -5.95,0 z m 7.075,0 0,-5.95 5.95,0 0,5.95 -5.95,0 z m 7.1,0 0,-5.95 5.95,0 0,5.95 -5.95,0 z m 7.075,0 0,-5.95 5.95,0 0,5.95 -5.95,0 z m 7.1,0 0,-5.95 5.95,0 0,5.95 -5.95,0 z m 7.075,0 0,-5.95 5.95,0 0,5.95 -5.95,0 z m 7.1,0 0,-5.95 5.925,0 0,5.95 -5.925,0 z m 7.075,0 0,-5.95 5.95,0 0,5.95 -5.95,0 z m 247.05,0 0,-5.95 5.95,0 0,5.95 -5.95,0 z m 7.075,0 0,-5.95 5.95,0 0,5.95 -5.95,0 z m 7.1,0 0,-5.95 5.95,0 0,5.95 -5.95,0 z m 7.075,0 0,-5.95 5.95,0 0,5.95 -5.95,0 z m 7.1,0 0,-5.95 5.95,0 0,5.95 -5.95,0 z m 7.075,0 0,-5.95 5.95,0 0,5.95 -5.95,0 z m 7.1,0 0,-5.95 5.95,0 0,5.95 -5.95,0 z m 7.075,0 0,-5.95 5.95,0 0,5.95 -5.95,0 z m 7.1,0 0,-5.95 5.95,0 0,5.95 -5.95,0 z m 7.075,0 0,-5.95 5.95,0 0,5.95 -5.95,0 z m 7.1,0 0,-5.95 5.925,0 0,5.95 -5.925,0 z m 7.075,0 0,-5.95 5.95,0 0,5.95 -5.95,0 z m -480.7,-7.075 0,-5.95 5.95,0 0,5.95 -5.95,0 z m 7.1,0 0,-5.95 5.95,0 0,5.95 -5.95,0 z m 21.25,0 0,-5.95 5.95,0 0,5.95 -5.95,0 z m 7.1,0 0,-5.95 5.95,0 0,5.95 -5.95,0 z m 63.55,0 0,-5.95 5.95,0 0,5.95 -5.95,0 z m 7.1,0 0,-5.95 5.95,0 0,5.95 -5.95,0 z m 21.25,0 0,-5.95 5.95,0 0,5.95 -5.95,0 z m 7.1,0 0,-5.95 5.95,0 0,5.95 -5.95,0 z m 289.55,0 0,-5.95 5.95,0 0,5.95 -5.95,0 z m 7.1,0 0,-5.95 5.95,0 0,5.95 -5.95,0 z m 21.25,0 0,-5.95 5.95,0 0,5.95 -5.95,0 z m 7.1,0 0,-5.95 5.95,0 0,5.95 -5.95,0 z m -466.525,-7.1 0,-5.95 5.95,0 0,5.95 -5.95,0 z m 7.075,0 0,-5.95 5.95,0 0,5.95 -5.95,0 z m 14.175,0 0,-5.95 5.95,0 0,5.95 -5.95,0 z m 7.1,0 0,-5.95 5.95,0 0,5.95 -5.95,0 z m 14.175,0 0,-5.95 5.95,0 0,5.95 -5.95,0 z m 7.075,0 0,-5.95 5.95,0 0,5.95 -5.95,0 z m 49.4,0 0,-5.95 5.95,0 0,5.95 -5.95,0 z m 7.075,0 0,-5.95 5.95,0 0,5.95 -5.95,0 z m 14.175,0 0,-5.95 5.95,0 0,5.95 -5.95,0 z m 7.1,0 0,-5.95 5.95,0 0,5.95 -5.95,0 z m 14.175,0 0,-5.95 5.95,0 0,5.95 -5.95,0 z m 7.075,0 0,-5.95 5.95,0 0,5.95 -5.95,0 z m 275.4,0 0,-5.95 5.95,0 0,5.95 -5.95,0 z m 7.075,0 0,-5.95 5.95,0 0,5.95 -5.95,0 z m 14.175,0 0,-5.95 5.95,0 0,5.95 -5.95,0 z m 7.1,0 0,-5.95 5.95,0 0,5.95 -5.95,0 z m 14.175,0 0,-5.95 5.95,0 0,5.95 -5.95,0 z m 7.075,0 0,-5.95 5.95,0 0,5.95 -5.95,0 z m -487.775,-7.075 0,-5.95 5.95,0 0,5.95 -5.95,0 z m 7.075,0 0,-5.95 5.95,0 0,5.95 -5.95,0 z m 63.8,0 0,-5.95 5.925,0 0,5.95 -5.925,0 z m 7.075,0 0,-5.95 5.95,0 0,5.95 -5.95,0 z m 21.05,0 0,-5.95 5.95,0 0,5.95 -5.95,0 z m 7.075,0 0,-5.95 5.95,0 0,5.95 -5.95,0 z m 63.8,0 0,-5.95 5.925,0 0,5.95 -5.925,0 z m 7.075,0 0,-5.95 5.95,0 0,5.95 -5.95,0 z m 247.05,0 0,-5.95 5.95,0 0,5.95 -5.95,0 z m 7.075,0 0,-5.95 5.95,0 0,5.95 -5.95,0 z m 63.8,0 0,-5.95 5.925,0 0,5.95 -5.925,0 z m 7.075,0 0,-5.95 5.95,0 0,5.95 -5.95,0 z m -509.5,-24.3 c 0.8879,-1.33443 2.0405,-2.48708 3.375,-3.375 -1.334,-0.8876 -2.4873,-2.04118 -3.375,-3.375 -0.8875,1.33333 -2.0417,2.48753 -3.375,3.375 1.3338,0.88779 2.4874,2.04105 3.375,3.375 z m 99,0 c 0.8879,-1.33443 2.0405,-2.48708 3.375,-3.375 -1.334,-0.8876 -2.4873,-2.04118 -3.375,-3.375 -0.8875,1.33333 -2.0417,2.48753 -3.375,3.375 1.3338,0.88779 2.4874,2.04105 3.375,3.375 z m 226,0 c 0.8879,-1.33443 2.0405,-2.48708 3.375,-3.375 -1.334,-0.8876 -2.4873,-2.04118 -3.375,-3.375 -0.8875,1.33333 -2.0417,2.48753 -3.375,3.375 1.3338,0.88779 2.4874,2.04105 3.375,3.375 z m 99,0 c 0.8879,-1.33443 2.0405,-2.48708 3.375,-3.375 -1.334,-0.8876 -2.4873,-2.04118 -3.375,-3.375 -0.8875,1.33333 -2.0417,2.48753 -3.375,3.375 1.3338,0.88779 2.4874,2.04105 3.375,3.375 z m -513,-5.375 79,0 c 4.4665,0 8,-3.53341 8,-8 l 0,-79 c 0,-4.46659 -3.5335,-8 -8,-8 l -79,0 c -4.4666,0 -8,3.53341 -8,8 l 0,79 c 0,4.46659 3.5334,8 8,8 z m 99,0 79,0 c 4.4665,0 8,-3.53341 8,-8 l 0,-79 c 0,-4.46659 -3.5335,-8 -8,-8 l -79,0 c -4.4666,0 -8,3.53341 -8,8 l 0,79 c 0,4.46659 3.5334,8 8,8 z m 99,0 79,0 c 4.4665,0 8,-3.53341 8,-8 l 0,-79 c 0,-4.46659 -3.5335,-8 -8,-8 l -79,0 c -4.4666,0 -8,3.53341 -8,8 l 0,79 c 0,4.46659 3.5334,8 8,8 z m 127,0 79,0 c 4.4665,0 8,-3.53341 8,-8 l 0,-79 c 0,-4.46659 -3.5335,-8 -8,-8 l -79,0 c -4.4666,0 -8,3.53341 -8,8 l 0,79 c 0,4.46659 3.5334,8 8,8 z m 99,0 79,0 c 4.4665,0 8,-3.53341 8,-8 l 0,-79 c 0,-4.46659 -3.5335,-8 -8,-8 l -79,0 c -4.4666,0 -8,3.53341 -8,8 l 0,79 c 0,4.46659 3.5334,8 8,8 z m 99,0 79,0 c 4.4665,0 8,-3.53341 8,-8 l 0,-79 c 0,-4.46659 -3.5335,-8 -8,-8 l -79,0 c -4.4666,0 -8,3.53341 -8,8 l 0,79 c 0,4.46659 3.5334,8 8,8 z m -497.1,-19.725 0,-5.95 5.95,0 0,5.95 -5.95,0 z m 7.075,0 0,-5.95 5.95,0 0,5.95 -5.95,0 z m 7.1,0 0,-5.95 5.95,0 0,5.95 -5.95,0 z m 7.075,0 0,-5.95 5.95,0 0,5.95 -5.95,0 z m 77.75,0 0,-5.95 5.95,0 0,5.95 -5.95,0 z m 7.075,0 0,-5.95 5.95,0 0,5.95 -5.95,0 z m 7.1,0 0,-5.95 5.95,0 0,5.95 -5.95,0 z m 7.075,0 0,-5.95 5.95,0 0,5.95 -5.95,0 z m 204.75,0 0,-5.95 5.95,0 0,5.95 -5.95,0 z m 7.075,0 0,-5.95 5.95,0 0,5.95 -5.95,0 z m 7.1,0 0,-5.95 5.95,0 0,5.95 -5.95,0 z m 7.075,0 0,-5.95 5.95,0 0,5.95 -5.95,0 z m 77.75,0 0,-5.95 5.95,0 0,5.95 -5.95,0 z m 7.075,0 0,-5.95 5.95,0 0,5.95 -5.95,0 z m 7.1,0 0,-5.95 5.95,0 0,5.95 -5.95,0 z m 7.075,0 0,-5.95 5.95,0 0,5.95 -5.95,0 z m 77.75,0 0,-5.95 5.95,0 0,5.95 -5.95,0 z m 7.075,0 0,-5.95 5.95,0 0,5.95 -5.95,0 z m 7.1,0 0,-5.95 5.95,0 0,5.95 -5.95,0 z m 7.075,0 0,-5.95 5.95,0 0,5.95 -5.95,0 z m -565.525,-7.1 0,-5.95 5.95,0 0,5.95 -5.95,0 z m 7.1,0 0,-5.95 5.95,0 0,5.95 -5.95,0 z m 7.075,0 0,-5.95 5.95,0 0,5.95 -5.95,0 z m 7.1,0 0,-5.95 5.95,0 0,5.95 -5.95,0 z m 7.075,0 0,-5.95 5.95,0 0,5.95 -5.95,0 z m 7.1,0 0,-5.95 5.95,0 0,5.95 -5.95,0 z m 7.075,0 0,-5.95 5.95,0 0,5.95 -5.95,0 z m 7.1,0 0,-5.95 5.95,0 0,5.95 -5.95,0 z m 7.075,0 0,-5.95 5.95,0 0,5.95 -5.95,0 z m 7.1,0 0,-5.95 5.925,0 0,5.95 -5.925,0 z m 35.2,0 0,-5.95 5.95,0 0,5.95 -5.95,0 z m 7.1,0 0,-5.95 5.95,0 0,5.95 -5.95,0 z m 7.075,0 0,-5.95 5.95,0 0,5.95 -5.95,0 z m 7.1,0 0,-5.95 5.95,0 0,5.95 -5.95,0 z m 7.075,0 0,-5.95 5.95,0 0,5.95 -5.95,0 z m 7.1,0 0,-5.95 5.95,0 0,5.95 -5.95,0 z m 7.075,0 0,-5.95 5.95,0 0,5.95 -5.95,0 z m 7.1,0 0,-5.95 5.95,0 0,5.95 -5.95,0 z m 7.075,0 0,-5.95 5.95,0 0,5.95 -5.95,0 z m 7.1,0 0,-5.95 5.925,0 0,5.95 -5.925,0 z m 162.2,0 0,-5.95 5.95,0 0,5.95 -5.95,0 z m 7.1,0 0,-5.95 5.95,0 0,5.95 -5.95,0 z m 7.075,0 0,-5.95 5.95,0 0,5.95 -5.95,0 z m 7.1,0 0,-5.95 5.95,0 0,5.95 -5.95,0 z m 7.075,0 0,-5.95 5.95,0 0,5.95 -5.95,0 z m 7.1,0 0,-5.95 5.95,0 0,5.95 -5.95,0 z m 7.075,0 0,-5.95 5.95,0 0,5.95 -5.95,0 z m 7.1,0 0,-5.95 5.95,0 0,5.95 -5.95,0 z m 7.075,0 0,-5.95 5.95,0 0,5.95 -5.95,0 z m 7.1,0 0,-5.95 5.925,0 0,5.95 -5.925,0 z m 35.2,0 0,-5.95 5.95,0 0,5.95 -5.95,0 z m 7.1,0 0,-5.95 5.95,0 0,5.95 -5.95,0 z m 7.075,0 0,-5.95 5.95,0 0,5.95 -5.95,0 z m 7.1,0 0,-5.95 5.95,0 0,5.95 -5.95,0 z m 7.075,0 0,-5.95 5.95,0 0,5.95 -5.95,0 z m 7.1,0 0,-5.95 5.95,0 0,5.95 -5.95,0 z m 7.075,0 0,-5.95 5.95,0 0,5.95 -5.95,0 z m 7.1,0 0,-5.95 5.95,0 0,5.95 -5.95,0 z m 7.075,0 0,-5.95 5.95,0 0,5.95 -5.95,0 z m 7.1,0 0,-5.95 5.925,0 0,5.95 -5.925,0 z m 35.2,0 0,-5.95 5.95,0 0,5.95 -5.95,0 z m 7.1,0 0,-5.95 5.95,0 0,5.95 -5.95,0 z m 7.075,0 0,-5.95 5.95,0 0,5.95 -5.95,0 z m 7.1,0 0,-5.95 5.95,0 0,5.95 -5.95,0 z m 7.075,0 0,-5.95 5.95,0 0,5.95 -5.95,0 z m 7.1,0 0,-5.95 5.95,0 0,5.95 -5.95,0 z m 7.075,0 0,-5.95 5.95,0 0,5.95 -5.95,0 z m 7.1,0 0,-5.95 5.95,0 0,5.95 -5.95,0 z m 7.075,0 0,-5.95 5.95,0 0,5.95 -5.95,0 z m 7.1,0 0,-5.95 5.925,0 0,5.95 -5.925,0 z m -593.875,-7.075 0,-5.95 5.95,0 0,5.95 -5.95,0 z m 7.075,0 0,-5.95 5.95,0 0,5.95 -5.95,0 z m 7.1,0 0,-5.95 5.95,0 0,5.95 -5.95,0 z m 7.075,0 0,-5.95 5.95,0 0,5.95 -5.95,0 z m 7.1,0 0,-5.95 5.95,0 0,5.95 -5.95,0 z m 7.075,0 0,-5.95 5.95,0 0,5.95 -5.95,0 z m 7.1,0 0,-5.95 5.95,0 0,5.95 -5.95,0 z m 7.075,0 0,-5.95 5.95,0 0,5.95 -5.95,0 z m 7.1,0 0,-5.95 5.95,0 0,5.95 -5.95,0 z m 7.075,0 0,-5.95 5.95,0 0,5.95 -5.95,0 z m 7.1,0 0,-5.95 5.925,0 0,5.95 -5.925,0 z m 7.075,0 0,-5.95 5.95,0 0,5.95 -5.95,0 z m 21.05,0 0,-5.95 5.95,0 0,5.95 -5.95,0 z m 7.075,0 0,-5.95 5.95,0 0,5.95 -5.95,0 z m 7.1,0 0,-5.95 5.95,0 0,5.95 -5.95,0 z m 7.075,0 0,-5.95 5.95,0 0,5.95 -5.95,0 z m 7.1,0 0,-5.95 5.95,0 0,5.95 -5.95,0 z m 7.075,0 0,-5.95 5.95,0 0,5.95 -5.95,0 z m 7.1,0 0,-5.95 5.95,0 0,5.95 -5.95,0 z m 7.075,0 0,-5.95 5.95,0 0,5.95 -5.95,0 z m 7.1,0 0,-5.95 5.95,0 0,5.95 -5.95,0 z m 7.075,0 0,-5.95 5.95,0 0,5.95 -5.95,0 z m 7.1,0 0,-5.95 5.925,0 0,5.95 -5.925,0 z m 7.075,0 0,-5.95 5.95,0 0,5.95 -5.95,0 z m 148.05,0 0,-5.95 5.95,0 0,5.95 -5.95,0 z m 7.075,0 0,-5.95 5.95,0 0,5.95 -5.95,0 z m 7.1,0 0,-5.95 5.95,0 0,5.95 -5.95,0 z m 7.075,0 0,-5.95 5.95,0 0,5.95 -5.95,0 z m 7.1,0 0,-5.95 5.95,0 0,5.95 -5.95,0 z m 7.075,0 0,-5.95 5.95,0 0,5.95 -5.95,0 z m 7.1,0 0,-5.95 5.95,0 0,5.95 -5.95,0 z m 7.075,0 0,-5.95 5.95,0 0,5.95 -5.95,0 z m 7.1,0 0,-5.95 5.95,0 0,5.95 -5.95,0 z m 7.075,0 0,-5.95 5.95,0 0,5.95 -5.95,0 z m 7.1,0 0,-5.95 5.925,0 0,5.95 -5.925,0 z m 7.075,0 0,-5.95 5.95,0 0,5.95 -5.95,0 z m 21.05,0 0,-5.95 5.95,0 0,5.95 -5.95,0 z m 7.075,0 0,-5.95 5.95,0 0,5.95 -5.95,0 z m 7.1,0 0,-5.95 5.95,0 0,5.95 -5.95,0 z m 7.075,0 0,-5.95 5.95,0 0,5.95 -5.95,0 z m 7.1,0 0,-5.95 5.95,0 0,5.95 -5.95,0 z m 7.075,0 0,-5.95 5.95,0 0,5.95 -5.95,0 z m 7.1,0 0,-5.95 5.95,0 0,5.95 -5.95,0 z m 7.075,0 0,-5.95 5.95,0 0,5.95 -5.95,0 z m 7.1,0 0,-5.95 5.95,0 0,5.95 -5.95,0 z m 7.075,0 0,-5.95 5.95,0 0,5.95 -5.95,0 z m 7.1,0 0,-5.95 5.925,0 0,5.95 -5.925,0 z m 7.075,0 0,-5.95 5.95,0 0,5.95 -5.95,0 z m 21.05,0 0,-5.95 5.95,0 0,5.95 -5.95,0 z m 7.075,0 0,-5.95 5.95,0 0,5.95 -5.95,0 z m 7.1,0 0,-5.95 5.95,0 0,5.95 -5.95,0 z m 7.075,0 0,-5.95 5.95,0 0,5.95 -5.95,0 z m 7.1,0 0,-5.95 5.95,0 0,5.95 -5.95,0 z m 7.075,0 0,-5.95 5.95,0 0,5.95 -5.95,0 z m 7.1,0 0,-5.95 5.95,0 0,5.95 -5.95,0 z m 7.075,0 0,-5.95 5.95,0 0,5.95 -5.95,0 z m 7.1,0 0,-5.95 5.95,0 0,5.95 -5.95,0 z m 7.075,0 0,-5.95 5.95,0 0,5.95 -5.95,0 z m 7.1,0 0,-5.95 5.925,0 0,5.95 -5.925,0 z m 7.075,0 0,-5.95 5.95,0 0,5.95 -5.95,0 z m -600.95,-7.1 0,-5.925 5.95,0 0,5.925 -5.95,0 z m 7.075,0 0,-5.925 5.95,0 0,5.925 -5.95,0 z m 7.1,0 0,-5.925 5.95,0 0,5.925 -5.95,0 z m 21.25,0 0,-5.925 5.95,0 0,5.925 -5.95,0 z m 7.1,0 0,-5.925 5.95,0 0,5.925 -5.95,0 z m 21.25,0 0,-5.925 5.95,0 0,5.925 -5.95,0 z m 7.1,0 0,-5.925 5.925,0 0,5.925 -5.925,0 z m 7.075,0 0,-5.925 5.95,0 0,5.925 -5.95,0 z m 21.05,0 0,-5.925 5.95,0 0,5.925 -5.95,0 z m 7.075,0 0,-5.925 5.95,0 0,5.925 -5.95,0 z m 7.1,0 0,-5.925 5.95,0 0,5.925 -5.95,0 z m 21.25,0 0,-5.925 5.95,0 0,5.925 -5.95,0 z m 7.1,0 0,-5.925 5.95,0 0,5.925 -5.95,0 z m 21.25,0 0,-5.925 5.95,0 0,5.925 -5.95,0 z m 7.1,0 0,-5.925 5.925,0 0,5.925 -5.925,0 z m 7.075,0 0,-5.925 5.95,0 0,5.925 -5.95,0 z m 148.05,0 0,-5.925 5.95,0 0,5.925 -5.95,0 z m 7.075,0 0,-5.925 5.95,0 0,5.925 -5.95,0 z m 7.1,0 0,-5.925 5.95,0 0,5.925 -5.95,0 z m 21.25,0 0,-5.925 5.95,0 0,5.925 -5.95,0 z m 7.1,0 0,-5.925 5.95,0 0,5.925 -5.95,0 z m 21.25,0 0,-5.925 5.95,0 0,5.925 -5.95,0 z m 7.1,0 0,-5.925 5.925,0 0,5.925 -5.925,0 z m 7.075,0 0,-5.925 5.95,0 0,5.925 -5.95,0 z m 21.05,0 0,-5.925 5.95,0 0,5.925 -5.95,0 z m 7.075,0 0,-5.925 5.95,0 0,5.925 -5.95,0 z m 7.1,0 0,-5.925 5.95,0 0,5.925 -5.95,0 z m 21.25,0 0,-5.925 5.95,0 0,5.925 -5.95,0 z m 7.1,0 0,-5.925 5.95,0 0,5.925 -5.95,0 z m 21.25,0 0,-5.925 5.95,0 0,5.925 -5.95,0 z m 7.1,0 0,-5.925 5.925,0 0,5.925 -5.925,0 z m 7.075,0 0,-5.925 5.95,0 0,5.925 -5.95,0 z m 21.05,0 0,-5.925 5.95,0 0,5.925 -5.95,0 z m 7.075,0 0,-5.925 5.95,0 0,5.925 -5.95,0 z m 7.1,0 0,-5.925 5.95,0 0,5.925 -5.95,0 z m 21.25,0 0,-5.925 5.95,0 0,5.925 -5.95,0 z m 7.1,0 0,-5.925 5.95,0 0,5.925 -5.95,0 z m 21.25,0 0,-5.925 5.95,0 0,5.925 -5.95,0 z m 7.1,0 0,-5.925 5.925,0 0,5.925 -5.925,0 z m 7.075,0 0,-5.925 5.95,0 0,5.925 -5.95,0 z m -600.95,-7.075 0,-5.95 5.95,0 0,5.95 -5.95,0 z m 7.075,0 0,-5.95 5.95,0 0,5.95 -5.95,0 z m 7.1,0 0,-5.95 5.95,0 0,5.95 -5.95,0 z m 7.075,0 0,-5.95 5.95,0 0,5.95 -5.95,0 z m 7.1,0 0,-5.95 5.95,0 0,5.95 -5.95,0 z m 7.075,0 0,-5.95 5.95,0 0,5.95 -5.95,0 z m 7.1,0 0,-5.95 5.95,0 0,5.95 -5.95,0 z m 7.075,0 0,-5.95 5.95,0 0,5.95 -5.95,0 z m 7.1,0 0,-5.95 5.95,0 0,5.95 -5.95,0 z m 7.075,0 0,-5.95 5.95,0 0,5.95 -5.95,0 z m 7.1,0 0,-5.95 5.925,0 0,5.95 -5.925,0 z m 7.075,0 0,-5.95 5.95,0 0,5.95 -5.95,0 z m 21.05,0 0,-5.95 5.95,0 0,5.95 -5.95,0 z m 7.075,0 0,-5.95 5.95,0 0,5.95 -5.95,0 z m 7.1,0 0,-5.95 5.95,0 0,5.95 -5.95,0 z m 7.075,0 0,-5.95 5.95,0 0,5.95 -5.95,0 z m 7.1,0 0,-5.95 5.95,0 0,5.95 -5.95,0 z m 7.075,0 0,-5.95 5.95,0 0,5.95 -5.95,0 z m 7.1,0 0,-5.95 5.95,0 0,5.95 -5.95,0 z m 7.075,0 0,-5.95 5.95,0 0,5.95 -5.95,0 z m 7.1,0 0,-5.95 5.95,0 0,5.95 -5.95,0 z m 7.075,0 0,-5.95 5.95,0 0,5.95 -5.95,0 z m 7.1,0 0,-5.95 5.925,0 0,5.95 -5.925,0 z m 7.075,0 0,-5.95 5.95,0 0,5.95 -5.95,0 z m 148.05,0 0,-5.95 5.95,0 0,5.95 -5.95,0 z m 7.075,0 0,-5.95 5.95,0 0,5.95 -5.95,0 z m 7.1,0 0,-5.95 5.95,0 0,5.95 -5.95,0 z m 7.075,0 0,-5.95 5.95,0 0,5.95 -5.95,0 z m 7.1,0 0,-5.95 5.95,0 0,5.95 -5.95,0 z m 7.075,0 0,-5.95 5.95,0 0,5.95 -5.95,0 z m 7.1,0 0,-5.95 5.95,0 0,5.95 -5.95,0 z m 7.075,0 0,-5.95 5.95,0 0,5.95 -5.95,0 z m 7.1,0 0,-5.95 5.95,0 0,5.95 -5.95,0 z m 7.075,0 0,-5.95 5.95,0 0,5.95 -5.95,0 z m 7.1,0 0,-5.95 5.925,0 0,5.95 -5.925,0 z m 7.075,0 0,-5.95 5.95,0 0,5.95 -5.95,0 z m 21.05,0 0,-5.95 5.95,0 0,5.95 -5.95,0 z m 7.075,0 0,-5.95 5.95,0 0,5.95 -5.95,0 z m 7.1,0 0,-5.95 5.95,0 0,5.95 -5.95,0 z m 7.075,0 0,-5.95 5.95,0 0,5.95 -5.95,0 z m 7.1,0 0,-5.95 5.95,0 0,5.95 -5.95,0 z m 7.075,0 0,-5.95 5.95,0 0,5.95 -5.95,0 z m 7.1,0 0,-5.95 5.95,0 0,5.95 -5.95,0 z m 7.075,0 0,-5.95 5.95,0 0,5.95 -5.95,0 z m 7.1,0 0,-5.95 5.95,0 0,5.95 -5.95,0 z m 7.075,0 0,-5.95 5.95,0 0,5.95 -5.95,0 z m 7.1,0 0,-5.95 5.925,0 0,5.95 -5.925,0 z m 7.075,0 0,-5.95 5.95,0 0,5.95 -5.95,0 z m 21.05,0 0,-5.95 5.95,0 0,5.95 -5.95,0 z m 7.075,0 0,-5.95 5.95,0 0,5.95 -5.95,0 z m 7.1,0 0,-5.95 5.95,0 0,5.95 -5.95,0 z m 7.075,0 0,-5.95 5.95,0 0,5.95 -5.95,0 z m 7.1,0 0,-5.95 5.95,0 0,5.95 -5.95,0 z m 7.075,0 0,-5.95 5.95,0 0,5.95 -5.95,0 z m 7.1,0 0,-5.95 5.95,0 0,5.95 -5.95,0 z m 7.075,0 0,-5.95 5.95,0 0,5.95 -5.95,0 z m 7.1,0 0,-5.95 5.95,0 0,5.95 -5.95,0 z m 7.075,0 0,-5.95 5.95,0 0,5.95 -5.95,0 z m 7.1,0 0,-5.95 5.925,0 0,5.95 -5.925,0 z m 7.075,0 0,-5.95 5.95,0 0,5.95 -5.95,0 z m -579.7,-7.075 0,-5.95 5.95,0 0,5.95 -5.95,0 z m 7.1,0 0,-5.95 5.95,0 0,5.95 -5.95,0 z m 21.25,0 0,-5.95 5.95,0 0,5.95 -5.95,0 z m 7.1,0 0,-5.95 5.95,0 0,5.95 -5.95,0 z m 63.55,0 0,-5.95 5.95,0 0,5.95 -5.95,0 z m 7.1,0 0,-5.95 5.95,0 0,5.95 -5.95,0 z m 21.25,0 0,-5.95 5.95,0 0,5.95 -5.95,0 z m 7.1,0 0,-5.95 5.95,0 0,5.95 -5.95,0 z m 190.55,0 0,-5.95 5.95,0 0,5.95 -5.95,0 z m 7.1,0 0,-5.95 5.95,0 0,5.95 -5.95,0 z m 21.25,0 0,-5.95 5.95,0 0,5.95 -5.95,0 z m 7.1,0 0,-5.95 5.95,0 0,5.95 -5.95,0 z m 63.55,0 0,-5.95 5.95,0 0,5.95 -5.95,0 z m 7.1,0 0,-5.95 5.95,0 0,5.95 -5.95,0 z m 21.25,0 0,-5.95 5.95,0 0,5.95 -5.95,0 z m 7.1,0 0,-5.95 5.95,0 0,5.95 -5.95,0 z m 63.55,0 0,-5.95 5.95,0 0,5.95 -5.95,0 z m 7.1,0 0,-5.95 5.95,0 0,5.95 -5.95,0 z m 21.25,0 0,-5.95 5.95,0 0,5.95 -5.95,0 z m 7.1,0 0,-5.95 5.95,0 0,5.95 -5.95,0 z m -565.525,-7.1 0,-5.95 5.95,0 0,5.95 -5.95,0 z m 7.075,0 0,-5.95 5.95,0 0,5.95 -5.95,0 z m 14.175,0 0,-5.95 5.95,0 0,5.95 -5.95,0 z m 7.1,0 0,-5.95 5.95,0 0,5.95 -5.95,0 z m 14.175,0 0,-5.95 5.95,0 0,5.95 -5.95,0 z m 7.075,0 0,-5.95 5.95,0 0,5.95 -5.95,0 z m 49.4,0 0,-5.95 5.95,0 0,5.95 -5.95,0 z m 7.075,0 0,-5.95 5.95,0 0,5.95 -5.95,0 z m 14.175,0 0,-5.95 5.95,0 0,5.95 -5.95,0 z m 7.1,0 0,-5.95 5.95,0 0,5.95 -5.95,0 z m 14.175,0 0,-5.95 5.95,0 0,5.95 -5.95,0 z m 7.075,0 0,-5.95 5.95,0 0,5.95 -5.95,0 z m 176.4,0 0,-5.95 5.95,0 0,5.95 -5.95,0 z m 7.075,0 0,-5.95 5.95,0 0,5.95 -5.95,0 z m 14.175,0 0,-5.95 5.95,0 0,5.95 -5.95,0 z m 7.1,0 0,-5.95 5.95,0 0,5.95 -5.95,0 z m 14.175,0 0,-5.95 5.95,0 0,5.95 -5.95,0 z m 7.075,0 0,-5.95 5.95,0 0,5.95 -5.95,0 z m 49.4,0 0,-5.95 5.95,0 0,5.95 -5.95,0 z m 7.075,0 0,-5.95 5.95,0 0,5.95 -5.95,0 z m 14.175,0 0,-5.95 5.95,0 0,5.95 -5.95,0 z m 7.1,0 0,-5.95 5.95,0 0,5.95 -5.95,0 z m 14.175,0 0,-5.95 5.95,0 0,5.95 -5.95,0 z m 7.075,0 0,-5.95 5.95,0 0,5.95 -5.95,0 z m 49.4,0 0,-5.95 5.95,0 0,5.95 -5.95,0 z m 7.075,0 0,-5.95 5.95,0 0,5.95 -5.95,0 z m 14.175,0 0,-5.95 5.95,0 0,5.95 -5.95,0 z m 7.1,0 0,-5.95 5.95,0 0,5.95 -5.95,0 z m 14.175,0 0,-5.95 5.95,0 0,5.95 -5.95,0 z m 7.075,0 0,-5.95 5.95,0 0,5.95 -5.95,0 z m -586.775,-7.075 0,-5.95 5.95,0 0,5.95 -5.95,0 z m 7.075,0 0,-5.95 5.95,0 0,5.95 -5.95,0 z m 63.8,0 0,-5.95 5.925,0 0,5.95 -5.925,0 z m 7.075,0 0,-5.95 5.95,0 0,5.95 -5.95,0 z m 21.05,0 0,-5.95 5.95,0 0,5.95 -5.95,0 z m 7.075,0 0,-5.95 5.95,0 0,5.95 -5.95,0 z m 63.8,0 0,-5.95 5.925,0 0,5.95 -5.925,0 z m 7.075,0 0,-5.95 5.95,0 0,5.95 -5.95,0 z m 148.05,0 0,-5.95 5.95,0 0,5.95 -5.95,0 z m 7.075,0 0,-5.95 5.95,0 0,5.95 -5.95,0 z m 63.8,0 0,-5.95 5.925,0 0,5.95 -5.925,0 z m 7.075,0 0,-5.95 5.95,0 0,5.95 -5.95,0 z m 21.05,0 0,-5.95 5.95,0 0,5.95 -5.95,0 z m 7.075,0 0,-5.95 5.95,0 0,5.95 -5.95,0 z m 63.8,0 0,-5.95 5.925,0 0,5.95 -5.925,0 z m 7.075,0 0,-5.95 5.95,0 0,5.95 -5.95,0 z m 21.05,0 0,-5.95 5.95,0 0,5.95 -5.95,0 z m 7.075,0 0,-5.95 5.95,0 0,5.95 -5.95,0 z m 63.8,0 0,-5.95 5.925,0 0,5.95 -5.925,0 z m 7.075,0 0,-5.95 5.95,0 0,5.95 -5.95,0 z"
   style="font-size:medium;font-style:normal;font-variant:normal;font-weight:normal;font-stretch:normal;text-indent:0;text-align:start;text-decoration:none;line-height:normal;letter-spacing:normal;word-spacing:normal;text-transform:none;direction:ltr;block-progression:tb;writing-mode:lr-tb;text-anchor:start;baseline-shift:baseline;color:#000000;fill:#ffdf00;fill-opacity:1;stroke:none;stroke-width:4;marker:none;visibility:visible;display:inline;overflow:visible;enable-background:accumulate;font-family:Sans;-inkscape-font-specification:Sans"
   inkscape:connector-curvature="0" /></g></svg>