<?xml version="1.0" encoding="utf-8"?>
<!-- Generator: Adobe Illustrator 14.0.0, SVG Export Plug-In  -->
<!DOCTYPE svg PUBLIC "-//W3C//DTD SVG 1.1//EN" "http://www.w3.org/Graphics/SVG/1.1/DTD/svg11.dtd" [
	<!ENTITY ns_flows "http://ns.adobe.com/Flows/1.0/">
]>
<svg version="1.1"
	 xmlns="http://www.w3.org/2000/svg" xmlns:xlink="http://www.w3.org/1999/xlink" xmlns:a="http://ns.adobe.com/AdobeSVGViewerExtensions/3.0/"
	 x="0px" y="0px" width="595px" height="595px" viewBox="-18.322 -14.653 595 595" enable-background="new -18.322 -14.653 595 595"
	 xml:space="preserve">
<defs>
</defs>
<circle fill="none" stroke="#C6C7C8" stroke-width="7.9608" cx="278.527" cy="262.347" r="180.001"/>
<line fill="none" stroke="#C6C7C8" stroke-width="7.9608" x1="278.526" y1="82.347" x2="278.526" y2="442.349"/>
<line fill="none" stroke="#C6C7C8" stroke-width="7.9608" x1="98.526" y1="262.347" x2="458.528" y2="262.347"/>
<path fill="none" stroke="#C6C7C8" stroke-width="8.3444" d="M337.927,262.657c0,94.038-26.568,170.132-59.401,170.132"/>
<path fill="none" stroke="#C6C7C8" stroke-width="8.5039" d="M392.593,262.13c0,96.46-51.018,174.515-114.067,174.515"/>
<path fill="none" stroke="#C6C7C8" stroke-width="8.5039" d="M430.593,262.13c0,99.613-68.014,180.219-152.067,180.219"/>
<path fill="none" stroke="#C6C7C8" stroke-width="8.3444" d="M278.527,306.457c69.932,0,121.175,8.569,165.624,26.486"/>
<path fill="none" stroke="#C6C7C8" stroke-width="8.3444" d="M278.526,353.69c57.196,0,99.106,8.798,135.458,27.19"/>
<path fill="none" stroke="#C6C7C8" stroke-width="8.3444" d="M219.127,262.657c0,94.038,26.567,170.132,59.4,170.132"/>
<path fill="none" stroke="#C6C7C8" stroke-width="8.5039" d="M164.46,262.13c0,96.46,51.018,174.515,114.066,174.515"/>
<path fill="none" stroke="#C6C7C8" stroke-width="8.5039" d="M126.46,262.13c0,99.613,68.014,180.219,152.066,180.219"/>
<path fill="none" stroke="#C6C7C8" stroke-width="8.3444" d="M278.526,306.457c-69.932,0-121.175,8.569-165.623,26.486"/>
<path fill="none" stroke="#C6C7C8" stroke-width="8.3444" d="M278.527,353.69c-57.195,0-99.105,8.798-135.458,27.19"/>
<path fill="none" stroke="#C6C7C8" stroke-width="8.3444" d="M337.927,263.107c0-94.038-26.567-170.132-59.4-170.132"/>
<path fill="none" stroke="#C6C7C8" stroke-width="8.5039" d="M392.593,262.566c0-96.46-51.018-174.515-114.066-174.515"/>
<path fill="none" stroke="#C6C7C8" stroke-width="8.5039" d="M430.593,262.566c0-99.613-68.014-180.219-152.066-180.219"/>
<path fill="none" stroke="#C6C7C8" stroke-width="8.3444" d="M278.527,218.24c69.933,0,121.176-8.569,165.624-26.486"/>
<path fill="none" stroke="#C6C7C8" stroke-width="8.3444" d="M278.526,171.006c57.195,0,99.105-8.798,135.458-27.19"/>
<path fill="none" stroke="#C6C7C8" stroke-width="8.3444" d="M219.127,263.107c0-94.038,26.567-170.132,59.4-170.132"/>
<path fill="none" stroke="#C6C7C8" stroke-width="8.5039" d="M164.461,262.566c0-96.46,51.018-174.515,114.066-174.515"/>
<path fill="none" stroke="#C6C7C8" stroke-width="8.5039" d="M126.461,262.566c0-99.613,68.014-180.219,152.066-180.219"/>
<path fill="none" stroke="#C6C7C8" stroke-width="8.3444" d="M278.526,218.24c-69.932,0-121.175-8.569-165.623-26.486"/>
<path fill="none" stroke="#C6C7C8" stroke-width="8.3444" d="M278.527,171.006c-57.195,0-99.105-8.798-135.458-27.19"/>
<path id="path17_1_" fill="#FFFFFF" d="M282.37,337.328c0,0,43.441-35.84,43.441-70.601c0-34.765-15.969-60.564-15.969-60.564
	l-18.559-10.753h-23.763c0,0-5.66,3.494-23.016,13.618c-5.854,21.235-25.623,50.532-14.854,80.992
	C240.417,320.482,282.37,337.328,282.37,337.328L282.37,337.328z"/>
<path id="path19_1_" d="M272.421,193.261c-4.646,1.058-8.574,3.785-12.35,6.471c0.316,0.153,0.66,0.303,0.986,0.453
	c7.658-3.856,16.699-5.881,25.272-4.163c5.102,1.066,9.736,3.475,14.684,5.015c-0.405-0.478-0.808-0.92-1.19-1.405
	c-3.601-2.992-7.985-4.936-12.455-6.37H272.421L272.421,193.261z M274.966,201.84c-2.002,0.034-3.988,0.269-5.918,0.904
	c-4.497,1.222-8.584,3.37-12.661,5.518c-0.718-0.927-1.479-1.79-2.126-2.761c0.549-0.527,1.121-1.058,1.713-1.554
	c-1.133-0.142-2.643-0.048-3.527,0.553c-0.155,0.104-0.306,0.26-0.418,0.399c-0.049,0.068-0.117,0.18-0.154,0.251
	c-0.055,0.115-0.127,0.272-0.156,0.404c-0.063,0.31-0.057,0.679,0.053,1.102c4.336,4.113,10.195,6.351,15.619,8.827
	c3.09,1.525,6.365,2.672,9.34,4.416c-4.576,3.012-6.119,8.364-8.615,12.845c-1.961,4.782-4.955,9.157-6.227,14.193
	c3.071-2.634,4.818-6.307,7.422-9.329c0.906-1.482,2.443-2.361,3.993-3.108c1.315,1.304,2.616,2.579,3.79,4.013
	c-0.916,9.978-5.434,19.176-6.955,29.042c-0.572,6.952-0.73,13.911-1.09,20.869c-0.777,4.41,0.121,8.939-0.725,13.346
	c-0.189,7.92,0.023,15.854-0.104,23.775c0.195,0.287,0.584,0.867,0.777,1.154c-0.213,0.102-0.617,0.303-0.83,0.398
	c-5.984-7.062-10.551-15.125-15.048-23.125c-6.946-11.547-11.235-24.518-13.438-37.668c-0.414-4.808-1.277-9.635-0.467-14.45
	c0.268-5.728,0.825-11.552,2.957-16.956c1.285-3.604,3.169-7.149,3.737-10.934c-1.667-2.773-2.171-6.157-1.143-9.232
	c0.943-2.75,2.126-5.407,3.011-8.179c-5.379,3.419-11.271,6-16.502,9.636c-2.254,1.482-3.748,3.755-5.556,5.667
	c-3.173,2.906-7.379,4.312-11.309,5.97c-6.755,2.968-14.201,3.885-21.382,5.417c-8.486,1.674-17.128,2.424-25.531,4.517
	c-2.724,0.71-5.432,2.463-6.328,5.167c-1.383,3.595-1.674,7.48-2.854,11.134c-2.786,9.324-4.95,18.818-6.849,28.344
	c-0.567,2.886-2.191,5.663-1.662,8.681c0.414,1.33,1.354,2.389,2.23,3.463c-0.228,0.711-0.411,1.436-0.619,2.152
	c-1.535,1.059-3.531,1.588-4.776,2.963c-0.088,0.16-0.163,0.35-0.208,0.498c-0.016,0.059-0.041,0.15-0.053,0.201
	c-0.004,0.041,0.004,0.113,0,0.15c0,0.055-0.004,0.15,0,0.201c0.004,0.039-0.004,0.113,0,0.15c0.008,0.027,0.049,0.074,0.053,0.102
	c0.011,0.037,0.041,0.115,0.052,0.148c0.403,1.07,1.872,1.82,2.906,2.26c-0.044,2.365-2.386,3.879-2.595,6.219
	c-0.887,6.742-2.497,13.354-3.838,20.018c-1.564,8.215-2.981,16.463-3.788,24.781c-0.598,10.889-3.195,21.559-3.636,32.455
	c-0.022,3.428-0.901,6.875-0.154,10.281c0.546,3.703,2.688,6.887,4.619,10.037c3.238,5.045,7.109,9.678,10.896,14.344
	c2.564,2.777,4.691,5.998,7.783,8.281c4.344,3.455,8.387,7.277,13.023,10.379c2.798,1.846,5.66,3.686,8.097,5.973
	c1.067,1.535,0.597,3.576,1.038,5.32c-3.422,26.484-6.934,52.969-10.326,79.459c-0.201,1.424,12.115,10.342,72.344,23.697
	c48.529,3.707,54.932-0.383,132.887-15.07c-1.945-26.611-3.723-53.201-5.606-79.811c-0.528-2.68,0.143-5.479-0.828-8.078
	c8.658-5.561,17.852-10.254,26.458-15.9c3.401-2.154,6.748-4.412,10.178-6.523c5.102-2.936,9.146-7.211,13.747-10.783
	c0.854-5.039,1.314-10.125,2.287-15.15v-15.203c-0.74-2.523-0.165-5.17-0.733-7.721c-0.505-8.127-1.082-16.305-2.175-24.383
	c-2.046-10.641-1.665-21.518-3.682-32.154c-0.59-3.752-2.736-6.986-3.842-10.584c1.226-0.498,2.437-1.033,3.685-1.506
	c-0.323-0.961-0.514-2.029-1.196-2.811c-0.111-0.125-0.271-0.289-0.416-0.402c-1.213-1.078-2.714-2.326-2.385-4.109
	c0.545-2.734,2.869-4.666,4.303-6.975c-1.516-1.592-3.646-2.34-5.655-3.16c0.038-2.598,0.209-5.205-0.254-7.775
	c-1.315-10.976-3.168-21.897-4.154-32.91c-0.24-5.877-4.102-11.734-9.96-13.645c-13.174-0.455-26.211-3.089-38.974-6.168
	c-8.631-2.174-17.733-4.878-23.821-11.588c-3.483-4.517-8.621-7.334-13.075-10.834c-4.984-3.561-9.774-7.924-16.037-9.183
	c1.952,4.166,6.943,6.123,8.671,10.386c0.423,2.462-1.37,4.756-0.83,7.274c-0.301,3.074,3.831,3.561,4.361,6.269
	c1.772,5.579,0.764,11.477,1.033,17.208c-0.884,15.802-3.251,31.55-7.264,46.904c-2.623,9.156-5.553,18.391-10.738,26.535
	c-1.697,2.75-3.944,5.143-6.494,7.176c-0.064-7.201,0.085-14.377-0.052-21.572c-0.896-5.174,0.068-10.477-0.827-15.65
	c0.03-7.459-1.666-14.793-2.907-22.125c-0.889-5.536-2.495-10.885-3.736-16.352c-0.738-3.025-1.712-6.056-1.813-9.183
	c0.067-1.767,1.873-2.738,3.112-3.762c4.192,3.907,6.593,9.191,10.275,13.493c-1.232-4.961-3.543-9.597-5.656-14.246
	c-2.502-5.349-6.141-10.067-9.752-14.749c3.573-0.979,6.891-2.588,10.274-4.06c4.797-2.672,10.258-4.771,13.747-9.131
	c-0.873-1.564-1.394-3.583-3.219-4.364c0.575,1.469,1.196,2.911,1.814,4.364c-1.095,0.467-2.337,1.544-3.576,0.852
	c-5.464-2.887-11.345-6.083-17.796-5.566C279.827,202.003,277.383,201.799,274.966,201.84L274.966,201.84z"/>
<path id="path21_1_" d="M278.983,133.546h-2.956c-0.092-5.061,0.146-8.851,0.722-11.361c0.624-2.51,2.186-5.955,4.684-10.338
	c2.543-4.421,4.202-7.96,4.973-10.605c0.812-2.693,1.225-6,1.225-9.927c0-6.067-1.247-10.54-3.741-13.416
	c-2.503-2.873-5.459-4.311-8.872-4.311c-2.592,0-4.775,0.66-6.555,1.983c-1.344,1.005-2.018,2.055-2.018,3.15
	c0,0.731,0.457,1.872,1.369,3.422c2.064,3.515,3.098,6.503,3.098,8.965c0,2.239-0.816,4.11-2.449,5.616
	c-1.584,1.505-3.58,2.257-5.982,2.257c-2.689,0-4.945-0.89-6.771-2.667c-1.826-1.827-2.738-4.222-2.738-7.188
	c0-5.383,2.451-10.105,7.348-14.166c4.902-4.063,11.746-6.095,20.541-6.095c9.319,0,16.402,2.122,21.261,6.366
	c4.893,4.2,7.343,9.284,7.343,15.266c0,4.333-1.245,8.349-3.742,12.045c-2.502,3.65-7.33,7.71-14.488,12.183
	c-4.805,3.011-7.971,5.705-9.51,8.076C280.231,125.128,279.32,128.712,278.983,133.546 M278.191,143.539
	c3.22,0,5.958,1.073,8.214,3.218c2.256,2.144,3.386,4.745,3.393,7.803c-0.007,3.057-1.137,5.68-3.393,7.873
	c-2.257,2.144-4.994,3.217-8.214,3.217c-3.218,0-5.955-1.073-8.217-3.217c-2.256-2.193-3.383-4.815-3.383-7.873
	c0-3.058,1.127-5.659,3.383-7.803C272.232,144.612,274.973,143.539,278.191,143.539"/>
<circle fill="none" stroke="#000000" stroke-width="4.2969" cx="278.527" cy="278.527" r="276.378"/>
<path id="path15_1_" d="M411.612,94.038l15.311,15.498c12.535,20.076,30.38,39.09,50.009,53.229l-2.233-5.139
	c-3.952-16.263-10.057-31.969-23.581-44.092C439.599,103.175,425.065,99.752,411.612,94.038L411.612,94.038z M141.071,96.605
	c-18.473,7.206-39.109,14.054-50.254,33.531c-7.833,10.53-8.041,24.223-13.563,35.69c10.23-9.624,21.767-16.998,30.79-28.187
	C118.108,123.589,127.502,108.519,141.071,96.605L141.071,96.605z M461.868,118.428c7.313,4.901,12.765,12.541,15.514,20.313
	c5.489,17.938,8.136,36.899,16.006,53.72l-0.486,0.447c-2.95-4.698-4.464-10.419-9.041-14.56
	c-13.685-17.968-37.518-22.691-46.344-44.014c2.228,12.736,6.136,24.765,15.063,34.632c15.413,16.628,37.795,26.455,48.343,47.233
	l0.16-0.165c-3.938-19.609,2.337-38.536-1.95-57.959C495.391,140.901,479.825,122.105,461.868,118.428L461.868,118.428z
	 M91.264,121.772c-9.415,2.412-17.795,8.098-24.393,16.317c-15.206,15.972-13.624,40.578-11.487,62.12
	c0.443,6.67-0.924,12.904-0.488,19.132c4.468-9.163,12.294-17.268,20.405-24.391c19.667-13.871,40.189-33.284,40.48-57.963
	c-6.364,17.758-25.542,25.235-38.527,37.241c-6.673,6.551-12.027,14.158-15.067,22.187l-0.49-0.367
	c1.599-7.102,4.831-13.506,6.68-20.434C74.171,156.876,72.983,134.35,91.264,121.772L91.264,121.772z M501.779,151.671
	c6.44,8.991,7.565,20.281,7.735,31.896c-2.942,21.446-3.868,44.159-0.815,65.875c0,0.047-0.031,0.121-0.039,0.162
	c-0.012,0.035-0.023,0.095-0.041,0.124c-0.028,0.047-0.085,0.123-0.123,0.164c-0.043,0.038-0.112,0.091-0.163,0.12
	c-0.101,0.054-0.247,0.076-0.369,0.082c-1.759-5.733-1.633-12.369-4.475-17.7c-6.942-21.083-32.358-30.96-42.685-50.093
	c1.45,8.33,4.065,16.232,7.131,23.904c9.662,23.463,33.128,41.192,39.625,66.081c0.74,2.292,0.962,5.077,1.791,7.135
	c1.742-11.925,4.851-23.407,9.288-34.18c11.892-25.425,8.302-60.761-8.029-82.926C507.744,158.722,505.907,154.084,501.779,151.671
	L501.779,151.671z M51.883,155.381c-0.022,0.009-0.058,0.032-0.083,0.042c-0.053,0.025-0.149,0.089-0.203,0.123
	c-0.136,0.092-0.301,0.207-0.446,0.286c-12.749,16.267-21.811,34.091-21.259,55.921c-1.716,26.869,15.494,45.804,17.429,71.135
	c3.992-26.435,25.85-45.352,37.671-68.441c4.138-9.234,7.231-19.3,8.472-29.289c-1.668,4.255-4.496,7.918-7.737,11.543
	c-15.19,13.86-32.616,28.076-35.922,48.132c-0.554,2.853-0.718,5.835-1.548,8.608c-0.009,0.004-0.029-0.006-0.041,0
	c-0.019,0.007-0.063,0.036-0.08,0.038c-0.019,0.008-0.065,0-0.082,0c-0.006,0.004-0.035,0-0.041,0c-0.006,0-0.032,0.004-0.042,0
	c-0.006,0-0.031,0.004-0.041,0c-0.006,0-0.032,0.004-0.039,0c-0.006,0-0.035,0.004-0.041,0c-0.007,0-0.038-0.034-0.042-0.038
	c-0.01-0.01-0.031-0.035-0.041-0.041c-0.111-0.098-0.212-0.272-0.286-0.409c-0.019-0.034-0.061-0.095-0.082-0.124
	c-0.006-0.006-0.032-0.031-0.042-0.041c-0.006-0.007-0.031-0.035-0.041-0.039l1.874-24.844c0.64-24.282-10.976-51.206,3.055-72.564
	C52.117,155.356,51.99,155.35,51.883,155.381L51.883,155.381z M530.817,218.891c4.147,22.65-6.016,41.57-14.177,60.33
	c-5.744,13.033-7.623,27.713-11.322,41.686l-1.095,1.264l-0.45-0.449c1.291-6.07,3.42-11.941,2.85-18.844
	c1.569-28.482-23.321-45.95-28.957-71.34l-0.284,9.504c2.122,24.862,8.681,47.869,16.171,70.521
	c4.319,10.523,3.034,24.178,2.033,35.285c8.947-14.027,20.655-26.867,30.343-40.668
	C539.492,281.247,543.229,245.593,530.817,218.891L530.817,218.891z M24.962,222.808c-2.916,6.228-4.141,13.211-5.702,19.987
	c-3.315,17.644-0.063,36.426,4.806,52.619c5.921,20.309,25.854,34.799,35.921,53.389l1.384,1.102
	c-1.467-10.092-2.245-20.957,0.611-30.586c4.337-15.42,9.326-30.494,12.667-46.38c1.744-12.487,4.796-26.315,3.34-38.343
	c-1.662,6.48-3.587,12.717-6.924,18.355c-13.731,20.807-27.386,45.502-17.92,72.073c-0.054,0.07-0.138,0.176-0.203,0.248
	c-0.018,0.016-0.066,0.064-0.082,0.08c-0.044,0.041-0.117,0.094-0.164,0.121c-0.067,0.041-0.172,0.078-0.245,0.084
	c-0.002,0-0.035,0-0.041,0c-0.003,0-0.035,0-0.042,0c-0.002-0.004-0.035,0-0.038,0c-0.012-0.004-0.031-0.037-0.041-0.041
	c-0.006-0.002-0.035,0.004-0.042,0c-3.804-8.779-4.466-18.828-7.125-28.188C38.778,272.365,19.454,251.577,24.962,222.808
	L24.962,222.808z M481.821,291.13l-4.155,11.092c-11.132,33.104-2.291,74.422-20.363,104.502v1.104
	c11.804-9.15,24.258-16.592,36.537-24.639c29.783-20.346,49.882-51.842,44.429-87.775c-2.108,21.525-18.437,37.432-34.495,52.943
	c-10.347,11.09-17.255,23.475-26.107,35.121h-1.095c6.547-9.984,10.606-21.074,11.238-33.574
	C488.438,329.214,479.496,311.75,481.821,291.13L481.821,291.13z M74.81,294.472c2.498,16.436-4.021,30.959-5.495,46.584
	c-1.283,12.836,0.659,25.477,5.986,36.096c1.115,3.34,4.135,6.082,4.885,9.342c-4.812-4.336-7.921-10.072-11.524-15.256
	c-15.225-25.32-48.078-41.484-50.294-72.072c-1.115,13.607-0.538,28.287,4.601,40.133c12.195,34.363,49.648,52.186,77.136,70.936
	c-2.593-6.545-6.513-12.652-8.473-19.496C84.15,359.431,88.19,323.361,74.81,294.472L74.81,294.472z M465.04,343.91
	c-6.47,7.104-11.061,14.949-16.615,22.434c-17.438,26.439-15.97,61.174-42.105,83.619c15.431-5.271,32.407-6.629,48.3-10.891
	c30.703-9.779,63.308-40.559,67.358-73.381c-3.774,9.701-11.624,18.689-20.198,25.533c-21.415,16.074-47.281,21.617-67.075,41.4
	c-2.114,1.395-4.242,3.471-6.643,3.592c7.416-6.449,14.089-14.43,18.774-22.639C459.026,392.896,454.436,365.222,465.04,343.91
	L465.04,343.91z M91.631,346.847c11.284,22.559,5.953,51.957,21.013,72.932c4.138,6.934,10.995,13.002,16.903,18.354l-0.285,0.287
	c-5.348-2.492-10.292-6.076-15.029-10.279c-25.732-21.143-64.13-24.016-79.457-58.734c4.16,25.492,24.004,48.686,46.227,62.363
	c20.351,14.221,47.357,12.131,70.411,19.742c-21.303-17.197-24.837-42.918-34.044-65.668
	C111.178,371.906,101.886,359.132,91.631,346.847L91.631,346.847z M428.962,399.343c-18.547,12.668-33.396,29.197-50.092,45.275
	c-11.341,10.252-25.184,14.508-39.422,17.742v0.205l5.741,0.734c29.786,4.82,61.072,19.223,92.161,7.463
	c18.089-6.369,37.961-21.537,45.894-39.648c-21.362,25.992-56.24,21.115-86.703,25.904c-8.193,0.83-15.755,3.77-24.028,3.59
	c5.807-2.791,12.91-3.416,18.533-7.096C413.758,442.16,415.209,416.998,428.962,399.343L428.962,399.343z M128.445,401.83
	c13.928,18.758,17.717,46.611,43.375,55.637c4.257,2.248,9.658,1.975,13.562,4.449c-4.9,0.75-9.142-1.123-13.764-1.76
	c-32.734-7.32-72.888,2.008-97.459-25.98c9.327,18.289,28.463,32.988,46.999,38.832c28.51,9.689,58.394-1.129,85.279-7.748
	c3.831-1.006,8.469-0.68,12.055-1.959c-14.937-3.049-29.11-7.859-40.887-18.193C161.188,429.64,146.241,413.664,128.445,401.83
	L128.445,401.83z M305.032,462.361c-7.098,0.178-14.164,1.127-20.972,2.898c-4.804,4.314-9.743-0.768-14.825-0.859
	c-32.572-7.113-60.625,7.762-87.644,19.498c-20.132,7.936-46.517,6.67-64.222-5.545c8.757,10.996,20.481,17.754,32.579,22.352
	c22.497,8.98,49.275,2.859,67.891-10.156c15.973-8.982,29.7-26.625,50.745-19.947c-21.418,9.969-40.99,23.92-58.688,41.848
	l11.076,9.18c12.905-17.311,30.086-31.428,47.446-42.422c3.763-2.027,7.758-4.555,11.933-5.096
	c21.325,10.432,40.351,28.309,57.548,46.865c3.668-2.967,7.536-6.186,10.544-9.629c-17.845-17.262-37.347-30.793-58.355-40.584
	c3.489-1.01,7.455-1.176,11.562-1.104c11.328-0.709,19.061,7.316,27.818,12.895c21.623,16.426,50.503,27.232,78.192,16.883
	c12.409-4.451,24.436-12.322,33.23-23.287c-17.108,12.182-42.911,14.246-62.878,6.848l-21.502-8.645
	C341.528,466.388,323.167,461.912,305.032,462.361L305.032,462.361z"/>
</svg>
