<?xml version="1.0" encoding="UTF-8" standalone="no"?>
<!-- Created with Inkscape (http://www.inkscape.org/) -->

<svg
   xmlns:dc="http://purl.org/dc/elements/1.1/"
   xmlns:cc="http://creativecommons.org/ns#"
   xmlns:rdf="http://www.w3.org/1999/02/22-rdf-syntax-ns#"
   xmlns:svg="http://www.w3.org/2000/svg"
   xmlns="http://www.w3.org/2000/svg"
   xmlns:sodipodi="http://sodipodi.sourceforge.net/DTD/sodipodi-0.dtd"
   xmlns:inkscape="http://www.inkscape.org/namespaces/inkscape"
   id="svg2985"
   version="1.1"
   inkscape:version="0.48.2 r9819"
   width="1351.2109"
   height="1125.781"
   xml:space="preserve"
   sodipodi:docname="ITS_Logo_B.svg"
   inkscape:export-filename="C:\Users\Romedius\Documents\Hackerspace\Logo\v3\ITS_Logo_B.png"
   inkscape:export-xdpi="50"
   inkscape:export-ydpi="50"><metadata
     id="metadata2991"><rdf:RDF><cc:Work
         rdf:about=""><dc:format>image/svg+xml</dc:format><dc:type
           rdf:resource="http://purl.org/dc/dcmitype/StillImage" /><dc:title /></cc:Work></rdf:RDF></metadata><defs
     id="defs2989">


</defs><sodipodi:namedview
     pagecolor="#ffffff"
     bordercolor="#666666"
     borderopacity="1"
     objecttolerance="10"
     gridtolerance="10"
     guidetolerance="10"
     inkscape:pageopacity="0"
     inkscape:pageshadow="2"
     inkscape:window-width="1574"
     inkscape:window-height="763"
     id="namedview2987"
     showgrid="false"
     inkscape:zoom="0.48322008"
     inkscape:cx="428.30614"
     inkscape:cy="562.89055"
     inkscape:window-x="0"
     inkscape:window-y="0"
     inkscape:window-maximized="0"
     inkscape:current-layer="g2993"
     fit-margin-top="0"
     fit-margin-left="0"
     fit-margin-right="0"
     fit-margin-bottom="0"
     showguides="true"
     inkscape:guide-bbox="true"
     showborder="false"><sodipodi:guide
       orientation="1,0"
       position="862.59754,640.63375"
       id="guide7426" /><sodipodi:guide
       orientation="1,0"
       position="894.79286,640.31734"
       id="guide7428" /></sodipodi:namedview><g
     id="g2993"
     inkscape:groupmode="layer"
     inkscape:label="gol-shirt"
     transform="matrix(1.25,0,0,-1.25,-10.273438,1029.2966)"><rect
   style="fill:#000018;fill-opacity:1;stroke:none"
   id="rect7476"
   width="1080.9688"
   height="900.62482"
   x="8.21875"
   y="-823.43732"
   transform="scale(1,-1)" />

<path
   style="font-size:medium;font-style:normal;font-variant:normal;font-weight:normal;font-stretch:normal;text-indent:0;text-align:start;text-decoration:none;line-height:normal;letter-spacing:normal;word-spacing:normal;text-transform:none;direction:ltr;block-progression:tb;writing-mode:lr-tb;text-anchor:start;baseline-shift:baseline;opacity:0.93000034;color:#000000;fill:#ffdf00;fill-opacity:1;stroke:none;stroke-width:4.7460618;marker:none;visibility:visible;display:inline;overflow:visible;enable-background:accumulate;font-family:Sans;-inkscape-font-specification:Sans"
   d="m 40.21875,791.4375 0,-2.375 0,-831.875 0,-2.375 2.375,0 1012.21875,0 2.375,0 0,2.375 0,831.875 0,2.375 -2.375,0 -1012.21875,0 -2.375,0 z m 4.75,-4.75 1007.50005,0 0,-827.125 -1007.50005,0 0,827.125 z"
   id="rect7470"
   inkscape:connector-curvature="0" /><text
   xml:space="preserve"
   style="font-size:123.68276215px;font-style:normal;font-variant:normal;font-weight:normal;font-stretch:normal;line-height:125%;letter-spacing:0px;word-spacing:0px;fill:#ffdf00;fill-opacity:1;stroke:none;font-family:OCR A Std;-inkscape-font-specification:OCR A Std"
   x="59.226162"
   y="-11.463318"
   id="text4248-1"
   sodipodi:linespacing="125%"
   transform="scale(1,-1)"><tspan
     sodipodi:role="line"
     id="tspan4250-7"
     x="59.226162"
     y="-11.463318">IT-Syndikat</tspan></text>
<path
   id="rect7393"
   d="m 410.20313,760.01896 c -6.6135,0 -12,-5.38659 -12,-12 l 0,-79 c 0,-4.1659 2.1399,-7.84743 5.375,-10 -3.2351,-2.15258 -5.375,-5.8341 -5.375,-10 l 0,-79 c 0,-4.1659 2.1399,-7.84743 5.375,-10 -3.2351,-2.15258 -5.375,-5.8341 -5.375,-10 l 0,-79 c 0,-6.61341 5.3865,-12 12,-12 l 79,0 c 4.1659,0 7.8474,2.13997 10,5.375 2.1525,-3.23503 5.834,-5.375 10,-5.375 l 79,0 c 4.1659,0 7.8474,2.13997 10,5.375 2.1525,-3.23503 5.834,-5.375 10,-5.375 l 79,0 c 6.6134,0 12,5.38659 12,12 l 0,79 c 0,4.1653 -2.1408,7.84729 -5.375,10 3.2342,2.15271 5.375,5.8347 5.375,10 l 0,79 c 0,4.1653 -2.1408,7.84729 -5.375,10 3.2342,2.15271 5.375,5.8347 5.375,10 l 0,79 c 0,6.61341 -5.3866,12 -12,12 l -79,0 c -4.1653,0 -7.8473,-2.14077 -10,-5.375 -2.1528,3.23423 -5.8348,5.375 -10,5.375 l -79,0 c -4.1653,0 -7.8473,-2.14077 -10,-5.375 -2.1528,3.23423 -5.8348,5.375 -10,5.375 l -79,0 z m 325,0 c -6.6135,0 -12,-5.38659 -12,-12 l 0,-79 c 0,-4.1659 2.1399,-7.84743 5.375,-10 -3.2351,-2.15258 -5.375,-5.8341 -5.375,-10 l 0,-79 c 0,-4.1659 2.1399,-7.84743 5.375,-10 -3.2351,-2.15258 -5.375,-5.8341 -5.375,-10 l 0,-79 c 0,-6.61341 5.3865,-12 12,-12 l 78.9999,0 c 4.1659,0 7.8475,2.13997 10,5.375 2.1527,-3.23503 5.8342,-5.375 10,-5.375 l 79.0001,0 c 4.1659,0 7.8473,2.13997 10,5.375 2.1526,-3.23503 5.834,-5.375 10,-5.375 l 78.99997,0 c 6.6134,0 12,5.38659 12,12 l 0,79 c 0,4.1653 -2.1408,7.84729 -5.375,10 3.2342,2.15271 5.375,5.8347 5.375,10 l 0,79 c 0,4.1653 -2.1408,7.84729 -5.375,10 3.2342,2.15271 5.375,5.8347 5.375,10 l 0,79 c 0,6.61341 -5.3866,12 -12,12 l -78.99997,0 c -4.1653,0 -7.8473,-2.14077 -10,-5.375 -2.1528,3.23423 -5.8348,5.375 -10,5.375 l -79.0001,0 c -4.1653,0 -7.8473,-2.14077 -10,-5.375 -2.1526,3.23423 -5.8346,5.375 -10,5.375 l -78.9999,0 z m -325,-4 79,0 c 4.4665,0 8,-3.53341 8,-8 l 0,-79 c 0,-4.46659 -3.5335,-8 -8,-8 l -79,0 c -4.4666,0 -8,3.53341 -8,8 l 0,79 c 0,4.46659 3.5334,8 8,8 z m 99,0 79,0 c 4.4665,0 8,-3.53341 8,-8 l 0,-79 c 0,-4.46659 -3.5335,-8 -8,-8 l -79,0 c -4.4666,0 -8,3.53341 -8,8 l 0,79 c 0,4.46659 3.5334,8 8,8 z m 99,0 79,0 c 4.4665,0 8,-3.53341 8,-8 l 0,-79 c 0,-4.46659 -3.5335,-8 -8,-8 l -79,0 c -4.4666,0 -8,3.53341 -8,8 l 0,79 c 0,4.46659 3.5334,8 8,8 z m 127,0 78.9999,0 c 4.4667,0 8,-3.53341 8,-8 l 0,-79 c 0,-4.46659 -3.5333,-8 -8,-8 l -78.9999,0 c -4.4666,0 -8,3.53341 -8,8 l 0,79 c 0,4.46659 3.5334,8 8,8 z m 98.9999,0 79.0001,0 c 4.4666,0 8,-3.53341 8,-8 l 0,-79 c 0,-4.46659 -3.5334,-8 -8,-8 l -79.0001,0 c -4.4665,0 -8,3.53341 -8,8 l 0,79 c 0,4.46659 3.5335,8 8,8 z m 99.0001,0 78.99997,0 c 4.4665,0 8,-3.53341 8,-8 l 0,-79 c 0,-4.46659 -3.5335,-8 -8,-8 l -78.99997,0 c -4.4667,0 -8,3.53341 -8,8 l 0,79 c 0,4.46659 3.5333,8 8,8 z m -497.1,-19.725 0,-5.95 5.95,0 0,5.95 -5.95,0 z m 7.075,0 0,-5.95 5.95,0 0,5.95 -5.95,0 z m 7.1,0 0,-5.95 5.95,0 0,5.95 -5.95,0 z m 7.075,0 0,-5.95 5.95,0 0,5.95 -5.95,0 z m 176.75,0 0,-5.95 5.95,0 0,5.95 -5.95,0 z m 7.075,0 0,-5.95 5.95,0 0,5.95 -5.95,0 z m 7.1,0 0,-5.95 5.95,0 0,5.95 -5.95,0 z m 7.075,0 0,-5.95 5.95,0 0,5.95 -5.95,0 z m 303.75,0 0,-5.95 5.95,0 0,5.95 -5.95,0 z m 7.075,0 0,-5.95 5.95,0 0,5.95 -5.95,0 z m 7.1,0 0,-5.95 5.95,0 0,5.95 -5.95,0 z m 7.075,0 0,-5.95 5.95,0 0,5.95 -5.95,0 z m -565.525,-7.1 0,-5.95 5.95,0 0,5.95 -5.95,0 z m 7.1,0 0,-5.95 5.95,0 0,5.95 -5.95,0 z m 7.075,0 0,-5.95 5.95,0 0,5.95 -5.95,0 z m 7.1,0 0,-5.95 5.95,0 0,5.95 -5.95,0 z m 7.075,0 0,-5.95 5.95,0 0,5.95 -5.95,0 z m 7.1,0 0,-5.95 5.95,0 0,5.95 -5.95,0 z m 7.075,0 0,-5.95 5.95,0 0,5.95 -5.95,0 z m 7.1,0 0,-5.95 5.95,0 0,5.95 -5.95,0 z m 7.075,0 0,-5.95 5.95,0 0,5.95 -5.95,0 z m 7.1,0 0,-5.95 5.925,0 0,5.95 -5.925,0 z m 134.2,0 0,-5.95 5.95,0 0,5.95 -5.95,0 z m 7.1,0 0,-5.95 5.95,0 0,5.95 -5.95,0 z m 7.075,0 0,-5.95 5.95,0 0,5.95 -5.95,0 z m 7.1,0 0,-5.95 5.95,0 0,5.95 -5.95,0 z m 7.075,0 0,-5.95 5.95,0 0,5.95 -5.95,0 z m 7.1,0 0,-5.95 5.95,0 0,5.95 -5.95,0 z m 7.075,0 0,-5.95 5.95,0 0,5.95 -5.95,0 z m 7.1,0 0,-5.95 5.95,0 0,5.95 -5.95,0 z m 7.075,0 0,-5.95 5.95,0 0,5.95 -5.95,0 z m 7.1,0 0,-5.95 5.925,0 0,5.95 -5.925,0 z m 261.2,0 0,-5.95 5.95,0 0,5.95 -5.95,0 z m 7.1,0 0,-5.95 5.95,0 0,5.95 -5.95,0 z m 7.075,0 0,-5.95 5.95,0 0,5.95 -5.95,0 z m 7.1,0 0,-5.95 5.95,0 0,5.95 -5.95,0 z m 7.075,0 0,-5.95 5.95,0 0,5.95 -5.95,0 z m 7.1,0 0,-5.95 5.95,0 0,5.95 -5.95,0 z m 7.075,0 0,-5.95 5.95,0 0,5.95 -5.95,0 z m 7.1,0 0,-5.95 5.95,0 0,5.95 -5.95,0 z m 7.075,0 0,-5.95 5.94997,0 0,5.95 -5.94997,0 z m 7.09997,0 0,-5.95 5.925,0 0,5.95 -5.925,0 z m -593.87497,-7.075 0,-5.95 5.95,0 0,5.95 -5.95,0 z m 7.075,0 0,-5.95 5.95,0 0,5.95 -5.95,0 z m 7.1,0 0,-5.95 5.95,0 0,5.95 -5.95,0 z m 7.075,0 0,-5.95 5.95,0 0,5.95 -5.95,0 z m 7.1,0 0,-5.95 5.95,0 0,5.95 -5.95,0 z m 7.075,0 0,-5.95 5.95,0 0,5.95 -5.95,0 z m 7.1,0 0,-5.95 5.95,0 0,5.95 -5.95,0 z m 7.075,0 0,-5.95 5.95,0 0,5.95 -5.95,0 z m 7.1,0 0,-5.95 5.95,0 0,5.95 -5.95,0 z m 7.075,0 0,-5.95 5.95,0 0,5.95 -5.95,0 z m 7.1,0 0,-5.95 5.925,0 0,5.95 -5.925,0 z m 7.075,0 0,-5.95 5.95,0 0,5.95 -5.95,0 z m 120.05,0 0,-5.95 5.95,0 0,5.95 -5.95,0 z m 7.075,0 0,-5.95 5.95,0 0,5.95 -5.95,0 z m 7.1,0 0,-5.95 5.95,0 0,5.95 -5.95,0 z m 7.075,0 0,-5.95 5.95,0 0,5.95 -5.95,0 z m 7.1,0 0,-5.95 5.95,0 0,5.95 -5.95,0 z m 7.075,0 0,-5.95 5.95,0 0,5.95 -5.95,0 z m 7.1,0 0,-5.95 5.95,0 0,5.95 -5.95,0 z m 7.075,0 0,-5.95 5.95,0 0,5.95 -5.95,0 z m 7.1,0 0,-5.95 5.95,0 0,5.95 -5.95,0 z m 7.075,0 0,-5.95 5.95,0 0,5.95 -5.95,0 z m 7.1,0 0,-5.95 5.925,0 0,5.95 -5.925,0 z m 7.075,0 0,-5.95 5.95,0 0,5.95 -5.95,0 z m 247.05,0 0,-5.95 5.95,0 0,5.95 -5.95,0 z m 7.075,0 0,-5.95 5.95,0 0,5.95 -5.95,0 z m 7.1,0 0,-5.95 5.95,0 0,5.95 -5.95,0 z m 7.075,0 0,-5.95 5.95,0 0,5.95 -5.95,0 z m 7.1,0 0,-5.95 5.95,0 0,5.95 -5.95,0 z m 7.075,0 0,-5.95 5.95,0 0,5.95 -5.95,0 z m 7.1,0 0,-5.95 5.95,0 0,5.95 -5.95,0 z m 7.075,0 0,-5.95 5.95,0 0,5.95 -5.95,0 z m 7.1,0 0,-5.95 5.95,0 0,5.95 -5.95,0 z m 7.075,0 0,-5.95 5.94997,0 0,5.95 -5.94997,0 z m 7.09997,0 0,-5.95 5.925,0 0,5.95 -5.925,0 z m 7.075,0 0,-5.95 5.95,0 0,5.95 -5.95,0 z m -600.94997,-7.1 0,-5.925 5.95,0 0,5.925 -5.95,0 z m 7.075,0 0,-5.925 5.95,0 0,5.925 -5.95,0 z m 7.1,0 0,-5.925 5.95,0 0,5.925 -5.95,0 z m 21.25,0 0,-5.925 5.95,0 0,5.925 -5.95,0 z m 7.1,0 0,-5.925 5.95,0 0,5.925 -5.95,0 z m 21.25,0 0,-5.925 5.95,0 0,5.925 -5.95,0 z m 7.1,0 0,-5.925 5.925,0 0,5.925 -5.925,0 z m 7.075,0 0,-5.925 5.95,0 0,5.925 -5.95,0 z m 120.05,0 0,-5.925 5.95,0 0,5.925 -5.95,0 z m 7.075,0 0,-5.925 5.95,0 0,5.925 -5.95,0 z m 7.1,0 0,-5.925 5.95,0 0,5.925 -5.95,0 z m 21.25,0 0,-5.925 5.95,0 0,5.925 -5.95,0 z m 7.1,0 0,-5.925 5.95,0 0,5.925 -5.95,0 z m 21.25,0 0,-5.925 5.95,0 0,5.925 -5.95,0 z m 7.1,0 0,-5.925 5.925,0 0,5.925 -5.925,0 z m 7.075,0 0,-5.925 5.95,0 0,5.925 -5.95,0 z m 247.05,0 0,-5.925 5.95,0 0,5.925 -5.95,0 z m 7.0749,0 0,-5.925 5.95,0 0,5.925 -5.95,0 z m 7.1,0 0,-5.925 5.95,0 0,5.925 -5.95,0 z m 21.25,0 0,-5.925 5.95,0 0,5.925 -5.95,0 z m 7.1,0 0,-5.925 5.95,0 0,5.925 -5.95,0 z m 21.25,0 0,-5.925 5.94997,0 0,5.925 -5.94997,0 z m 7.09997,0 0,-5.925 5.9251,0 0,5.925 -5.9251,0 z m 7.075,0 0,-5.925 5.9501,0 0,5.925 -5.9501,0 z m -600.94987,-7.075 0,-5.95 5.95,0 0,5.95 -5.95,0 z m 7.075,0 0,-5.95 5.95,0 0,5.95 -5.95,0 z m 7.1,0 0,-5.95 5.95,0 0,5.95 -5.95,0 z m 7.075,0 0,-5.95 5.95,0 0,5.95 -5.95,0 z m 7.1,0 0,-5.95 5.95,0 0,5.95 -5.95,0 z m 7.075,0 0,-5.95 5.95,0 0,5.95 -5.95,0 z m 7.1,0 0,-5.95 5.95,0 0,5.95 -5.95,0 z m 7.075,0 0,-5.95 5.95,0 0,5.95 -5.95,0 z m 7.1,0 0,-5.95 5.95,0 0,5.95 -5.95,0 z m 7.075,0 0,-5.95 5.95,0 0,5.95 -5.95,0 z m 7.1,0 0,-5.95 5.925,0 0,5.95 -5.925,0 z m 7.075,0 0,-5.95 5.95,0 0,5.95 -5.95,0 z m 120.05,0 0,-5.95 5.95,0 0,5.95 -5.95,0 z m 7.075,0 0,-5.95 5.95,0 0,5.95 -5.95,0 z m 7.1,0 0,-5.95 5.95,0 0,5.95 -5.95,0 z m 7.075,0 0,-5.95 5.95,0 0,5.95 -5.95,0 z m 7.1,0 0,-5.95 5.95,0 0,5.95 -5.95,0 z m 7.075,0 0,-5.95 5.95,0 0,5.95 -5.95,0 z m 7.1,0 0,-5.95 5.95,0 0,5.95 -5.95,0 z m 7.075,0 0,-5.95 5.95,0 0,5.95 -5.95,0 z m 7.1,0 0,-5.95 5.95,0 0,5.95 -5.95,0 z m 7.075,0 0,-5.95 5.95,0 0,5.95 -5.95,0 z m 7.1,0 0,-5.95 5.925,0 0,5.95 -5.925,0 z m 7.075,0 0,-5.95 5.95,0 0,5.95 -5.95,0 z m 247.05,0 0,-5.95 5.9499,0 0,5.95 -5.9499,0 z m 7.0749,0 0,-5.95 5.95,0 0,5.95 -5.95,0 z m 7.1,0 0,-5.95 5.95,0 0,5.95 -5.95,0 z m 7.075,0 0,-5.95 5.9501,0 0,5.95 -5.9501,0 z m 7.1,0 0,-5.95 5.9501,0 0,5.95 -5.9501,0 z m 7.075,0 0,-5.95 5.95,0 0,5.95 -5.95,0 z m 7.1,0 0,-5.95 5.95,0 0,5.95 -5.95,0 z m 7.0751,0 0,-5.95 5.9499,0 0,5.95 -5.9499,0 z m 7.1,0 0,-5.95 5.9499,0 0,5.95 -5.9499,0 z m 7.0749,0 0,-5.95 5.94997,0 0,5.95 -5.94997,0 z m 7.09997,0 0,-5.95 5.9251,0 0,5.95 -5.9251,0 z m 7.075,0 0,-5.95 5.9501,0 0,5.95 -5.9501,0 z m -579.69987,-7.075 0,-5.95 5.95,0 0,5.95 -5.95,0 z m 7.1,0 0,-5.95 5.95,0 0,5.95 -5.95,0 z m 21.25,0 0,-5.95 5.95,0 0,5.95 -5.95,0 z m 7.1,0 0,-5.95 5.95,0 0,5.95 -5.95,0 z m 162.55,0 0,-5.95 5.95,0 0,5.95 -5.95,0 z m 7.1,0 0,-5.95 5.95,0 0,5.95 -5.95,0 z m 21.25,0 0,-5.95 5.95,0 0,5.95 -5.95,0 z m 7.1,0 0,-5.95 5.95,0 0,5.95 -5.95,0 z m 289.5499,0 0,-5.95 5.9501,0 0,5.95 -5.9501,0 z m 7.1,0 0,-5.95 5.9501,0 0,5.95 -5.9501,0 z m 21.2501,0 0,-5.95 5.9499,0 0,5.95 -5.9499,0 z m 7.1,0 0,-5.95 5.9499,0 0,5.95 -5.9499,0 z m -565.525,-7.1 0,-5.95 5.95,0 0,5.95 -5.95,0 z m 7.075,0 0,-5.95 5.95,0 0,5.95 -5.95,0 z m 14.175,0 0,-5.95 5.95,0 0,5.95 -5.95,0 z m 7.1,0 0,-5.95 5.95,0 0,5.95 -5.95,0 z m 14.175,0 0,-5.95 5.95,0 0,5.95 -5.95,0 z m 7.075,0 0,-5.95 5.95,0 0,5.95 -5.95,0 z m 148.4,0 0,-5.95 5.95,0 0,5.95 -5.95,0 z m 7.075,0 0,-5.95 5.95,0 0,5.95 -5.95,0 z m 14.175,0 0,-5.95 5.95,0 0,5.95 -5.95,0 z m 7.1,0 0,-5.95 5.95,0 0,5.95 -5.95,0 z m 14.175,0 0,-5.95 5.95,0 0,5.95 -5.95,0 z m 7.075,0 0,-5.95 5.95,0 0,5.95 -5.95,0 z m 275.3999,0 0,-5.95 5.95,0 0,5.95 -5.95,0 z m 7.075,0 0,-5.95 5.9501,0 0,5.95 -5.9501,0 z m 14.175,0 0,-5.95 5.95,0 0,5.95 -5.95,0 z m 7.1,0 0,-5.95 5.95,0 0,5.95 -5.95,0 z m 14.1751,0 0,-5.95 5.9499,0 0,5.95 -5.9499,0 z m 7.0749,0 0,-5.95 5.94997,0 0,5.95 -5.94997,0 z m -586.7749,-7.075 0,-5.95 5.95,0 0,5.95 -5.95,0 z m 7.075,0 0,-5.95 5.95,0 0,5.95 -5.95,0 z m 63.8,0 0,-5.95 5.925,0 0,5.95 -5.925,0 z m 7.075,0 0,-5.95 5.95,0 0,5.95 -5.95,0 z m 120.05,0 0,-5.95 5.95,0 0,5.95 -5.95,0 z m 7.075,0 0,-5.95 5.95,0 0,5.95 -5.95,0 z m 63.8,0 0,-5.95 5.925,0 0,5.95 -5.925,0 z m 7.075,0 0,-5.95 5.95,0 0,5.95 -5.95,0 z m 247.05,0 0,-5.95 5.9499,0 0,5.95 -5.9499,0 z m 7.0749,0 0,-5.95 5.95,0 0,5.95 -5.95,0 z m 63.79997,0 0,-5.95 5.9251,0 0,5.95 -5.9251,0 z m 7.075,0 0,-5.95 5.9501,0 0,5.95 -5.9501,0 z m -509.49987,-24.3 c 0.8879,-1.33443 2.0405,-2.48708 3.375,-3.375 -1.334,-0.8876 -2.4873,-2.04119 -3.375,-3.375 -0.8875,1.33334 -2.0417,2.48753 -3.375,3.375 1.3338,0.88779 2.4874,2.04106 3.375,3.375 z m 99,0 c 0.8879,-1.33443 2.0405,-2.48708 3.375,-3.375 -1.334,-0.8876 -2.4873,-2.04119 -3.375,-3.375 -0.8875,1.33334 -2.0417,2.48753 -3.375,3.375 1.3338,0.88779 2.4874,2.04106 3.375,3.375 z m 225.9999,0 c 0.8879,-1.33443 2.0407,-2.48708 3.3751,-3.375 -1.334,-0.8876 -2.4872,-2.04119 -3.3751,-3.375 -0.8874,1.33334 -2.0416,2.48753 -3.3749,3.375 1.3338,0.88779 2.4873,2.04106 3.3749,3.375 z m 99,0 c 0.8879,-1.33443 2.0406,-2.48708 3.375,-3.375 -1.3339,-0.8876 -2.4872,-2.04119 -3.375,-3.375 -0.8875,1.33334 -2.0416,2.48753 -3.375,3.375 1.3339,0.88779 2.4874,2.04106 3.375,3.375 z m -512.9999,-5.375 79,0 c 4.4665,0 8,-3.53341 8,-8 l 0,-79 c 0,-4.46659 -3.5335,-8 -8,-8 l -79,0 c -4.4666,0 -8,3.53341 -8,8 l 0,79 c 0,4.46659 3.5334,8 8,8 z m 99,0 79,0 c 4.4665,0 8,-3.53341 8,-8 l 0,-79 c 0,-4.46659 -3.5335,-8 -8,-8 l -79,0 c -4.4666,0 -8,3.53341 -8,8 l 0,79 c 0,4.46659 3.5334,8 8,8 z m 99,0 79,0 c 4.4665,0 8,-3.53341 8,-8 l 0,-79 c 0,-4.46659 -3.5335,-8 -8,-8 l -79,0 c -4.4666,0 -8,3.53341 -8,8 l 0,79 c 0,4.46659 3.5334,8 8,8 z m 127,0 78.9999,0 c 4.4667,0 8,-3.53341 8,-8 l 0,-79 c 0,-4.46659 -3.5333,-8 -8,-8 l -78.9999,0 c -4.4666,0 -8,3.53341 -8,8 l 0,79 c 0,4.46659 3.5334,8 8,8 z m 98.9999,0 79,0 c 4.4666,0 8,-3.53341 8,-8 l 0,-79 c 0,-4.46659 -3.5334,-8 -8,-8 l -79,0 c -4.4665,0 -8,3.53341 -8,8 l 0,79 c 0,4.46659 3.5335,8 8,8 z m 99,0 78.99997,0 c 4.4665,0 8,-3.53341 8,-8 l 0,-79 c 0,-4.46659 -3.5335,-8 -8,-8 l -78.99997,0 c -4.4666,0 -8,3.53341 -8,8 l 0,79 c 0,4.46659 3.5334,8 8,8 z m -398.0999,-19.725 0,-5.95 5.95,0 0,5.95 -5.95,0 z m 7.075,0 0,-5.95 5.95,0 0,5.95 -5.95,0 z m 7.1,0 0,-5.95 5.95,0 0,5.95 -5.95,0 z m 7.075,0 0,-5.95 5.95,0 0,5.95 -5.95,0 z m 77.75,0 0,-5.95 5.95,0 0,5.95 -5.95,0 z m 7.075,0 0,-5.95 5.95,0 0,5.95 -5.95,0 z m 7.1,0 0,-5.95 5.95,0 0,5.95 -5.95,0 z m 7.075,0 0,-5.95 5.95,0 0,5.95 -5.95,0 z m 105.75,0 0,-5.95 5.95,0 0,5.95 -5.95,0 z m 7.075,0 0,-5.95 5.95,0 0,5.95 -5.95,0 z m 7.1,0 0,-5.95 5.95,0 0,5.95 -5.95,0 z m 7.075,0 0,-5.95 5.95,0 0,5.95 -5.95,0 z m 176.7499,0 0,-5.95 5.9501,0 0,5.95 -5.9501,0 z m 7.075,0 0,-5.95 5.95,0 0,5.95 -5.95,0 z m 7.1,0 0,-5.95 5.95,0 0,5.95 -5.95,0 z m 7.0751,0 0,-5.95 5.9499,0 0,5.95 -5.9499,0 z m -466.525,-7.1 0,-5.95 5.95,0 0,5.95 -5.95,0 z m 7.1,0 0,-5.95 5.95,0 0,5.95 -5.95,0 z m 7.075,0 0,-5.95 5.95,0 0,5.95 -5.95,0 z m 7.1,0 0,-5.95 5.95,0 0,5.95 -5.95,0 z m 7.075,0 0,-5.95 5.95,0 0,5.95 -5.95,0 z m 7.1,0 0,-5.95 5.95,0 0,5.95 -5.95,0 z m 7.075,0 0,-5.95 5.95,0 0,5.95 -5.95,0 z m 7.1,0 0,-5.95 5.95,0 0,5.95 -5.95,0 z m 7.075,0 0,-5.95 5.95,0 0,5.95 -5.95,0 z m 7.1,0 0,-5.95 5.925,0 0,5.95 -5.925,0 z m 35.2,0 0,-5.95 5.95,0 0,5.95 -5.95,0 z m 7.1,0 0,-5.95 5.95,0 0,5.95 -5.95,0 z m 7.075,0 0,-5.95 5.95,0 0,5.95 -5.95,0 z m 7.1,0 0,-5.95 5.95,0 0,5.95 -5.95,0 z m 7.075,0 0,-5.95 5.95,0 0,5.95 -5.95,0 z m 7.1,0 0,-5.95 5.95,0 0,5.95 -5.95,0 z m 7.075,0 0,-5.95 5.95,0 0,5.95 -5.95,0 z m 7.1,0 0,-5.95 5.95,0 0,5.95 -5.95,0 z m 7.075,0 0,-5.95 5.95,0 0,5.95 -5.95,0 z m 7.1,0 0,-5.95 5.925,0 0,5.95 -5.925,0 z m 63.2,0 0,-5.95 5.95,0 0,5.95 -5.95,0 z m 7.1,0 0,-5.95 5.95,0 0,5.95 -5.95,0 z m 7.075,0 0,-5.95 5.95,0 0,5.95 -5.95,0 z m 7.1,0 0,-5.95 5.95,0 0,5.95 -5.95,0 z m 7.075,0 0,-5.95 5.95,0 0,5.95 -5.95,0 z m 7.1,0 0,-5.95 5.95,0 0,5.95 -5.95,0 z m 7.075,0 0,-5.95 5.95,0 0,5.95 -5.95,0 z m 7.1,0 0,-5.95 5.95,0 0,5.95 -5.95,0 z m 7.075,0 0,-5.95 5.95,0 0,5.95 -5.95,0 z m 7.1,0 0,-5.95 5.925,0 0,5.95 -5.925,0 z m 134.1999,0 0,-5.95 5.95,0 0,5.95 -5.95,0 z m 7.1,0 0,-5.95 5.95,0 0,5.95 -5.95,0 z m 7.075,0 0,-5.95 5.9501,0 0,5.95 -5.9501,0 z m 7.1,0 0,-5.95 5.9501,0 0,5.95 -5.9501,0 z m 7.075,0 0,-5.95 5.95,0 0,5.95 -5.95,0 z m 7.1,0 0,-5.95 5.95,0 0,5.95 -5.95,0 z m 7.0751,0 0,-5.95 5.9499,0 0,5.95 -5.9499,0 z m 7.1,0 0,-5.95 5.9499,0 0,5.95 -5.9499,0 z m 7.0749,0 0,-5.95 5.94997,0 0,5.95 -5.94997,0 z m 7.09997,0 0,-5.95 5.9251,0 0,5.95 -5.9251,0 z m -494.87487,-7.075 0,-5.95 5.95,0 0,5.95 -5.95,0 z m 7.075,0 0,-5.95 5.95,0 0,5.95 -5.95,0 z m 7.1,0 0,-5.95 5.95,0 0,5.95 -5.95,0 z m 7.075,0 0,-5.95 5.95,0 0,5.95 -5.95,0 z m 7.1,0 0,-5.95 5.95,0 0,5.95 -5.95,0 z m 7.075,0 0,-5.95 5.95,0 0,5.95 -5.95,0 z m 7.1,0 0,-5.95 5.95,0 0,5.95 -5.95,0 z m 7.075,0 0,-5.95 5.95,0 0,5.95 -5.95,0 z m 7.1,0 0,-5.95 5.95,0 0,5.95 -5.95,0 z m 7.075,0 0,-5.95 5.95,0 0,5.95 -5.95,0 z m 7.1,0 0,-5.95 5.925,0 0,5.95 -5.925,0 z m 7.075,0 0,-5.95 5.95,0 0,5.95 -5.95,0 z m 21.05,0 0,-5.95 5.95,0 0,5.95 -5.95,0 z m 7.075,0 0,-5.95 5.95,0 0,5.95 -5.95,0 z m 7.1,0 0,-5.95 5.95,0 0,5.95 -5.95,0 z m 7.075,0 0,-5.95 5.95,0 0,5.95 -5.95,0 z m 7.1,0 0,-5.95 5.95,0 0,5.95 -5.95,0 z m 7.075,0 0,-5.95 5.95,0 0,5.95 -5.95,0 z m 7.1,0 0,-5.95 5.95,0 0,5.95 -5.95,0 z m 7.075,0 0,-5.95 5.95,0 0,5.95 -5.95,0 z m 7.1,0 0,-5.95 5.95,0 0,5.95 -5.95,0 z m 7.075,0 0,-5.95 5.95,0 0,5.95 -5.95,0 z m 7.1,0 0,-5.95 5.925,0 0,5.95 -5.925,0 z m 7.075,0 0,-5.95 5.95,0 0,5.95 -5.95,0 z m 49.05,0 0,-5.95 5.95,0 0,5.95 -5.95,0 z m 7.075,0 0,-5.95 5.95,0 0,5.95 -5.95,0 z m 7.1,0 0,-5.95 5.95,0 0,5.95 -5.95,0 z m 7.075,0 0,-5.95 5.95,0 0,5.95 -5.95,0 z m 7.1,0 0,-5.95 5.95,0 0,5.95 -5.95,0 z m 7.075,0 0,-5.95 5.95,0 0,5.95 -5.95,0 z m 7.1,0 0,-5.95 5.95,0 0,5.95 -5.95,0 z m 7.075,0 0,-5.95 5.95,0 0,5.95 -5.95,0 z m 7.1,0 0,-5.95 5.95,0 0,5.95 -5.95,0 z m 7.075,0 0,-5.95 5.95,0 0,5.95 -5.95,0 z m 7.1,0 0,-5.95 5.925,0 0,5.95 -5.925,0 z m 7.0749,0 0,-5.95 5.9501,0 0,5.95 -5.9501,0 z m 120.0501,0 0,-5.95 5.9499,0 0,5.95 -5.9499,0 z m 7.0749,0 0,-5.95 5.95,0 0,5.95 -5.95,0 z m 7.1,0 0,-5.95 5.95,0 0,5.95 -5.95,0 z m 7.075,0 0,-5.95 5.9501,0 0,5.95 -5.9501,0 z m 7.1,0 0,-5.95 5.9501,0 0,5.95 -5.9501,0 z m 7.075,0 0,-5.95 5.95,0 0,5.95 -5.95,0 z m 7.1,0 0,-5.95 5.95,0 0,5.95 -5.95,0 z m 7.0751,0 0,-5.95 5.9499,0 0,5.95 -5.9499,0 z m 7.1,0 0,-5.95 5.9499,0 0,5.95 -5.9499,0 z m 7.0749,0 0,-5.95 5.94997,0 0,5.95 -5.94997,0 z m 7.09997,0 0,-5.95 5.9251,0 0,5.95 -5.9251,0 z m 7.075,0 0,-5.95 5.9501,0 0,5.95 -5.9501,0 z m -501.94987,-7.1 0,-5.925 5.95,0 0,5.925 -5.95,0 z m 7.075,0 0,-5.925 5.95,0 0,5.925 -5.95,0 z m 7.1,0 0,-5.925 5.95,0 0,5.925 -5.95,0 z m 21.25,0 0,-5.925 5.95,0 0,5.925 -5.95,0 z m 7.1,0 0,-5.925 5.95,0 0,5.925 -5.95,0 z m 21.25,0 0,-5.925 5.95,0 0,5.925 -5.95,0 z m 7.1,0 0,-5.925 5.925,0 0,5.925 -5.925,0 z m 7.075,0 0,-5.925 5.95,0 0,5.925 -5.95,0 z m 21.05,0 0,-5.925 5.95,0 0,5.925 -5.95,0 z m 7.075,0 0,-5.925 5.95,0 0,5.925 -5.95,0 z m 7.1,0 0,-5.925 5.95,0 0,5.925 -5.95,0 z m 21.25,0 0,-5.925 5.95,0 0,5.925 -5.95,0 z m 7.1,0 0,-5.925 5.95,0 0,5.925 -5.95,0 z m 21.25,0 0,-5.925 5.95,0 0,5.925 -5.95,0 z m 7.1,0 0,-5.925 5.925,0 0,5.925 -5.925,0 z m 7.075,0 0,-5.925 5.95,0 0,5.925 -5.95,0 z m 49.05,0 0,-5.925 5.95,0 0,5.925 -5.95,0 z m 7.075,0 0,-5.925 5.95,0 0,5.925 -5.95,0 z m 7.1,0 0,-5.925 5.95,0 0,5.925 -5.95,0 z m 21.25,0 0,-5.925 5.95,0 0,5.925 -5.95,0 z m 7.1,0 0,-5.925 5.95,0 0,5.925 -5.95,0 z m 21.25,0 0,-5.925 5.95,0 0,5.925 -5.95,0 z m 7.1,0 0,-5.925 5.925,0 0,5.925 -5.925,0 z m 7.0749,0 0,-5.925 5.9501,0 0,5.925 -5.9501,0 z m 120.0501,0 0,-5.925 5.9499,0 0,5.925 -5.9499,0 z m 7.0749,0 0,-5.925 5.95,0 0,5.925 -5.95,0 z m 7.1,0 0,-5.925 5.95,0 0,5.925 -5.95,0 z m 21.25,0 0,-5.925 5.95,0 0,5.925 -5.95,0 z m 7.1,0 0,-5.925 5.95,0 0,5.925 -5.95,0 z m 21.25,0 0,-5.925 5.94997,0 0,5.925 -5.94997,0 z m 7.09997,0 0,-5.925 5.9251,0 0,5.925 -5.9251,0 z m 7.075,0 0,-5.925 5.9501,0 0,5.925 -5.9501,0 z m -501.94987,-7.075 0,-5.95 5.95,0 0,5.95 -5.95,0 z m 7.075,0 0,-5.95 5.95,0 0,5.95 -5.95,0 z m 7.1,0 0,-5.95 5.95,0 0,5.95 -5.95,0 z m 7.075,0 0,-5.95 5.95,0 0,5.95 -5.95,0 z m 7.1,0 0,-5.95 5.95,0 0,5.95 -5.95,0 z m 7.075,0 0,-5.95 5.95,0 0,5.95 -5.95,0 z m 7.1,0 0,-5.95 5.95,0 0,5.95 -5.95,0 z m 7.075,0 0,-5.95 5.95,0 0,5.95 -5.95,0 z m 7.1,0 0,-5.95 5.95,0 0,5.95 -5.95,0 z m 7.075,0 0,-5.95 5.95,0 0,5.95 -5.95,0 z m 7.1,0 0,-5.95 5.925,0 0,5.95 -5.925,0 z m 7.075,0 0,-5.95 5.95,0 0,5.95 -5.95,0 z m 21.05,0 0,-5.95 5.95,0 0,5.95 -5.95,0 z m 7.075,0 0,-5.95 5.95,0 0,5.95 -5.95,0 z m 7.1,0 0,-5.95 5.95,0 0,5.95 -5.95,0 z m 7.075,0 0,-5.95 5.95,0 0,5.95 -5.95,0 z m 7.1,0 0,-5.95 5.95,0 0,5.95 -5.95,0 z m 7.075,0 0,-5.95 5.95,0 0,5.95 -5.95,0 z m 7.1,0 0,-5.95 5.95,0 0,5.95 -5.95,0 z m 7.075,0 0,-5.95 5.95,0 0,5.95 -5.95,0 z m 7.1,0 0,-5.95 5.95,0 0,5.95 -5.95,0 z m 7.075,0 0,-5.95 5.95,0 0,5.95 -5.95,0 z m 7.1,0 0,-5.95 5.925,0 0,5.95 -5.925,0 z m 7.075,0 0,-5.95 5.95,0 0,5.95 -5.95,0 z m 49.05,0 0,-5.95 5.95,0 0,5.95 -5.95,0 z m 7.075,0 0,-5.95 5.95,0 0,5.95 -5.95,0 z m 7.1,0 0,-5.95 5.95,0 0,5.95 -5.95,0 z m 7.075,0 0,-5.95 5.95,0 0,5.95 -5.95,0 z m 7.1,0 0,-5.95 5.95,0 0,5.95 -5.95,0 z m 7.075,0 0,-5.95 5.95,0 0,5.95 -5.95,0 z m 7.1,0 0,-5.95 5.95,0 0,5.95 -5.95,0 z m 7.075,0 0,-5.95 5.95,0 0,5.95 -5.95,0 z m 7.1,0 0,-5.95 5.95,0 0,5.95 -5.95,0 z m 7.075,0 0,-5.95 5.95,0 0,5.95 -5.95,0 z m 7.1,0 0,-5.95 5.925,0 0,5.95 -5.925,0 z m 7.0749,0 0,-5.95 5.9501,0 0,5.95 -5.9501,0 z m 120.0501,0 0,-5.95 5.9499,0 0,5.95 -5.9499,0 z m 7.0749,0 0,-5.95 5.95,0 0,5.95 -5.95,0 z m 7.1,0 0,-5.95 5.95,0 0,5.95 -5.95,0 z m 7.075,0 0,-5.95 5.9501,0 0,5.95 -5.9501,0 z m 7.1,0 0,-5.95 5.9501,0 0,5.95 -5.9501,0 z m 7.075,0 0,-5.95 5.95,0 0,5.95 -5.95,0 z m 7.1,0 0,-5.95 5.95,0 0,5.95 -5.95,0 z m 7.0751,0 0,-5.95 5.9499,0 0,5.95 -5.9499,0 z m 7.1,0 0,-5.95 5.9499,0 0,5.95 -5.9499,0 z m 7.0749,0 0,-5.95 5.94997,0 0,5.95 -5.94997,0 z m 7.09997,0 0,-5.95 5.9251,0 0,5.95 -5.9251,0 z m 7.075,0 0,-5.95 5.9501,0 0,5.95 -5.9501,0 z m -480.69987,-7.075 0,-5.95 5.95,0 0,5.95 -5.95,0 z m 7.1,0 0,-5.95 5.95,0 0,5.95 -5.95,0 z m 21.25,0 0,-5.95 5.95,0 0,5.95 -5.95,0 z m 7.1,0 0,-5.95 5.95,0 0,5.95 -5.95,0 z m 63.55,0 0,-5.95 5.95,0 0,5.95 -5.95,0 z m 7.1,0 0,-5.95 5.95,0 0,5.95 -5.95,0 z m 21.25,0 0,-5.95 5.95,0 0,5.95 -5.95,0 z m 7.1,0 0,-5.95 5.95,0 0,5.95 -5.95,0 z m 91.55,0 0,-5.95 5.95,0 0,5.95 -5.95,0 z m 7.1,0 0,-5.95 5.95,0 0,5.95 -5.95,0 z m 21.25,0 0,-5.95 5.95,0 0,5.95 -5.95,0 z m 7.1,0 0,-5.95 5.95,0 0,5.95 -5.95,0 z m 162.55,0 0,-5.95 5.95,0 0,5.95 -5.95,0 z m 7.1,0 0,-5.95 5.95,0 0,5.95 -5.95,0 z m 21.25,0 0,-5.95 5.95,0 0,5.95 -5.95,0 z m 7.1,0 0,-5.95 5.95,0 0,5.95 -5.95,0 z m -466.525,-7.1 0,-5.95 5.95,0 0,5.95 -5.95,0 z m 7.075,0 0,-5.95 5.95,0 0,5.95 -5.95,0 z m 14.175,0 0,-5.95 5.95,0 0,5.95 -5.95,0 z m 7.1,0 0,-5.95 5.95,0 0,5.95 -5.95,0 z m 14.175,0 0,-5.95 5.95,0 0,5.95 -5.95,0 z m 7.075,0 0,-5.95 5.95,0 0,5.95 -5.95,0 z m 49.4,0 0,-5.95 5.95,0 0,5.95 -5.95,0 z m 7.075,0 0,-5.95 5.95,0 0,5.95 -5.95,0 z m 14.175,0 0,-5.95 5.95,0 0,5.95 -5.95,0 z m 7.1,0 0,-5.95 5.95,0 0,5.95 -5.95,0 z m 14.175,0 0,-5.95 5.95,0 0,5.95 -5.95,0 z m 7.075,0 0,-5.95 5.95,0 0,5.95 -5.95,0 z m 77.4,0 0,-5.95 5.95,0 0,5.95 -5.95,0 z m 7.075,0 0,-5.95 5.95,0 0,5.95 -5.95,0 z m 14.175,0 0,-5.95 5.95,0 0,5.95 -5.95,0 z m 7.1,0 0,-5.95 5.95,0 0,5.95 -5.95,0 z m 14.175,0 0,-5.95 5.95,0 0,5.95 -5.95,0 z m 7.075,0 0,-5.95 5.95,0 0,5.95 -5.95,0 z m 148.4,0 0,-5.95 5.95,0 0,5.95 -5.95,0 z m 7.075,0 0,-5.95 5.95,0 0,5.95 -5.95,0 z m 14.175,0 0,-5.95 5.95,0 0,5.95 -5.95,0 z m 7.1,0 0,-5.95 5.95,0 0,5.95 -5.95,0 z m 14.175,0 0,-5.95 5.95,0 0,5.95 -5.95,0 z m 7.075,0 0,-5.95 5.94997,0 0,5.95 -5.94997,0 z m -487.775,-7.075 0,-5.95 5.95,0 0,5.95 -5.95,0 z m 7.075,0 0,-5.95 5.95,0 0,5.95 -5.95,0 z m 63.8,0 0,-5.95 5.925,0 0,5.95 -5.925,0 z m 7.075,0 0,-5.95 5.95,0 0,5.95 -5.95,0 z m 21.05,0 0,-5.95 5.95,0 0,5.95 -5.95,0 z m 7.075,0 0,-5.95 5.95,0 0,5.95 -5.95,0 z m 63.8,0 0,-5.95 5.925,0 0,5.95 -5.925,0 z m 7.075,0 0,-5.95 5.95,0 0,5.95 -5.95,0 z m 49.05,0 0,-5.95 5.95,0 0,5.95 -5.95,0 z m 7.075,0 0,-5.95 5.95,0 0,5.95 -5.95,0 z m 63.8,0 0,-5.95 5.925,0 0,5.95 -5.925,0 z m 7.0749,0 0,-5.95 5.9501,0 0,5.95 -5.9501,0 z m 120.0501,0 0,-5.95 5.95,0 0,5.95 -5.95,0 z m 7.075,0 0,-5.95 5.95,0 0,5.95 -5.95,0 z m 63.79997,0 0,-5.95 5.925,0 0,5.95 -5.925,0 z m 7.075,0 0,-5.95 5.95,0 0,5.95 -5.95,0 z m -509.49997,-24.3 c 0.8879,-1.33443 2.0405,-2.48708 3.375,-3.375 -1.334,-0.8876 -2.4873,-2.04119 -3.375,-3.375 -0.8875,1.33334 -2.0417,2.48753 -3.375,3.375 1.3338,0.88779 2.4874,2.04106 3.375,3.375 z m 99,0 c 0.8879,-1.33443 2.0405,-2.48708 3.375,-3.375 -1.334,-0.8876 -2.4873,-2.04119 -3.375,-3.375 -0.8875,1.33334 -2.0417,2.48753 -3.375,3.375 1.3338,0.88779 2.4874,2.04106 3.375,3.375 z m 225.9999,0 c 0.8879,-1.33443 2.0407,-2.48708 3.3751,-3.375 -1.334,-0.8876 -2.4872,-2.04119 -3.3751,-3.375 -0.8874,1.33334 -2.0416,2.48753 -3.3749,3.375 1.3338,0.88779 2.4873,2.04106 3.3749,3.375 z m 99.0001,0 c 0.8878,-1.33443 2.0405,-2.48708 3.375,-3.375 -1.3339,-0.8876 -2.4872,-2.04119 -3.375,-3.375 -0.8876,1.33334 -2.0416,2.48753 -3.375,3.375 1.3338,0.88779 2.4874,2.04106 3.375,3.375 z m -513,-5.375 79,0 c 4.4665,0 8,-3.53341 8,-8 l 0,-79 c 0,-4.46659 -3.5335,-8 -8,-8 l -79,0 c -4.4666,0 -8,3.53341 -8,8 l 0,79 c 0,4.46659 3.5334,8 8,8 z m 99,0 79,0 c 4.4665,0 8,-3.53341 8,-8 l 0,-79 c 0,-4.46659 -3.5335,-8 -8,-8 l -79,0 c -4.4666,0 -8,3.53341 -8,8 l 0,79 c 0,4.46659 3.5334,8 8,8 z m 99,0 79,0 c 4.4665,0 8,-3.53341 8,-8 l 0,-79 c 0,-4.46659 -3.5335,-8 -8,-8 l -79,0 c -4.4666,0 -8,3.53341 -8,8 l 0,79 c 0,4.46659 3.5334,8 8,8 z m 127,0 78.9999,0 c 4.4667,0 8,-3.53341 8,-8 l 0,-79 c 0,-4.46659 -3.5333,-8 -8,-8 l -78.9999,0 c -4.4666,0 -8,3.53341 -8,8 l 0,79 c 0,4.46659 3.5334,8 8,8 z m 98.9999,0 79.0001,0 c 4.4666,0 8,-3.53341 8,-8 l 0,-79 c 0,-4.46659 -3.5334,-8 -8,-8 l -79.0001,0 c -4.4665,0 -8,3.53341 -8,8 l 0,79 c 0,4.46659 3.5335,8 8,8 z m 99.0001,0 78.99997,0 c 4.4665,0 8,-3.53341 8,-8 l 0,-79 c 0,-4.46659 -3.5335,-8 -8,-8 l -78.99997,0 c -4.4667,0 -8,3.53341 -8,8 l 0,79 c 0,4.46659 3.5333,8 8,8 z m -398.1,-19.725 0,-5.95 5.95,0 0,5.95 -5.95,0 z m 7.075,0 0,-5.95 5.95,0 0,5.95 -5.95,0 z m 7.1,0 0,-5.95 5.95,0 0,5.95 -5.95,0 z m 7.075,0 0,-5.95 5.95,0 0,5.95 -5.95,0 z m 303.7499,0 0,-5.95 5.9501,0 0,5.95 -5.9501,0 z m 7.0751,0 0,-5.95 5.95,0 0,5.95 -5.95,0 z m 7.0999,0 0,-5.95 5.95,0 0,5.95 -5.95,0 z m 7.0751,0 0,-5.95 5.95,0 0,5.95 -5.95,0 z m 77.75,0 0,-5.95 5.95,0 0,5.95 -5.95,0 z m 7.075,0 0,-5.95 5.95,0 0,5.95 -5.95,0 z m 7.1,0 0,-5.95 5.95,0 0,5.95 -5.95,0 z m 7.075,0 0,-5.95 5.95,0 0,5.95 -5.95,0 z m -466.525,-7.1 0,-5.95 5.95,0 0,5.95 -5.95,0 z m 7.1,0 0,-5.95 5.95,0 0,5.95 -5.95,0 z m 7.075,0 0,-5.95 5.95,0 0,5.95 -5.95,0 z m 7.1,0 0,-5.95 5.95,0 0,5.95 -5.95,0 z m 7.075,0 0,-5.95 5.95,0 0,5.95 -5.95,0 z m 7.1,0 0,-5.95 5.95,0 0,5.95 -5.95,0 z m 7.075,0 0,-5.95 5.95,0 0,5.95 -5.95,0 z m 7.1,0 0,-5.95 5.95,0 0,5.95 -5.95,0 z m 7.075,0 0,-5.95 5.95,0 0,5.95 -5.95,0 z m 7.1,0 0,-5.95 5.925,0 0,5.95 -5.925,0 z m 261.2,0 0,-5.95 5.95,0 0,5.95 -5.95,0 z m 7.1,0 0,-5.95 5.95,0 0,5.95 -5.95,0 z m 7.0749,0 0,-5.95 5.9501,0 0,5.95 -5.9501,0 z m 7.1,0 0,-5.95 5.9501,0 0,5.95 -5.9501,0 z m 7.0751,0 0,-5.95 5.95,0 0,5.95 -5.95,0 z m 7.1,0 0,-5.95 5.95,0 0,5.95 -5.95,0 z m 7.075,0 0,-5.95 5.95,0 0,5.95 -5.95,0 z m 7.1,0 0,-5.95 5.95,0 0,5.95 -5.95,0 z m 7.075,0 0,-5.95 5.95,0 0,5.95 -5.95,0 z m 7.1,0 0,-5.95 5.925,0 0,5.95 -5.925,0 z m 35.2,0 0,-5.95 5.95,0 0,5.95 -5.95,0 z m 7.1,0 0,-5.95 5.95,0 0,5.95 -5.95,0 z m 7.075,0 0,-5.95 5.95,0 0,5.95 -5.95,0 z m 7.1,0 0,-5.95 5.95,0 0,5.95 -5.95,0 z m 7.075,0 0,-5.95 5.95,0 0,5.95 -5.95,0 z m 7.1,0 0,-5.95 5.95,0 0,5.95 -5.95,0 z m 7.075,0 0,-5.95 5.95,0 0,5.95 -5.95,0 z m 7.1,0 0,-5.95 5.95,0 0,5.95 -5.95,0 z m 7.075,0 0,-5.95 5.94997,0 0,5.95 -5.94997,0 z m 7.09997,0 0,-5.95 5.925,0 0,5.95 -5.925,0 z m -494.87497,-7.075 0,-5.95 5.95,0 0,5.95 -5.95,0 z m 7.075,0 0,-5.95 5.95,0 0,5.95 -5.95,0 z m 7.1,0 0,-5.95 5.95,0 0,5.95 -5.95,0 z m 7.075,0 0,-5.95 5.95,0 0,5.95 -5.95,0 z m 7.1,0 0,-5.95 5.95,0 0,5.95 -5.95,0 z m 7.075,0 0,-5.95 5.95,0 0,5.95 -5.95,0 z m 7.1,0 0,-5.95 5.95,0 0,5.95 -5.95,0 z m 7.075,0 0,-5.95 5.95,0 0,5.95 -5.95,0 z m 7.1,0 0,-5.95 5.95,0 0,5.95 -5.95,0 z m 7.075,0 0,-5.95 5.95,0 0,5.95 -5.95,0 z m 7.1,0 0,-5.95 5.925,0 0,5.95 -5.925,0 z m 7.075,0 0,-5.95 5.95,0 0,5.95 -5.95,0 z m 247.05,0 0,-5.95 5.9499,0 0,5.95 -5.9499,0 z m 7.075,0 0,-5.95 5.95,0 0,5.95 -5.95,0 z m 7.1,0 0,-5.95 5.95,0 0,5.95 -5.95,0 z m 7.0749,0 0,-5.95 5.9501,0 0,5.95 -5.9501,0 z m 7.1,0 0,-5.95 5.9501,0 0,5.95 -5.9501,0 z m 7.0751,0 0,-5.95 5.95,0 0,5.95 -5.95,0 z m 7.1,0 0,-5.95 5.95,0 0,5.95 -5.95,0 z m 7.075,0 0,-5.95 5.95,0 0,5.95 -5.95,0 z m 7.1,0 0,-5.95 5.95,0 0,5.95 -5.95,0 z m 7.075,0 0,-5.95 5.95,0 0,5.95 -5.95,0 z m 7.1,0 0,-5.95 5.925,0 0,5.95 -5.925,0 z m 7.075,0 0,-5.95 5.95,0 0,5.95 -5.95,0 z m 21.05,0 0,-5.95 5.95,0 0,5.95 -5.95,0 z m 7.075,0 0,-5.95 5.95,0 0,5.95 -5.95,0 z m 7.1,0 0,-5.95 5.95,0 0,5.95 -5.95,0 z m 7.075,0 0,-5.95 5.95,0 0,5.95 -5.95,0 z m 7.1,0 0,-5.95 5.95,0 0,5.95 -5.95,0 z m 7.075,0 0,-5.95 5.95,0 0,5.95 -5.95,0 z m 7.1,0 0,-5.95 5.95,0 0,5.95 -5.95,0 z m 7.075,0 0,-5.95 5.95,0 0,5.95 -5.95,0 z m 7.1,0 0,-5.95 5.95,0 0,5.95 -5.95,0 z m 7.075,0 0,-5.95 5.94997,0 0,5.95 -5.94997,0 z m 7.09997,0 0,-5.95 5.925,0 0,5.95 -5.925,0 z m 7.075,0 0,-5.95 5.95,0 0,5.95 -5.95,0 z m -501.94997,-7.1 0,-5.925 5.95,0 0,5.925 -5.95,0 z m 7.075,0 0,-5.925 5.95,0 0,5.925 -5.95,0 z m 7.1,0 0,-5.925 5.95,0 0,5.925 -5.95,0 z m 21.25,0 0,-5.925 5.95,0 0,5.925 -5.95,0 z m 7.1,0 0,-5.925 5.95,0 0,5.925 -5.95,0 z m 21.25,0 0,-5.925 5.95,0 0,5.925 -5.95,0 z m 7.1,0 0,-5.925 5.925,0 0,5.925 -5.925,0 z m 7.075,0 0,-5.925 5.95,0 0,5.925 -5.95,0 z m 247.05,0 0,-5.925 5.9499,0 0,5.925 -5.9499,0 z m 7.075,0 0,-5.925 5.95,0 0,5.925 -5.95,0 z m 7.1,0 0,-5.925 5.95,0 0,5.925 -5.95,0 z m 21.25,0 0,-5.925 5.95,0 0,5.925 -5.95,0 z m 7.0999,0 0,-5.925 5.95,0 0,5.925 -5.95,0 z m 21.2501,0 0,-5.925 5.95,0 0,5.925 -5.95,0 z m 7.1,0 0,-5.925 5.925,0 0,5.925 -5.925,0 z m 7.075,0 0,-5.925 5.95,0 0,5.925 -5.95,0 z m 21.05,0 0,-5.925 5.95,0 0,5.925 -5.95,0 z m 7.0749,0 0,-5.925 5.95,0 0,5.925 -5.95,0 z m 7.1,0 0,-5.925 5.95,0 0,5.925 -5.95,0 z m 21.25,0 0,-5.925 5.95,0 0,5.925 -5.95,0 z m 7.1,0 0,-5.925 5.95,0 0,5.925 -5.95,0 z m 21.25,0 0,-5.925 5.94997,0 0,5.925 -5.94997,0 z m 7.09997,0 0,-5.925 5.9251,0 0,5.925 -5.9251,0 z m 7.075,0 0,-5.925 5.9501,0 0,5.925 -5.9501,0 z m -501.94987,-7.075 0,-5.95 5.95,0 0,5.95 -5.95,0 z m 7.075,0 0,-5.95 5.95,0 0,5.95 -5.95,0 z m 7.1,0 0,-5.95 5.95,0 0,5.95 -5.95,0 z m 7.075,0 0,-5.95 5.95,0 0,5.95 -5.95,0 z m 7.1,0 0,-5.95 5.95,0 0,5.95 -5.95,0 z m 7.075,0 0,-5.95 5.95,0 0,5.95 -5.95,0 z m 7.1,0 0,-5.95 5.95,0 0,5.95 -5.95,0 z m 7.075,0 0,-5.95 5.95,0 0,5.95 -5.95,0 z m 7.1,0 0,-5.95 5.95,0 0,5.95 -5.95,0 z m 7.075,0 0,-5.95 5.95,0 0,5.95 -5.95,0 z m 7.1,0 0,-5.95 5.925,0 0,5.95 -5.925,0 z m 7.075,0 0,-5.95 5.95,0 0,5.95 -5.95,0 z m 247.05,0 0,-5.95 5.9499,0 0,5.95 -5.9499,0 z m 7.075,0 0,-5.95 5.95,0 0,5.95 -5.95,0 z m 7.1,0 0,-5.95 5.95,0 0,5.95 -5.95,0 z m 7.0749,0 0,-5.95 5.9501,0 0,5.95 -5.9501,0 z m 7.1,0 0,-5.95 5.9501,0 0,5.95 -5.9501,0 z m 7.0751,0 0,-5.95 5.95,0 0,5.95 -5.95,0 z m 7.0999,0 0,-5.95 5.95,0 0,5.95 -5.95,0 z m 7.0751,0 0,-5.95 5.9499,0 0,5.95 -5.9499,0 z m 7.1,0 0,-5.95 5.9499,0 0,5.95 -5.9499,0 z m 7.0749,0 0,-5.95 5.95,0 0,5.95 -5.95,0 z m 7.1,0 0,-5.95 5.9251,0 0,5.95 -5.9251,0 z m 7.075,0 0,-5.95 5.9501,0 0,5.95 -5.9501,0 z m 21.0501,0 0,-5.95 5.9499,0 0,5.95 -5.9499,0 z m 7.0749,0 0,-5.95 5.95,0 0,5.95 -5.95,0 z m 7.1,0 0,-5.95 5.95,0 0,5.95 -5.95,0 z m 7.075,0 0,-5.95 5.9501,0 0,5.95 -5.9501,0 z m 7.1,0 0,-5.95 5.9501,0 0,5.95 -5.9501,0 z m 7.075,0 0,-5.95 5.95,0 0,5.95 -5.95,0 z m 7.1,0 0,-5.95 5.95,0 0,5.95 -5.95,0 z m 7.0751,0 0,-5.95 5.9499,0 0,5.95 -5.9499,0 z m 7.1,0 0,-5.95 5.9499,0 0,5.95 -5.9499,0 z m 7.0749,0 0,-5.95 5.94997,0 0,5.95 -5.94997,0 z m 7.09997,0 0,-5.95 5.9251,0 0,5.95 -5.9251,0 z m 7.075,0 0,-5.95 5.9501,0 0,5.95 -5.9501,0 z m -480.69987,-7.075 0,-5.95 5.95,0 0,5.95 -5.95,0 z m 7.1,0 0,-5.95 5.95,0 0,5.95 -5.95,0 z m 21.25,0 0,-5.95 5.95,0 0,5.95 -5.95,0 z m 7.1,0 0,-5.95 5.95,0 0,5.95 -5.95,0 z m 289.5499,0 0,-5.95 5.9501,0 0,5.95 -5.9501,0 z m 7.1,0 0,-5.95 5.9501,0 0,5.95 -5.9501,0 z m 21.2501,0 0,-5.95 5.9499,0 0,5.95 -5.9499,0 z m 7.1,0 0,-5.95 5.9499,0 0,5.95 -5.9499,0 z m 63.5499,0 0,-5.95 5.9501,0 0,5.95 -5.9501,0 z m 7.1,0 0,-5.95 5.9501,0 0,5.95 -5.9501,0 z m 21.2501,0 0,-5.95 5.9499,0 0,5.95 -5.9499,0 z m 7.1,0 0,-5.95 5.9499,0 0,5.95 -5.9499,0 z m -466.525,-7.1 0,-5.95 5.95,0 0,5.95 -5.95,0 z m 7.075,0 0,-5.95 5.95,0 0,5.95 -5.95,0 z m 14.175,0 0,-5.95 5.95,0 0,5.95 -5.95,0 z m 7.1,0 0,-5.95 5.95,0 0,5.95 -5.95,0 z m 14.175,0 0,-5.95 5.95,0 0,5.95 -5.95,0 z m 7.075,0 0,-5.95 5.95,0 0,5.95 -5.95,0 z m 275.4,0 0,-5.95 5.95,0 0,5.95 -5.95,0 z m 7.0749,0 0,-5.95 5.9501,0 0,5.95 -5.9501,0 z m 14.1751,0 0,-5.95 5.95,0 0,5.95 -5.95,0 z m 7.0999,0 0,-5.95 5.95,0 0,5.95 -5.95,0 z m 14.1751,0 0,-5.95 5.9499,0 0,5.95 -5.9499,0 z m 7.0749,0 0,-5.95 5.95,0 0,5.95 -5.95,0 z m 49.4,0 0,-5.95 5.95,0 0,5.95 -5.95,0 z m 7.075,0 0,-5.95 5.9501,0 0,5.95 -5.9501,0 z m 14.175,0 0,-5.95 5.95,0 0,5.95 -5.95,0 z m 7.1,0 0,-5.95 5.95,0 0,5.95 -5.95,0 z m 14.1751,0 0,-5.95 5.9499,0 0,5.95 -5.9499,0 z m 7.0749,0 0,-5.95 5.94997,0 0,5.95 -5.94997,0 z m -487.7749,-7.075 0,-5.95 5.95,0 0,5.95 -5.95,0 z m 7.075,0 0,-5.95 5.95,0 0,5.95 -5.95,0 z m 63.8,0 0,-5.95 5.925,0 0,5.95 -5.925,0 z m 7.075,0 0,-5.95 5.95,0 0,5.95 -5.95,0 z m 247.05,0 0,-5.95 5.9499,0 0,5.95 -5.9499,0 z m 7.075,0 0,-5.95 5.95,0 0,5.95 -5.95,0 z m 63.7999,0 0,-5.95 5.9251,0 0,5.95 -5.9251,0 z m 7.075,0 0,-5.95 5.9501,0 0,5.95 -5.9501,0 z m 21.0501,0 0,-5.95 5.9499,0 0,5.95 -5.9499,0 z m 7.0749,0 0,-5.95 5.95,0 0,5.95 -5.95,0 z m 63.79997,0 0,-5.95 5.9251,0 0,5.95 -5.9251,0 z m 7.075,0 0,-5.95 5.9501,0 0,5.95 -5.9501,0 z m -923.499875,-53.675 c -6.6135,0 -12,-5.38659 -12,-12 l 0,-79 c 0,-4.1659 2.1399,-7.84742 5.375,-10 -3.2351,-2.15258 -5.375,-5.8341 -5.375,-10 l 0,-79 c 0,-4.16591 2.1399,-7.84742 5.375,-10 -3.2351,-2.15258 -5.375,-5.8341 -5.375,-10 l 0,-79 c 0,-6.61341 5.3865,-12 12,-12 l 79.000005,0 c 4.1659,0 7.8474,2.13997 10,5.375 2.1525,-3.23503 5.834,-5.375 10,-5.375 l 79,0 c 4.1659,0 7.8474,2.13997 10,5.375 2.1525,-3.23503 5.834,-5.375 10,-5.375 l 79,0 c 6.6134,0 12,5.38659 12,12 l 0,79 c 0,4.1653 -2.1408,7.84729 -5.375,10 3.2342,2.15271 5.375,5.8347 5.375,10 l 0,79 c 0,4.1653 -2.1408,7.84729 -5.375,10 3.2342,2.15271 5.375,5.8347 5.375,10 l 0,79 c 0,6.61341 -5.3866,12 -12,12 l -79,0 c -4.1653,0 -7.8473,-2.14077 -10,-5.375 -2.1528,3.23423 -5.8348,5.375 -10,5.375 l -79,0 c -4.1653,0 -7.8473,-2.14077 -10,-5.375 -2.1528,3.23423 -5.8348,5.375 -10,5.375 l -79.000005,0 z m 325.000005,0 c -6.6135,0 -12,-5.38659 -12,-12 l 0,-79 c 0,-4.1659 2.1399,-7.84742 5.375,-10 -3.2351,-2.15258 -5.375,-5.8341 -5.375,-10 l 0,-79 c 0,-4.16591 2.1399,-7.84742 5.375,-10 -3.2351,-2.15258 -5.375,-5.8341 -5.375,-10 l 0,-79 c 0,-6.61341 5.3865,-12 12,-12 l 79,0 c 4.1659,0 7.8474,2.13997 10,5.375 2.1525,-3.23503 5.834,-5.375 10,-5.375 l 79,0 c 4.1659,0 7.8474,2.13997 10,5.375 2.1525,-3.23503 5.834,-5.375 10,-5.375 l 79,0 c 6.6134,0 12,5.38659 12,12 l 0,79 c 0,4.1653 -2.1408,7.84729 -5.375,10 3.2342,2.15271 5.375,5.8347 5.375,10 l 0,79 c 0,4.1653 -2.1408,7.84729 -5.375,10 3.2342,2.15271 5.375,5.8347 5.375,10 l 0,79 c 0,6.61341 -5.3866,12 -12,12 l -79,0 c -4.1653,0 -7.8473,-2.14077 -10,-5.375 -2.1528,3.23423 -5.8348,5.375 -10,5.375 l -79,0 c -4.1653,0 -7.8473,-2.14077 -10,-5.375 -2.1528,3.23423 -5.8348,5.375 -10,5.375 l -79,0 z m -325.000005,-4 79.000005,0 c 4.4665,0 8,-3.53341 8,-8 l 0,-79 c 0,-4.46659 -3.5335,-8 -8,-8 l -79.000005,0 c -4.4666,0 -8,3.53341 -8,8 l 0,79 c 0,4.46659 3.5334,8 8,8 z m 99.000005,0 79,0 c 4.4665,0 8,-3.53341 8,-8 l 0,-79 c 0,-4.46659 -3.5335,-8 -8,-8 l -79,0 c -4.4666,0 -8,3.53341 -8,8 l 0,79 c 0,4.46659 3.5334,8 8,8 z m 99,0 79,0 c 4.4665,0 8,-3.53341 8,-8 l 0,-79 c 0,-4.46659 -3.5335,-8 -8,-8 l -79,0 c -4.4666,0 -8,3.53341 -8,8 l 0,79 c 0,4.46659 3.5334,8 8,8 z m 127,0 79,0 c 4.4665,0 8,-3.53341 8,-8 l 0,-79 c 0,-4.46659 -3.5335,-8 -8,-8 l -79,0 c -4.4666,0 -8,3.53341 -8,8 l 0,79 c 0,4.46659 3.5334,8 8,8 z m 99,0 79,0 c 4.4665,0 8,-3.53341 8,-8 l 0,-79 c 0,-4.46659 -3.5335,-8 -8,-8 l -79,0 c -4.4666,0 -8,3.53341 -8,8 l 0,79 c 0,4.46659 3.5334,8 8,8 z m 99,0 79,0 c 4.4665,0 8,-3.53341 8,-8 l 0,-79 c 0,-4.46659 -3.5335,-8 -8,-8 l -79,0 c -4.4666,0 -8,3.53341 -8,8 l 0,79 c 0,4.46659 3.5334,8 8,8 z m -497.1,-19.725 0,-5.95 5.95,0 0,5.95 -5.95,0 z m 7.075,0 0,-5.95 5.95,0 0,5.95 -5.95,0 z m 7.1,0 0,-5.95 5.95,0 0,5.95 -5.95,0 z m 7.075,0 0,-5.95 5.95,0 0,5.95 -5.95,0 z m 402.75,0 0,-5.95 5.95,0 0,5.95 -5.95,0 z m 7.075,0 0,-5.95 5.95,0 0,5.95 -5.95,0 z m 7.1,0 0,-5.95 5.95,0 0,5.95 -5.95,0 z m 7.075,0 0,-5.95 5.95,0 0,5.95 -5.95,0 z m -466.525005,-7.1 0,-5.95 5.95,0 0,5.95 -5.95,0 z m 7.1,0 0,-5.95 5.950005,0 0,5.95 -5.950005,0 z m 7.075005,0 0,-5.95 5.95,0 0,5.95 -5.95,0 z m 7.1,0 0,-5.95 5.95,0 0,5.95 -5.95,0 z m 7.075,0 0,-5.95 5.95,0 0,5.95 -5.95,0 z m 7.1,0 0,-5.95 5.95,0 0,5.95 -5.95,0 z m 7.075,0 0,-5.95 5.95,0 0,5.95 -5.95,0 z m 7.1,0 0,-5.95 5.95,0 0,5.95 -5.95,0 z m 7.075,0 0,-5.95 5.95,0 0,5.95 -5.95,0 z m 7.1,0 0,-5.95 5.925,0 0,5.95 -5.925,0 z m 360.2,0 0,-5.95 5.95,0 0,5.95 -5.95,0 z m 7.1,0 0,-5.95 5.95,0 0,5.95 -5.95,0 z m 7.075,0 0,-5.95 5.95,0 0,5.95 -5.95,0 z m 7.1,0 0,-5.95 5.95,0 0,5.95 -5.95,0 z m 7.075,0 0,-5.95 5.95,0 0,5.95 -5.95,0 z m 7.1,0 0,-5.95 5.95,0 0,5.95 -5.95,0 z m 7.075,0 0,-5.95 5.95,0 0,5.95 -5.95,0 z m 7.1,0 0,-5.95 5.95,0 0,5.95 -5.95,0 z m 7.075,0 0,-5.95 5.95,0 0,5.95 -5.95,0 z m 7.1,0 0,-5.95 5.925,0 0,5.95 -5.925,0 z m -494.875005,-7.075 0,-5.95 5.95,0 0,5.95 -5.95,0 z m 7.075,0 0,-5.95 5.95,0 0,5.95 -5.95,0 z m 7.1,0 0,-5.95 5.950005,0 0,5.95 -5.950005,0 z m 7.075005,0 0,-5.95 5.95,0 0,5.95 -5.95,0 z m 7.1,0 0,-5.95 5.95,0 0,5.95 -5.95,0 z m 7.075,0 0,-5.95 5.95,0 0,5.95 -5.95,0 z m 7.1,0 0,-5.95 5.95,0 0,5.95 -5.95,0 z m 7.075,0 0,-5.95 5.95,0 0,5.95 -5.95,0 z m 7.1,0 0,-5.95 5.95,0 0,5.95 -5.95,0 z m 7.075,0 0,-5.95 5.95,0 0,5.95 -5.95,0 z m 7.1,0 0,-5.95 5.925,0 0,5.95 -5.925,0 z m 7.075,0 0,-5.95 5.95,0 0,5.95 -5.95,0 z m 346.05,0 0,-5.95 5.95,0 0,5.95 -5.95,0 z m 7.075,0 0,-5.95 5.95,0 0,5.95 -5.95,0 z m 7.1,0 0,-5.95 5.95,0 0,5.95 -5.95,0 z m 7.075,0 0,-5.95 5.95,0 0,5.95 -5.95,0 z m 7.1,0 0,-5.95 5.95,0 0,5.95 -5.95,0 z m 7.075,0 0,-5.95 5.95,0 0,5.95 -5.95,0 z m 7.1,0 0,-5.95 5.95,0 0,5.95 -5.95,0 z m 7.075,0 0,-5.95 5.95,0 0,5.95 -5.95,0 z m 7.1,0 0,-5.95 5.95,0 0,5.95 -5.95,0 z m 7.075,0 0,-5.95 5.95,0 0,5.95 -5.95,0 z m 7.1,0 0,-5.95 5.925,0 0,5.95 -5.925,0 z m 7.075,0 0,-5.95 5.95,0 0,5.95 -5.95,0 z m -501.950005,-7.1 0,-5.925 5.95,0 0,5.925 -5.95,0 z m 7.075,0 0,-5.925 5.95,0 0,5.925 -5.95,0 z m 7.1,0 0,-5.925 5.950005,0 0,5.925 -5.950005,0 z m 21.250005,0 0,-5.925 5.95,0 0,5.925 -5.95,0 z m 7.1,0 0,-5.925 5.95,0 0,5.925 -5.95,0 z m 21.25,0 0,-5.925 5.95,0 0,5.925 -5.95,0 z m 7.1,0 0,-5.925 5.925,0 0,5.925 -5.925,0 z m 7.075,0 0,-5.925 5.95,0 0,5.925 -5.95,0 z m 346.05,0 0,-5.925 5.95,0 0,5.925 -5.95,0 z m 7.075,0 0,-5.925 5.95,0 0,5.925 -5.95,0 z m 7.1,0 0,-5.925 5.95,0 0,5.925 -5.95,0 z m 21.25,0 0,-5.925 5.95,0 0,5.925 -5.95,0 z m 7.1,0 0,-5.925 5.95,0 0,5.925 -5.95,0 z m 21.25,0 0,-5.925 5.95,0 0,5.925 -5.95,0 z m 7.1,0 0,-5.925 5.925,0 0,5.925 -5.925,0 z m 7.075,0 0,-5.925 5.95,0 0,5.925 -5.95,0 z m -501.950005,-7.075 0,-5.95 5.95,0 0,5.95 -5.95,0 z m 7.075,0 0,-5.95 5.95,0 0,5.95 -5.95,0 z m 7.1,0 0,-5.95 5.950005,0 0,5.95 -5.950005,0 z m 7.075005,0 0,-5.95 5.95,0 0,5.95 -5.95,0 z m 7.1,0 0,-5.95 5.95,0 0,5.95 -5.95,0 z m 7.075,0 0,-5.95 5.95,0 0,5.95 -5.95,0 z m 7.1,0 0,-5.95 5.95,0 0,5.95 -5.95,0 z m 7.075,0 0,-5.95 5.95,0 0,5.95 -5.95,0 z m 7.1,0 0,-5.95 5.95,0 0,5.95 -5.95,0 z m 7.075,0 0,-5.95 5.95,0 0,5.95 -5.95,0 z m 7.1,0 0,-5.95 5.925,0 0,5.95 -5.925,0 z m 7.075,0 0,-5.95 5.95,0 0,5.95 -5.95,0 z m 346.05,0 0,-5.95 5.95,0 0,5.95 -5.95,0 z m 7.075,0 0,-5.95 5.95,0 0,5.95 -5.95,0 z m 7.1,0 0,-5.95 5.95,0 0,5.95 -5.95,0 z m 7.075,0 0,-5.95 5.95,0 0,5.95 -5.95,0 z m 7.1,0 0,-5.95 5.95,0 0,5.95 -5.95,0 z m 7.075,0 0,-5.95 5.95,0 0,5.95 -5.95,0 z m 7.1,0 0,-5.95 5.95,0 0,5.95 -5.95,0 z m 7.075,0 0,-5.95 5.95,0 0,5.95 -5.95,0 z m 7.1,0 0,-5.95 5.95,0 0,5.95 -5.95,0 z m 7.075,0 0,-5.95 5.95,0 0,5.95 -5.95,0 z m 7.1,0 0,-5.95 5.925,0 0,5.95 -5.925,0 z m 7.075,0 0,-5.95 5.95,0 0,5.95 -5.95,0 z m -480.7,-7.075 0,-5.95 5.95,0 0,5.95 -5.95,0 z m 7.1,0 0,-5.95 5.95,0 0,5.95 -5.95,0 z m 21.25,0 0,-5.95 5.95,0 0,5.95 -5.95,0 z m 7.1,0 0,-5.95 5.95,0 0,5.95 -5.95,0 z m 388.55,0 0,-5.95 5.95,0 0,5.95 -5.95,0 z m 7.1,0 0,-5.95 5.95,0 0,5.95 -5.95,0 z m 21.25,0 0,-5.95 5.95,0 0,5.95 -5.95,0 z m 7.1,0 0,-5.95 5.95,0 0,5.95 -5.95,0 z m -466.525005,-7.1 0,-5.95 5.950005,0 0,5.95 -5.950005,0 z m 7.075005,0 0,-5.95 5.95,0 0,5.95 -5.95,0 z m 14.175,0 0,-5.95 5.95,0 0,5.95 -5.95,0 z m 7.1,0 0,-5.95 5.95,0 0,5.95 -5.95,0 z m 14.175,0 0,-5.95 5.95,0 0,5.95 -5.95,0 z m 7.075,0 0,-5.95 5.95,0 0,5.95 -5.95,0 z m 374.4,0 0,-5.95 5.95,0 0,5.95 -5.95,0 z m 7.075,0 0,-5.95 5.95,0 0,5.95 -5.95,0 z m 14.175,0 0,-5.95 5.95,0 0,5.95 -5.95,0 z m 7.1,0 0,-5.95 5.95,0 0,5.95 -5.95,0 z m 14.175,0 0,-5.95 5.95,0 0,5.95 -5.95,0 z m 7.075,0 0,-5.95 5.95,0 0,5.95 -5.95,0 z m -487.775005,-7.075 0,-5.95 5.95,0 0,5.95 -5.95,0 z m 7.075,0 0,-5.95 5.95,0 0,5.95 -5.95,0 z m 63.800005,0 0,-5.95 5.925,0 0,5.95 -5.925,0 z m 7.075,0 0,-5.95 5.95,0 0,5.95 -5.95,0 z m 346.05,0 0,-5.95 5.95,0 0,5.95 -5.95,0 z m 7.075,0 0,-5.95 5.95,0 0,5.95 -5.95,0 z m 63.8,0 0,-5.95 5.925,0 0,5.95 -5.925,0 z m 7.075,0 0,-5.95 5.95,0 0,5.95 -5.95,0 z m -410.5,-24.3 c 0.8879,-1.33443 2.0405,-2.48708 3.375,-3.375 -1.334,-0.8876 -2.4873,-2.04118 -3.375,-3.375 -0.8875,1.33333 -2.0417,2.48753 -3.375,3.375 1.3338,0.88779 2.4874,2.04106 3.375,3.375 z m 99,0 c 0.8879,-1.33443 2.0405,-2.48708 3.375,-3.375 -1.334,-0.8876 -2.4873,-2.04118 -3.375,-3.375 -0.8875,1.33333 -2.0417,2.48753 -3.375,3.375 1.3338,0.88779 2.4874,2.04106 3.375,3.375 z m 226,0 c 0.8879,-1.33443 2.0405,-2.48708 3.375,-3.375 -1.334,-0.8876 -2.4873,-2.04118 -3.375,-3.375 -0.8875,1.33333 -2.0417,2.48753 -3.375,3.375 1.3338,0.88779 2.4874,2.04106 3.375,3.375 z m 99,0 c 0.8879,-1.33443 2.0405,-2.48708 3.375,-3.375 -1.334,-0.8876 -2.4873,-2.04118 -3.375,-3.375 -0.8875,1.33333 -2.0417,2.48753 -3.375,3.375 1.3338,0.88779 2.4874,2.04106 3.375,3.375 z m -513.000005,-5.375 79.000005,0 c 4.4665,0 8,-3.53341 8,-8 l 0,-79 c 0,-4.46659 -3.5335,-8 -8,-8 l -79.000005,0 c -4.4666,0 -8,3.53341 -8,8 l 0,79 c 0,4.46659 3.5334,8 8,8 z m 99.000005,0 79,0 c 4.4665,0 8,-3.53341 8,-8 l 0,-79 c 0,-4.46659 -3.5335,-8 -8,-8 l -79,0 c -4.4666,0 -8,3.53341 -8,8 l 0,79 c 0,4.46659 3.5334,8 8,8 z m 99,0 79,0 c 4.4665,0 8,-3.53341 8,-8 l 0,-79 c 0,-4.46659 -3.5335,-8 -8,-8 l -79,0 c -4.4666,0 -8,3.53341 -8,8 l 0,79 c 0,4.46659 3.5334,8 8,8 z m 127,0 79,0 c 4.4665,0 8,-3.53341 8,-8 l 0,-79 c 0,-4.46659 -3.5335,-8 -8,-8 l -79,0 c -4.4666,0 -8,3.53341 -8,8 l 0,79 c 0,4.46659 3.5334,8 8,8 z m 99,0 79,0 c 4.4665,0 8,-3.53341 8,-8 l 0,-79 c 0,-4.46659 -3.5335,-8 -8,-8 l -79,0 c -4.4666,0 -8,3.53341 -8,8 l 0,79 c 0,4.46659 3.5334,8 8,8 z m 99,0 79,0 c 4.4665,0 8,-3.53341 8,-8 l 0,-79 c 0,-4.46659 -3.5335,-8 -8,-8 l -79,0 c -4.4666,0 -8,3.53341 -8,8 l 0,79 c 0,4.46659 3.5334,8 8,8 z m -398.1,-19.725 0,-5.95 5.95,0 0,5.95 -5.95,0 z m 7.075,0 0,-5.95 5.95,0 0,5.95 -5.95,0 z m 7.1,0 0,-5.95 5.95,0 0,5.95 -5.95,0 z m 7.075,0 0,-5.95 5.95,0 0,5.95 -5.95,0 z m 77.75,0 0,-5.95 5.95,0 0,5.95 -5.95,0 z m 7.075,0 0,-5.95 5.95,0 0,5.95 -5.95,0 z m 7.1,0 0,-5.95 5.95,0 0,5.95 -5.95,0 z m 7.075,0 0,-5.95 5.95,0 0,5.95 -5.95,0 z m 303.75,0 0,-5.95 5.95,0 0,5.95 -5.95,0 z m 7.075,0 0,-5.95 5.95,0 0,5.95 -5.95,0 z m 7.1,0 0,-5.95 5.95,0 0,5.95 -5.95,0 z m 7.075,0 0,-5.95 5.95,0 0,5.95 -5.95,0 z m -466.525,-7.1 0,-5.95 5.95,0 0,5.95 -5.95,0 z m 7.1,0 0,-5.95 5.95,0 0,5.95 -5.95,0 z m 7.075,0 0,-5.95 5.95,0 0,5.95 -5.95,0 z m 7.1,0 0,-5.95 5.95,0 0,5.95 -5.95,0 z m 7.075,0 0,-5.95 5.95,0 0,5.95 -5.95,0 z m 7.1,0 0,-5.95 5.95,0 0,5.95 -5.95,0 z m 7.075,0 0,-5.95 5.95,0 0,5.95 -5.95,0 z m 7.1,0 0,-5.95 5.95,0 0,5.95 -5.95,0 z m 7.075,0 0,-5.95 5.95,0 0,5.95 -5.95,0 z m 7.1,0 0,-5.95 5.925,0 0,5.95 -5.925,0 z m 35.2,0 0,-5.95 5.95,0 0,5.95 -5.95,0 z m 7.1,0 0,-5.95 5.95,0 0,5.95 -5.95,0 z m 7.075,0 0,-5.95 5.95,0 0,5.95 -5.95,0 z m 7.1,0 0,-5.95 5.95,0 0,5.95 -5.95,0 z m 7.075,0 0,-5.95 5.95,0 0,5.95 -5.95,0 z m 7.1,0 0,-5.95 5.95,0 0,5.95 -5.95,0 z m 7.075,0 0,-5.95 5.95,0 0,5.95 -5.95,0 z m 7.1,0 0,-5.95 5.95,0 0,5.95 -5.95,0 z m 7.075,0 0,-5.95 5.95,0 0,5.95 -5.95,0 z m 7.1,0 0,-5.95 5.925,0 0,5.95 -5.925,0 z m 261.2,0 0,-5.95 5.95,0 0,5.95 -5.95,0 z m 7.1,0 0,-5.95 5.95,0 0,5.95 -5.95,0 z m 7.075,0 0,-5.95 5.95,0 0,5.95 -5.95,0 z m 7.1,0 0,-5.95 5.95,0 0,5.95 -5.95,0 z m 7.075,0 0,-5.95 5.95,0 0,5.95 -5.95,0 z m 7.1,0 0,-5.95 5.95,0 0,5.95 -5.95,0 z m 7.075,0 0,-5.95 5.95,0 0,5.95 -5.95,0 z m 7.1,0 0,-5.95 5.95,0 0,5.95 -5.95,0 z m 7.075,0 0,-5.95 5.95,0 0,5.95 -5.95,0 z m 7.1,0 0,-5.95 5.925,0 0,5.95 -5.925,0 z m -494.875,-7.075 0,-5.95 5.95,0 0,5.95 -5.95,0 z m 7.075,0 0,-5.95 5.95,0 0,5.95 -5.95,0 z m 7.1,0 0,-5.95 5.95,0 0,5.95 -5.95,0 z m 7.075,0 0,-5.95 5.95,0 0,5.95 -5.95,0 z m 7.1,0 0,-5.95 5.95,0 0,5.95 -5.95,0 z m 7.075,0 0,-5.95 5.95,0 0,5.95 -5.95,0 z m 7.1,0 0,-5.95 5.95,0 0,5.95 -5.95,0 z m 7.075,0 0,-5.95 5.95,0 0,5.95 -5.95,0 z m 7.1,0 0,-5.95 5.95,0 0,5.95 -5.95,0 z m 7.075,0 0,-5.95 5.95,0 0,5.95 -5.95,0 z m 7.1,0 0,-5.95 5.925,0 0,5.95 -5.925,0 z m 7.075,0 0,-5.95 5.95,0 0,5.95 -5.95,0 z m 21.05,0 0,-5.95 5.95,0 0,5.95 -5.95,0 z m 7.075,0 0,-5.95 5.95,0 0,5.95 -5.95,0 z m 7.1,0 0,-5.95 5.95,0 0,5.95 -5.95,0 z m 7.075,0 0,-5.95 5.95,0 0,5.95 -5.95,0 z m 7.1,0 0,-5.95 5.95,0 0,5.95 -5.95,0 z m 7.075,0 0,-5.95 5.95,0 0,5.95 -5.95,0 z m 7.1,0 0,-5.95 5.95,0 0,5.95 -5.95,0 z m 7.075,0 0,-5.95 5.95,0 0,5.95 -5.95,0 z m 7.1,0 0,-5.95 5.95,0 0,5.95 -5.95,0 z m 7.075,0 0,-5.95 5.95,0 0,5.95 -5.95,0 z m 7.1,0 0,-5.95 5.925,0 0,5.95 -5.925,0 z m 7.075,0 0,-5.95 5.95,0 0,5.95 -5.95,0 z m 247.05,0 0,-5.95 5.95,0 0,5.95 -5.95,0 z m 7.075,0 0,-5.95 5.95,0 0,5.95 -5.95,0 z m 7.1,0 0,-5.95 5.95,0 0,5.95 -5.95,0 z m 7.075,0 0,-5.95 5.95,0 0,5.95 -5.95,0 z m 7.1,0 0,-5.95 5.95,0 0,5.95 -5.95,0 z m 7.075,0 0,-5.95 5.95,0 0,5.95 -5.95,0 z m 7.1,0 0,-5.95 5.95,0 0,5.95 -5.95,0 z m 7.075,0 0,-5.95 5.95,0 0,5.95 -5.95,0 z m 7.1,0 0,-5.95 5.95,0 0,5.95 -5.95,0 z m 7.075,0 0,-5.95 5.95,0 0,5.95 -5.95,0 z m 7.1,0 0,-5.95 5.925,0 0,5.95 -5.925,0 z m 7.075,0 0,-5.95 5.95,0 0,5.95 -5.95,0 z m -501.95,-7.1 0,-5.925 5.95,0 0,5.925 -5.95,0 z m 7.075,0 0,-5.925 5.95,0 0,5.925 -5.95,0 z m 7.1,0 0,-5.925 5.95,0 0,5.925 -5.95,0 z m 21.25,0 0,-5.925 5.95,0 0,5.925 -5.95,0 z m 7.1,0 0,-5.925 5.95,0 0,5.925 -5.95,0 z m 21.25,0 0,-5.925 5.95,0 0,5.925 -5.95,0 z m 7.1,0 0,-5.925 5.925,0 0,5.925 -5.925,0 z m 7.075,0 0,-5.925 5.95,0 0,5.925 -5.95,0 z m 21.05,0 0,-5.925 5.95,0 0,5.925 -5.95,0 z m 7.075,0 0,-5.925 5.95,0 0,5.925 -5.95,0 z m 7.1,0 0,-5.925 5.95,0 0,5.925 -5.95,0 z m 21.25,0 0,-5.925 5.95,0 0,5.925 -5.95,0 z m 7.1,0 0,-5.925 5.95,0 0,5.925 -5.95,0 z m 21.25,0 0,-5.925 5.95,0 0,5.925 -5.95,0 z m 7.1,0 0,-5.925 5.925,0 0,5.925 -5.925,0 z m 7.075,0 0,-5.925 5.95,0 0,5.925 -5.95,0 z m 247.05,0 0,-5.925 5.95,0 0,5.925 -5.95,0 z m 7.075,0 0,-5.925 5.95,0 0,5.925 -5.95,0 z m 7.1,0 0,-5.925 5.95,0 0,5.925 -5.95,0 z m 21.25,0 0,-5.925 5.95,0 0,5.925 -5.95,0 z m 7.1,0 0,-5.925 5.95,0 0,5.925 -5.95,0 z m 21.25,0 0,-5.925 5.95,0 0,5.925 -5.95,0 z m 7.1,0 0,-5.925 5.925,0 0,5.925 -5.925,0 z m 7.075,0 0,-5.925 5.95,0 0,5.925 -5.95,0 z m -501.95,-7.075 0,-5.95 5.95,0 0,5.95 -5.95,0 z m 7.075,0 0,-5.95 5.95,0 0,5.95 -5.95,0 z m 7.1,0 0,-5.95 5.95,0 0,5.95 -5.95,0 z m 7.075,0 0,-5.95 5.95,0 0,5.95 -5.95,0 z m 7.1,0 0,-5.95 5.95,0 0,5.95 -5.95,0 z m 7.075,0 0,-5.95 5.95,0 0,5.95 -5.95,0 z m 7.1,0 0,-5.95 5.95,0 0,5.95 -5.95,0 z m 7.075,0 0,-5.95 5.95,0 0,5.95 -5.95,0 z m 7.1,0 0,-5.95 5.95,0 0,5.95 -5.95,0 z m 7.075,0 0,-5.95 5.95,0 0,5.95 -5.95,0 z m 7.1,0 0,-5.95 5.925,0 0,5.95 -5.925,0 z m 7.075,0 0,-5.95 5.95,0 0,5.95 -5.95,0 z m 21.05,0 0,-5.95 5.95,0 0,5.95 -5.95,0 z m 7.075,0 0,-5.95 5.95,0 0,5.95 -5.95,0 z m 7.1,0 0,-5.95 5.95,0 0,5.95 -5.95,0 z m 7.075,0 0,-5.95 5.95,0 0,5.95 -5.95,0 z m 7.1,0 0,-5.95 5.95,0 0,5.95 -5.95,0 z m 7.075,0 0,-5.95 5.95,0 0,5.95 -5.95,0 z m 7.1,0 0,-5.95 5.95,0 0,5.95 -5.95,0 z m 7.075,0 0,-5.95 5.95,0 0,5.95 -5.95,0 z m 7.1,0 0,-5.95 5.95,0 0,5.95 -5.95,0 z m 7.075,0 0,-5.95 5.95,0 0,5.95 -5.95,0 z m 7.1,0 0,-5.95 5.925,0 0,5.95 -5.925,0 z m 7.075,0 0,-5.95 5.95,0 0,5.95 -5.95,0 z m 247.05,0 0,-5.95 5.95,0 0,5.95 -5.95,0 z m 7.075,0 0,-5.95 5.95,0 0,5.95 -5.95,0 z m 7.1,0 0,-5.95 5.95,0 0,5.95 -5.95,0 z m 7.075,0 0,-5.95 5.95,0 0,5.95 -5.95,0 z m 7.1,0 0,-5.95 5.95,0 0,5.95 -5.95,0 z m 7.075,0 0,-5.95 5.95,0 0,5.95 -5.95,0 z m 7.1,0 0,-5.95 5.95,0 0,5.95 -5.95,0 z m 7.075,0 0,-5.95 5.95,0 0,5.95 -5.95,0 z m 7.1,0 0,-5.95 5.95,0 0,5.95 -5.95,0 z m 7.075,0 0,-5.95 5.95,0 0,5.95 -5.95,0 z m 7.1,0 0,-5.95 5.925,0 0,5.95 -5.925,0 z m 7.075,0 0,-5.95 5.95,0 0,5.95 -5.95,0 z m -480.7,-7.075 0,-5.95 5.95,0 0,5.95 -5.95,0 z m 7.1,0 0,-5.95 5.95,0 0,5.95 -5.95,0 z m 21.25,0 0,-5.95 5.95,0 0,5.95 -5.95,0 z m 7.1,0 0,-5.95 5.95,0 0,5.95 -5.95,0 z m 63.55,0 0,-5.95 5.95,0 0,5.95 -5.95,0 z m 7.1,0 0,-5.95 5.95,0 0,5.95 -5.95,0 z m 21.25,0 0,-5.95 5.95,0 0,5.95 -5.95,0 z m 7.1,0 0,-5.95 5.95,0 0,5.95 -5.95,0 z m 289.55,0 0,-5.95 5.95,0 0,5.95 -5.95,0 z m 7.1,0 0,-5.95 5.95,0 0,5.95 -5.95,0 z m 21.25,0 0,-5.95 5.95,0 0,5.95 -5.95,0 z m 7.1,0 0,-5.95 5.95,0 0,5.95 -5.95,0 z m -466.525,-7.1 0,-5.95 5.95,0 0,5.95 -5.95,0 z m 7.075,0 0,-5.95 5.95,0 0,5.95 -5.95,0 z m 14.175,0 0,-5.95 5.95,0 0,5.95 -5.95,0 z m 7.1,0 0,-5.95 5.95,0 0,5.95 -5.95,0 z m 14.175,0 0,-5.95 5.95,0 0,5.95 -5.95,0 z m 7.075,0 0,-5.95 5.95,0 0,5.95 -5.95,0 z m 49.4,0 0,-5.95 5.95,0 0,5.95 -5.95,0 z m 7.075,0 0,-5.95 5.95,0 0,5.95 -5.95,0 z m 14.175,0 0,-5.95 5.95,0 0,5.95 -5.95,0 z m 7.1,0 0,-5.95 5.95,0 0,5.95 -5.95,0 z m 14.175,0 0,-5.95 5.95,0 0,5.95 -5.95,0 z m 7.075,0 0,-5.95 5.95,0 0,5.95 -5.95,0 z m 275.4,0 0,-5.95 5.95,0 0,5.95 -5.95,0 z m 7.075,0 0,-5.95 5.95,0 0,5.95 -5.95,0 z m 14.175,0 0,-5.95 5.95,0 0,5.95 -5.95,0 z m 7.1,0 0,-5.95 5.95,0 0,5.95 -5.95,0 z m 14.175,0 0,-5.95 5.95,0 0,5.95 -5.95,0 z m 7.075,0 0,-5.95 5.95,0 0,5.95 -5.95,0 z m -487.775,-7.075 0,-5.95 5.95,0 0,5.95 -5.95,0 z m 7.075,0 0,-5.95 5.95,0 0,5.95 -5.95,0 z m 63.8,0 0,-5.95 5.925,0 0,5.95 -5.925,0 z m 7.075,0 0,-5.95 5.95,0 0,5.95 -5.95,0 z m 21.05,0 0,-5.95 5.95,0 0,5.95 -5.95,0 z m 7.075,0 0,-5.95 5.95,0 0,5.95 -5.95,0 z m 63.8,0 0,-5.95 5.925,0 0,5.95 -5.925,0 z m 7.075,0 0,-5.95 5.95,0 0,5.95 -5.95,0 z m 247.05,0 0,-5.95 5.95,0 0,5.95 -5.95,0 z m 7.075,0 0,-5.95 5.95,0 0,5.95 -5.95,0 z m 63.8,0 0,-5.95 5.925,0 0,5.95 -5.925,0 z m 7.075,0 0,-5.95 5.95,0 0,5.95 -5.95,0 z m -509.5,-24.3 c 0.8879,-1.33443 2.0405,-2.48708 3.375,-3.375 -1.334,-0.8876 -2.4873,-2.04118 -3.375,-3.375 -0.8875,1.33333 -2.0417,2.48753 -3.375,3.375 1.3338,0.88779 2.4874,2.04105 3.375,3.375 z m 99,0 c 0.8879,-1.33443 2.0405,-2.48708 3.375,-3.375 -1.334,-0.8876 -2.4873,-2.04118 -3.375,-3.375 -0.8875,1.33333 -2.0417,2.48753 -3.375,3.375 1.3338,0.88779 2.4874,2.04105 3.375,3.375 z m 226,0 c 0.8879,-1.33443 2.0405,-2.48708 3.375,-3.375 -1.334,-0.8876 -2.4873,-2.04118 -3.375,-3.375 -0.8875,1.33333 -2.0417,2.48753 -3.375,3.375 1.3338,0.88779 2.4874,2.04105 3.375,3.375 z m 99,0 c 0.8879,-1.33443 2.0405,-2.48708 3.375,-3.375 -1.334,-0.8876 -2.4873,-2.04118 -3.375,-3.375 -0.8875,1.33333 -2.0417,2.48753 -3.375,3.375 1.3338,0.88779 2.4874,2.04105 3.375,3.375 z m -513.000005,-5.375 79.000005,0 c 4.4665,0 8,-3.53341 8,-8 l 0,-79 c 0,-4.46659 -3.5335,-8 -8,-8 l -79.000005,0 c -4.4666,0 -8,3.53341 -8,8 l 0,79 c 0,4.46659 3.5334,8 8,8 z m 99.000005,0 79,0 c 4.4665,0 8,-3.53341 8,-8 l 0,-79 c 0,-4.46659 -3.5335,-8 -8,-8 l -79,0 c -4.4666,0 -8,3.53341 -8,8 l 0,79 c 0,4.46659 3.5334,8 8,8 z m 99,0 79,0 c 4.4665,0 8,-3.53341 8,-8 l 0,-79 c 0,-4.46659 -3.5335,-8 -8,-8 l -79,0 c -4.4666,0 -8,3.53341 -8,8 l 0,79 c 0,4.46659 3.5334,8 8,8 z m 127,0 79,0 c 4.4665,0 8,-3.53341 8,-8 l 0,-79 c 0,-4.46659 -3.5335,-8 -8,-8 l -79,0 c -4.4666,0 -8,3.53341 -8,8 l 0,79 c 0,4.46659 3.5334,8 8,8 z m 99,0 79,0 c 4.4665,0 8,-3.53341 8,-8 l 0,-79 c 0,-4.46659 -3.5335,-8 -8,-8 l -79,0 c -4.4666,0 -8,3.53341 -8,8 l 0,79 c 0,4.46659 3.5334,8 8,8 z m 99,0 79,0 c 4.4665,0 8,-3.53341 8,-8 l 0,-79 c 0,-4.46659 -3.5335,-8 -8,-8 l -79,0 c -4.4666,0 -8,3.53341 -8,8 l 0,79 c 0,4.46659 3.5334,8 8,8 z m -497.1,-19.725 0,-5.95 5.95,0 0,5.95 -5.95,0 z m 7.075,0 0,-5.95 5.95,0 0,5.95 -5.95,0 z m 7.1,0 0,-5.95 5.95,0 0,5.95 -5.95,0 z m 7.075,0 0,-5.95 5.95,0 0,5.95 -5.95,0 z m 77.75,0 0,-5.95 5.95,0 0,5.95 -5.95,0 z m 7.075,0 0,-5.95 5.95,0 0,5.95 -5.95,0 z m 7.1,0 0,-5.95 5.95,0 0,5.95 -5.95,0 z m 7.075,0 0,-5.95 5.95,0 0,5.95 -5.95,0 z m 204.75,0 0,-5.95 5.95,0 0,5.95 -5.95,0 z m 7.075,0 0,-5.95 5.95,0 0,5.95 -5.95,0 z m 7.1,0 0,-5.95 5.95,0 0,5.95 -5.95,0 z m 7.075,0 0,-5.95 5.95,0 0,5.95 -5.95,0 z m 77.75,0 0,-5.95 5.95,0 0,5.95 -5.95,0 z m 7.075,0 0,-5.95 5.95,0 0,5.95 -5.95,0 z m 7.1,0 0,-5.95 5.95,0 0,5.95 -5.95,0 z m 7.075,0 0,-5.95 5.95,0 0,5.95 -5.95,0 z m 77.75,0 0,-5.95 5.95,0 0,5.95 -5.95,0 z m 7.075,0 0,-5.95 5.95,0 0,5.95 -5.95,0 z m 7.1,0 0,-5.95 5.95,0 0,5.95 -5.95,0 z m 7.075,0 0,-5.95 5.95,0 0,5.95 -5.95,0 z m -565.525005,-7.1 0,-5.95 5.95,0 0,5.95 -5.95,0 z m 7.1,0 0,-5.95 5.950005,0 0,5.95 -5.950005,0 z m 7.075005,0 0,-5.95 5.95,0 0,5.95 -5.95,0 z m 7.1,0 0,-5.95 5.95,0 0,5.95 -5.95,0 z m 7.075,0 0,-5.95 5.95,0 0,5.95 -5.95,0 z m 7.1,0 0,-5.95 5.95,0 0,5.95 -5.95,0 z m 7.075,0 0,-5.95 5.95,0 0,5.95 -5.95,0 z m 7.1,0 0,-5.95 5.95,0 0,5.95 -5.95,0 z m 7.075,0 0,-5.95 5.95,0 0,5.95 -5.95,0 z m 7.1,0 0,-5.95 5.925,0 0,5.95 -5.925,0 z m 35.2,0 0,-5.95 5.95,0 0,5.95 -5.95,0 z m 7.1,0 0,-5.95 5.95,0 0,5.95 -5.95,0 z m 7.075,0 0,-5.95 5.95,0 0,5.95 -5.95,0 z m 7.1,0 0,-5.95 5.95,0 0,5.95 -5.95,0 z m 7.075,0 0,-5.95 5.95,0 0,5.95 -5.95,0 z m 7.1,0 0,-5.95 5.95,0 0,5.95 -5.95,0 z m 7.075,0 0,-5.95 5.95,0 0,5.95 -5.95,0 z m 7.1,0 0,-5.95 5.95,0 0,5.95 -5.95,0 z m 7.075,0 0,-5.95 5.95,0 0,5.95 -5.95,0 z m 7.1,0 0,-5.95 5.925,0 0,5.95 -5.925,0 z m 162.2,0 0,-5.95 5.95,0 0,5.95 -5.95,0 z m 7.1,0 0,-5.95 5.95,0 0,5.95 -5.95,0 z m 7.075,0 0,-5.95 5.95,0 0,5.95 -5.95,0 z m 7.1,0 0,-5.95 5.95,0 0,5.95 -5.95,0 z m 7.075,0 0,-5.95 5.95,0 0,5.95 -5.95,0 z m 7.1,0 0,-5.95 5.95,0 0,5.95 -5.95,0 z m 7.075,0 0,-5.95 5.95,0 0,5.95 -5.95,0 z m 7.1,0 0,-5.95 5.95,0 0,5.95 -5.95,0 z m 7.075,0 0,-5.95 5.95,0 0,5.95 -5.95,0 z m 7.1,0 0,-5.95 5.925,0 0,5.95 -5.925,0 z m 35.2,0 0,-5.95 5.95,0 0,5.95 -5.95,0 z m 7.1,0 0,-5.95 5.95,0 0,5.95 -5.95,0 z m 7.075,0 0,-5.95 5.95,0 0,5.95 -5.95,0 z m 7.1,0 0,-5.95 5.95,0 0,5.95 -5.95,0 z m 7.075,0 0,-5.95 5.95,0 0,5.95 -5.95,0 z m 7.1,0 0,-5.95 5.95,0 0,5.95 -5.95,0 z m 7.075,0 0,-5.95 5.95,0 0,5.95 -5.95,0 z m 7.1,0 0,-5.95 5.95,0 0,5.95 -5.95,0 z m 7.075,0 0,-5.95 5.95,0 0,5.95 -5.95,0 z m 7.1,0 0,-5.95 5.925,0 0,5.95 -5.925,0 z m 35.2,0 0,-5.95 5.95,0 0,5.95 -5.95,0 z m 7.1,0 0,-5.95 5.95,0 0,5.95 -5.95,0 z m 7.075,0 0,-5.95 5.95,0 0,5.95 -5.95,0 z m 7.1,0 0,-5.95 5.95,0 0,5.95 -5.95,0 z m 7.075,0 0,-5.95 5.95,0 0,5.95 -5.95,0 z m 7.1,0 0,-5.95 5.95,0 0,5.95 -5.95,0 z m 7.075,0 0,-5.95 5.95,0 0,5.95 -5.95,0 z m 7.1,0 0,-5.95 5.95,0 0,5.95 -5.95,0 z m 7.075,0 0,-5.95 5.95,0 0,5.95 -5.95,0 z m 7.1,0 0,-5.95 5.925,0 0,5.95 -5.925,0 z m -593.875005,-7.075 0,-5.95 5.95,0 0,5.95 -5.95,0 z m 7.075,0 0,-5.95 5.95,0 0,5.95 -5.95,0 z m 7.1,0 0,-5.95 5.950005,0 0,5.95 -5.950005,0 z m 7.075005,0 0,-5.95 5.95,0 0,5.95 -5.95,0 z m 7.1,0 0,-5.95 5.95,0 0,5.95 -5.95,0 z m 7.075,0 0,-5.95 5.95,0 0,5.95 -5.95,0 z m 7.1,0 0,-5.95 5.95,0 0,5.95 -5.95,0 z m 7.075,0 0,-5.95 5.95,0 0,5.95 -5.95,0 z m 7.1,0 0,-5.95 5.95,0 0,5.95 -5.95,0 z m 7.075,0 0,-5.95 5.95,0 0,5.95 -5.95,0 z m 7.1,0 0,-5.95 5.925,0 0,5.95 -5.925,0 z m 7.075,0 0,-5.95 5.95,0 0,5.95 -5.95,0 z m 21.05,0 0,-5.95 5.95,0 0,5.95 -5.95,0 z m 7.075,0 0,-5.95 5.95,0 0,5.95 -5.95,0 z m 7.1,0 0,-5.95 5.95,0 0,5.95 -5.95,0 z m 7.075,0 0,-5.95 5.95,0 0,5.95 -5.95,0 z m 7.1,0 0,-5.95 5.95,0 0,5.95 -5.95,0 z m 7.075,0 0,-5.95 5.95,0 0,5.95 -5.95,0 z m 7.1,0 0,-5.95 5.95,0 0,5.95 -5.95,0 z m 7.075,0 0,-5.95 5.95,0 0,5.95 -5.95,0 z m 7.1,0 0,-5.95 5.95,0 0,5.95 -5.95,0 z m 7.075,0 0,-5.95 5.95,0 0,5.95 -5.95,0 z m 7.1,0 0,-5.95 5.925,0 0,5.95 -5.925,0 z m 7.075,0 0,-5.95 5.95,0 0,5.95 -5.95,0 z m 148.05,0 0,-5.95 5.95,0 0,5.95 -5.95,0 z m 7.075,0 0,-5.95 5.95,0 0,5.95 -5.95,0 z m 7.1,0 0,-5.95 5.95,0 0,5.95 -5.95,0 z m 7.075,0 0,-5.95 5.95,0 0,5.95 -5.95,0 z m 7.1,0 0,-5.95 5.95,0 0,5.95 -5.95,0 z m 7.075,0 0,-5.95 5.95,0 0,5.95 -5.95,0 z m 7.1,0 0,-5.95 5.95,0 0,5.95 -5.95,0 z m 7.075,0 0,-5.95 5.95,0 0,5.95 -5.95,0 z m 7.1,0 0,-5.95 5.95,0 0,5.95 -5.95,0 z m 7.075,0 0,-5.95 5.95,0 0,5.95 -5.95,0 z m 7.1,0 0,-5.95 5.925,0 0,5.95 -5.925,0 z m 7.075,0 0,-5.95 5.95,0 0,5.95 -5.95,0 z m 21.05,0 0,-5.95 5.95,0 0,5.95 -5.95,0 z m 7.075,0 0,-5.95 5.95,0 0,5.95 -5.95,0 z m 7.1,0 0,-5.95 5.95,0 0,5.95 -5.95,0 z m 7.075,0 0,-5.95 5.95,0 0,5.95 -5.95,0 z m 7.1,0 0,-5.95 5.95,0 0,5.95 -5.95,0 z m 7.075,0 0,-5.95 5.95,0 0,5.95 -5.95,0 z m 7.1,0 0,-5.95 5.95,0 0,5.95 -5.95,0 z m 7.075,0 0,-5.95 5.95,0 0,5.95 -5.95,0 z m 7.1,0 0,-5.95 5.95,0 0,5.95 -5.95,0 z m 7.075,0 0,-5.95 5.95,0 0,5.95 -5.95,0 z m 7.1,0 0,-5.95 5.925,0 0,5.95 -5.925,0 z m 7.075,0 0,-5.95 5.95,0 0,5.95 -5.95,0 z m 21.05,0 0,-5.95 5.95,0 0,5.95 -5.95,0 z m 7.075,0 0,-5.95 5.95,0 0,5.95 -5.95,0 z m 7.1,0 0,-5.95 5.95,0 0,5.95 -5.95,0 z m 7.075,0 0,-5.95 5.95,0 0,5.95 -5.95,0 z m 7.1,0 0,-5.95 5.95,0 0,5.95 -5.95,0 z m 7.075,0 0,-5.95 5.95,0 0,5.95 -5.95,0 z m 7.1,0 0,-5.95 5.95,0 0,5.95 -5.95,0 z m 7.075,0 0,-5.95 5.95,0 0,5.95 -5.95,0 z m 7.1,0 0,-5.95 5.95,0 0,5.95 -5.95,0 z m 7.075,0 0,-5.95 5.95,0 0,5.95 -5.95,0 z m 7.1,0 0,-5.95 5.925,0 0,5.95 -5.925,0 z m 7.075,0 0,-5.95 5.95,0 0,5.95 -5.95,0 z m -600.950005,-7.1 0,-5.925 5.95,0 0,5.925 -5.95,0 z m 7.075,0 0,-5.925 5.95,0 0,5.925 -5.95,0 z m 7.1,0 0,-5.925 5.950005,0 0,5.925 -5.950005,0 z m 21.250005,0 0,-5.925 5.95,0 0,5.925 -5.95,0 z m 7.1,0 0,-5.925 5.95,0 0,5.925 -5.95,0 z m 21.25,0 0,-5.925 5.95,0 0,5.925 -5.95,0 z m 7.1,0 0,-5.925 5.925,0 0,5.925 -5.925,0 z m 7.075,0 0,-5.925 5.95,0 0,5.925 -5.95,0 z m 21.05,0 0,-5.925 5.95,0 0,5.925 -5.95,0 z m 7.075,0 0,-5.925 5.95,0 0,5.925 -5.95,0 z m 7.1,0 0,-5.925 5.95,0 0,5.925 -5.95,0 z m 21.25,0 0,-5.925 5.95,0 0,5.925 -5.95,0 z m 7.1,0 0,-5.925 5.95,0 0,5.925 -5.95,0 z m 21.25,0 0,-5.925 5.95,0 0,5.925 -5.95,0 z m 7.1,0 0,-5.925 5.925,0 0,5.925 -5.925,0 z m 7.075,0 0,-5.925 5.95,0 0,5.925 -5.95,0 z m 148.05,0 0,-5.925 5.95,0 0,5.925 -5.95,0 z m 7.075,0 0,-5.925 5.95,0 0,5.925 -5.95,0 z m 7.1,0 0,-5.925 5.95,0 0,5.925 -5.95,0 z m 21.25,0 0,-5.925 5.95,0 0,5.925 -5.95,0 z m 7.1,0 0,-5.925 5.95,0 0,5.925 -5.95,0 z m 21.25,0 0,-5.925 5.95,0 0,5.925 -5.95,0 z m 7.1,0 0,-5.925 5.925,0 0,5.925 -5.925,0 z m 7.075,0 0,-5.925 5.95,0 0,5.925 -5.95,0 z m 21.05,0 0,-5.925 5.95,0 0,5.925 -5.95,0 z m 7.075,0 0,-5.925 5.95,0 0,5.925 -5.95,0 z m 7.1,0 0,-5.925 5.95,0 0,5.925 -5.95,0 z m 21.25,0 0,-5.925 5.95,0 0,5.925 -5.95,0 z m 7.1,0 0,-5.925 5.95,0 0,5.925 -5.95,0 z m 21.25,0 0,-5.925 5.95,0 0,5.925 -5.95,0 z m 7.1,0 0,-5.925 5.925,0 0,5.925 -5.925,0 z m 7.075,0 0,-5.925 5.95,0 0,5.925 -5.95,0 z m 21.05,0 0,-5.925 5.95,0 0,5.925 -5.95,0 z m 7.075,0 0,-5.925 5.95,0 0,5.925 -5.95,0 z m 7.1,0 0,-5.925 5.95,0 0,5.925 -5.95,0 z m 21.25,0 0,-5.925 5.95,0 0,5.925 -5.95,0 z m 7.1,0 0,-5.925 5.95,0 0,5.925 -5.95,0 z m 21.25,0 0,-5.925 5.95,0 0,5.925 -5.95,0 z m 7.1,0 0,-5.925 5.925,0 0,5.925 -5.925,0 z m 7.075,0 0,-5.925 5.95,0 0,5.925 -5.95,0 z m -600.950005,-7.075 0,-5.95 5.95,0 0,5.95 -5.95,0 z m 7.075,0 0,-5.95 5.95,0 0,5.95 -5.95,0 z m 7.1,0 0,-5.95 5.950005,0 0,5.95 -5.950005,0 z m 7.075005,0 0,-5.95 5.95,0 0,5.95 -5.95,0 z m 7.1,0 0,-5.95 5.95,0 0,5.95 -5.95,0 z m 7.075,0 0,-5.95 5.95,0 0,5.95 -5.95,0 z m 7.1,0 0,-5.95 5.95,0 0,5.95 -5.95,0 z m 7.075,0 0,-5.95 5.95,0 0,5.95 -5.95,0 z m 7.1,0 0,-5.95 5.95,0 0,5.95 -5.95,0 z m 7.075,0 0,-5.95 5.95,0 0,5.95 -5.95,0 z m 7.1,0 0,-5.95 5.925,0 0,5.95 -5.925,0 z m 7.075,0 0,-5.95 5.95,0 0,5.95 -5.95,0 z m 21.05,0 0,-5.95 5.95,0 0,5.95 -5.95,0 z m 7.075,0 0,-5.95 5.95,0 0,5.95 -5.95,0 z m 7.1,0 0,-5.95 5.95,0 0,5.95 -5.95,0 z m 7.075,0 0,-5.95 5.95,0 0,5.95 -5.95,0 z m 7.1,0 0,-5.95 5.95,0 0,5.95 -5.95,0 z m 7.075,0 0,-5.95 5.95,0 0,5.95 -5.95,0 z m 7.1,0 0,-5.95 5.95,0 0,5.95 -5.95,0 z m 7.075,0 0,-5.95 5.95,0 0,5.95 -5.95,0 z m 7.1,0 0,-5.95 5.95,0 0,5.95 -5.95,0 z m 7.075,0 0,-5.95 5.95,0 0,5.95 -5.95,0 z m 7.1,0 0,-5.95 5.925,0 0,5.95 -5.925,0 z m 7.075,0 0,-5.95 5.95,0 0,5.95 -5.95,0 z m 148.05,0 0,-5.95 5.95,0 0,5.95 -5.95,0 z m 7.075,0 0,-5.95 5.95,0 0,5.95 -5.95,0 z m 7.1,0 0,-5.95 5.95,0 0,5.95 -5.95,0 z m 7.075,0 0,-5.95 5.95,0 0,5.95 -5.95,0 z m 7.1,0 0,-5.95 5.95,0 0,5.95 -5.95,0 z m 7.075,0 0,-5.95 5.95,0 0,5.95 -5.95,0 z m 7.1,0 0,-5.95 5.95,0 0,5.95 -5.95,0 z m 7.075,0 0,-5.95 5.95,0 0,5.95 -5.95,0 z m 7.1,0 0,-5.95 5.95,0 0,5.95 -5.95,0 z m 7.075,0 0,-5.95 5.95,0 0,5.95 -5.95,0 z m 7.1,0 0,-5.95 5.925,0 0,5.95 -5.925,0 z m 7.075,0 0,-5.95 5.95,0 0,5.95 -5.95,0 z m 21.05,0 0,-5.95 5.95,0 0,5.95 -5.95,0 z m 7.075,0 0,-5.95 5.95,0 0,5.95 -5.95,0 z m 7.1,0 0,-5.95 5.95,0 0,5.95 -5.95,0 z m 7.075,0 0,-5.95 5.95,0 0,5.95 -5.95,0 z m 7.1,0 0,-5.95 5.95,0 0,5.95 -5.95,0 z m 7.075,0 0,-5.95 5.95,0 0,5.95 -5.95,0 z m 7.1,0 0,-5.95 5.95,0 0,5.95 -5.95,0 z m 7.075,0 0,-5.95 5.95,0 0,5.95 -5.95,0 z m 7.1,0 0,-5.95 5.95,0 0,5.95 -5.95,0 z m 7.075,0 0,-5.95 5.95,0 0,5.95 -5.95,0 z m 7.1,0 0,-5.95 5.925,0 0,5.95 -5.925,0 z m 7.075,0 0,-5.95 5.95,0 0,5.95 -5.95,0 z m 21.05,0 0,-5.95 5.95,0 0,5.95 -5.95,0 z m 7.075,0 0,-5.95 5.95,0 0,5.95 -5.95,0 z m 7.1,0 0,-5.95 5.95,0 0,5.95 -5.95,0 z m 7.075,0 0,-5.95 5.95,0 0,5.95 -5.95,0 z m 7.1,0 0,-5.95 5.95,0 0,5.95 -5.95,0 z m 7.075,0 0,-5.95 5.95,0 0,5.95 -5.95,0 z m 7.1,0 0,-5.95 5.95,0 0,5.95 -5.95,0 z m 7.075,0 0,-5.95 5.95,0 0,5.95 -5.95,0 z m 7.1,0 0,-5.95 5.95,0 0,5.95 -5.95,0 z m 7.075,0 0,-5.95 5.95,0 0,5.95 -5.95,0 z m 7.1,0 0,-5.95 5.925,0 0,5.95 -5.925,0 z m 7.075,0 0,-5.95 5.95,0 0,5.95 -5.95,0 z m -579.7,-7.075 0,-5.95 5.95,0 0,5.95 -5.95,0 z m 7.1,0 0,-5.95 5.95,0 0,5.95 -5.95,0 z m 21.25,0 0,-5.95 5.95,0 0,5.95 -5.95,0 z m 7.1,0 0,-5.95 5.95,0 0,5.95 -5.95,0 z m 63.55,0 0,-5.95 5.95,0 0,5.95 -5.95,0 z m 7.1,0 0,-5.95 5.95,0 0,5.95 -5.95,0 z m 21.25,0 0,-5.95 5.95,0 0,5.95 -5.95,0 z m 7.1,0 0,-5.95 5.95,0 0,5.95 -5.95,0 z m 190.55,0 0,-5.95 5.95,0 0,5.95 -5.95,0 z m 7.1,0 0,-5.95 5.95,0 0,5.95 -5.95,0 z m 21.25,0 0,-5.95 5.95,0 0,5.95 -5.95,0 z m 7.1,0 0,-5.95 5.95,0 0,5.95 -5.95,0 z m 63.55,0 0,-5.95 5.95,0 0,5.95 -5.95,0 z m 7.1,0 0,-5.95 5.95,0 0,5.95 -5.95,0 z m 21.25,0 0,-5.95 5.95,0 0,5.95 -5.95,0 z m 7.1,0 0,-5.95 5.95,0 0,5.95 -5.95,0 z m 63.55,0 0,-5.95 5.95,0 0,5.95 -5.95,0 z m 7.1,0 0,-5.95 5.95,0 0,5.95 -5.95,0 z m 21.25,0 0,-5.95 5.95,0 0,5.95 -5.95,0 z m 7.1,0 0,-5.95 5.95,0 0,5.95 -5.95,0 z m -565.525005,-7.1 0,-5.95 5.950005,0 0,5.95 -5.950005,0 z m 7.075005,0 0,-5.95 5.95,0 0,5.95 -5.95,0 z m 14.175,0 0,-5.95 5.95,0 0,5.95 -5.95,0 z m 7.1,0 0,-5.95 5.95,0 0,5.95 -5.95,0 z m 14.175,0 0,-5.95 5.95,0 0,5.95 -5.95,0 z m 7.075,0 0,-5.95 5.95,0 0,5.95 -5.95,0 z m 49.4,0 0,-5.95 5.95,0 0,5.95 -5.95,0 z m 7.075,0 0,-5.95 5.95,0 0,5.95 -5.95,0 z m 14.175,0 0,-5.95 5.95,0 0,5.95 -5.95,0 z m 7.1,0 0,-5.95 5.95,0 0,5.95 -5.95,0 z m 14.175,0 0,-5.95 5.95,0 0,5.95 -5.95,0 z m 7.075,0 0,-5.95 5.95,0 0,5.95 -5.95,0 z m 176.4,0 0,-5.95 5.95,0 0,5.95 -5.95,0 z m 7.075,0 0,-5.95 5.95,0 0,5.95 -5.95,0 z m 14.175,0 0,-5.95 5.95,0 0,5.95 -5.95,0 z m 7.1,0 0,-5.95 5.95,0 0,5.95 -5.95,0 z m 14.175,0 0,-5.95 5.95,0 0,5.95 -5.95,0 z m 7.075,0 0,-5.95 5.95,0 0,5.95 -5.95,0 z m 49.4,0 0,-5.95 5.95,0 0,5.95 -5.95,0 z m 7.075,0 0,-5.95 5.95,0 0,5.95 -5.95,0 z m 14.175,0 0,-5.95 5.95,0 0,5.95 -5.95,0 z m 7.1,0 0,-5.95 5.95,0 0,5.95 -5.95,0 z m 14.175,0 0,-5.95 5.95,0 0,5.95 -5.95,0 z m 7.075,0 0,-5.95 5.95,0 0,5.95 -5.95,0 z m 49.4,0 0,-5.95 5.95,0 0,5.95 -5.95,0 z m 7.075,0 0,-5.95 5.95,0 0,5.95 -5.95,0 z m 14.175,0 0,-5.95 5.95,0 0,5.95 -5.95,0 z m 7.1,0 0,-5.95 5.95,0 0,5.95 -5.95,0 z m 14.175,0 0,-5.95 5.95,0 0,5.95 -5.95,0 z m 7.075,0 0,-5.95 5.95,0 0,5.95 -5.95,0 z m -586.775005,-7.075 0,-5.95 5.95,0 0,5.95 -5.95,0 z m 7.075,0 0,-5.95 5.95,0 0,5.95 -5.95,0 z m 63.800005,0 0,-5.95 5.925,0 0,5.95 -5.925,0 z m 7.075,0 0,-5.95 5.95,0 0,5.95 -5.95,0 z m 21.05,0 0,-5.95 5.95,0 0,5.95 -5.95,0 z m 7.075,0 0,-5.95 5.95,0 0,5.95 -5.95,0 z m 63.8,0 0,-5.95 5.925,0 0,5.95 -5.925,0 z m 7.075,0 0,-5.95 5.95,0 0,5.95 -5.95,0 z m 148.05,0 0,-5.95 5.95,0 0,5.95 -5.95,0 z m 7.075,0 0,-5.95 5.95,0 0,5.95 -5.95,0 z m 63.8,0 0,-5.95 5.925,0 0,5.95 -5.925,0 z m 7.075,0 0,-5.95 5.95,0 0,5.95 -5.95,0 z m 21.05,0 0,-5.95 5.95,0 0,5.95 -5.95,0 z m 7.075,0 0,-5.95 5.95,0 0,5.95 -5.95,0 z m 63.8,0 0,-5.95 5.925,0 0,5.95 -5.925,0 z m 7.075,0 0,-5.95 5.95,0 0,5.95 -5.95,0 z m 21.05,0 0,-5.95 5.95,0 0,5.95 -5.95,0 z m 7.075,0 0,-5.95 5.95,0 0,5.95 -5.95,0 z m 63.8,0 0,-5.95 5.925,0 0,5.95 -5.925,0 z m 7.075,0 0,-5.95 5.95,0 0,5.95 -5.95,0 z"
   style="font-size:medium;font-style:normal;font-variant:normal;font-weight:normal;font-stretch:normal;text-indent:0;text-align:start;text-decoration:none;line-height:normal;letter-spacing:normal;word-spacing:normal;text-transform:none;direction:ltr;block-progression:tb;writing-mode:lr-tb;text-anchor:start;baseline-shift:baseline;color:#000000;fill:#ffdf00;fill-opacity:1;stroke:none;stroke-width:4;marker:none;visibility:visible;display:inline;overflow:visible;enable-background:accumulate;font-family:Sans;-inkscape-font-specification:Sans"
   inkscape:connector-curvature="0" /></g></svg>