<?xml version="1.0" encoding="utf-8"?>
<!-- Generator: Adobe Illustrator 15.0.0, SVG Export Plug-In . SVG Version: 6.00 Build 0)  -->
<!DOCTYPE svg PUBLIC "-//W3C//DTD SVG 1.1//EN" "http://www.w3.org/Graphics/SVG/1.1/DTD/svg11.dtd">
<svg version="1.1" id="Ebene_1" xmlns="http://www.w3.org/2000/svg" xmlns:xlink="http://www.w3.org/1999/xlink" x="0px" y="0px"
	 width="327.228px" height="277.8px" viewBox="0 0 327.228 277.8" enable-background="new 0 0 327.228 277.8" xml:space="preserve">
<g>
	<g>
		<circle cx="70.221" cy="58.385" r="18.76"/>
		<g>
			<path d="M262.107,86.738c-3.213,0-6.232,0.814-8.875,2.241c-0.67,0.362-1.623-0.303-1.623-1.102c0-4.884-3.959-8.843-8.842-8.843
				c-4.885,0-8.844,3.959-8.844,8.843c0,4.882,3.959,8.841,8.844,8.841c1.088,0,2.217,1.077,1.875,1.947
				c-0.834,2.116-1.297,4.417-1.297,6.829c0,10.36,8.4,18.759,18.762,18.759c10.359,0,18.758-8.398,18.758-18.759
				C280.865,95.137,272.467,86.738,262.107,86.738z"/>
			<path d="M281.6,166.018c-0.426-13.476-8.039-26.154-21.037-30.815c-6.316-2.266-12.584-2.097-19.143-1.548
				c-2.504,0.207-5.115,0.693-7.545-0.168c-3.383-1.199-5.777-4.411-5.953-7.996c-0.127-2.584,1.693-5.291,2.309-7.762
				c0.76-3.033,0.848-6.188,0.344-9.268c-0.879-5.357-3.512-10.425-7.691-13.939c-5.281-4.441-11.891-5.562-18.539-5.572
				c-15.238-0.021-30.479-0.042-45.715-0.062c-20.268-0.028-40.531-0.057-60.797-0.084c-6.908-0.01-13.818-0.02-20.729-0.029
				c-4.246-0.006-8.371-0.252-12.449,0.875c-12.812,3.543-19.855,17.975-14.895,30.259c1.41,3.497,3.818,6.201,6.164,8.867
				c2.588,2.939,4.389,6.54,5.176,10.377c0.807,3.958,0.543,8.126-0.777,11.946c-0.633,1.834-1.508,3.583-2.59,5.195
				c-0.314,0.469-3.422,4.006-3.377,4.082c-10.48,10.483-6.988,28.797,5.797,35.582c12.314,6.535,28.111,0.018,32.213-13.344
				c1.848-6.009,1.201-13.42-2.039-18.833c-1.775-2.968-4.666-4.768-6.547-7.612c-2.336-3.533-3.637-7.697-3.734-11.931
				c-0.348-15.086,14.549-26.507,29.035-22.224c15.182,4.486,21.156,23.603,11.15,35.934c-1.215,1.498-2.682,2.75-3.855,4.284
				c-1.271,1.659-2.312,3.495-3.078,5.44c-1.586,4.026-1.977,8.496-1.129,12.74c1.693,8.469,7.9,15.123,16.26,17.384
				c15.057,4.076,30.102-8.317,28.67-23.922c-0.383-4.166-1.941-8.187-4.461-11.523c-2.379-3.148-5.146-5.7-6.75-9.476
				c-2.992-7.047-2.146-15.347,2.191-21.644c4.018-5.829,10.674-9.511,17.752-9.784c5.588-0.216,12.305,1.91,16.301,5.852
				c2.236,2.206,3.898,4.965,4.977,7.906c0.975,2.665,1.064,5.205,1.393,7.972c0.705,6.001,5.246,8.878,10.697,10.235
				c2.617,0.65,5.291,1.038,7.914,1.656c2.998,0.706,6.211,1.38,8.324,3.799c4.691,5.369,0.896,16.088-7.031,14.802
				c-2.611-0.423-4.932-1.22-7.586-0.677c-3.43,0.701-6.479,2.824-8.342,5.783c-4.154,6.598-1.408,16.133,6.053,18.896
				c3.768,1.395,8.891,1.33,12.236-1.135c2.721-2.005,3.162-6.658,6.869-7.48c4.391-1.783,7.611,0.51,10.893,3.162
				c1.859,1.504,4.049,2.544,6.309,3.296c3.5,1.167,7.193,1.71,10.857,2.037c3.994,0.354,7.908,0.403,11.818-0.595
				c6.818-1.745,12.807-6.023,17.115-11.533C278.896,179.973,281.822,173.027,281.6,166.018
				C281.047,148.609,282.066,180.748,281.6,166.018z"/>
			<path fill="none" stroke="#000000" stroke-miterlimit="10" d="M209.236,167.063"/>
		</g>
	</g>
	<g>
		<path d="M54.354,230.684h4.172c0.736,0,1.418,0.398,1.418,1.419s-0.682,1.419-1.418,1.419H47.35c-0.74,0-1.42-0.398-1.42-1.419
			s0.68-1.419,1.42-1.419h4.17v-16.396h-4.17c-0.74,0-1.42-0.396-1.42-1.418c0-1.02,0.68-1.418,1.42-1.418h11.176
			c0.736,0,1.418,0.398,1.418,1.418c0,1.022-0.682,1.418-1.418,1.418h-4.172V230.684z"/>
		<path d="M71.201,214.287v1.021c0,0.908-0.395,1.42-1.418,1.42c-1.02,0-1.416-0.512-1.416-1.42v-3.857h14.012v3.857
			c0,0.908-0.398,1.42-1.418,1.42c-1.021,0-1.418-0.512-1.418-1.42v-1.021h-2.752v17.815c0,0.907-0.396,1.419-1.418,1.419
			c-1.023,0-1.42-0.512-1.42-1.419v-17.815H71.201z"/>
		<path d="M101.127,220.783c1.164,0,1.701,0.454,1.701,1.732c0,1.275-0.537,1.729-1.701,1.729H94.49
			c-1.166,0-1.703-0.454-1.703-1.729c0-1.278,0.537-1.732,1.703-1.732H101.127z"/>
		<path d="M126.258,227.961c0.566,0.738,0.992,1.391,0.992,2.355c0,2.126-1.617,3.205-3.574,3.205h-6.242
			c-1.076,0-2.012-0.199-2.861-0.908c-0.766-0.624-1.336-1.646-1.336-2.639c0-0.908,0.51-1.701,1.504-1.701
			c0.824,0,1.332,0.681,1.332,1.446c0,0.851,0.455,0.964,1.248,0.964h6.156c0.229,0,0.938,0.085,0.938-0.34
			c0-0.227-0.396-0.652-0.514-0.822l-9.729-12.51c-0.596-0.767-0.936-1.333-0.936-2.326c0-1.135,0.539-2.1,1.504-2.725
			c0.793-0.509,1.447-0.509,2.354-0.509h6.016c1.076,0,1.986,0.227,2.809,0.937c0.734,0.65,1.332,1.701,1.332,2.693
			c0,0.908-0.453,1.646-1.473,1.646c-0.852,0-1.363-0.541-1.363-1.334c0-0.965-0.482-1.107-1.365-1.107h-6.01
			c-0.314,0-0.967-0.084-0.967,0.398c0,0.256,0.312,0.596,0.426,0.766L126.258,227.961z"/>
		<path d="M146.623,221.663v-1.56c0-0.938,0.197-1.871,1.363-1.871c1.16,0,1.361,0.934,1.361,1.871v1.105
			c0,0.682-0.061,1.135-0.342,1.73l-6.865,14.949c-0.596,1.277-0.908,1.418-2.156,1.418h-2.098c-0.797,0-1.875-0.17-1.875-1.361
			c0-1.163,0.965-1.361,1.875-1.361h1.871l2.016-4.17h-0.143c-1.137,0-1.191-0.511-1.619-1.446l-3.348-7.403
			c-0.369-0.823-0.652-1.447-0.652-2.242v-1.219c0-0.938,0.199-1.871,1.363-1.871s1.361,0.934,1.361,1.871v1.56l3.66,8.028h0.594
			L146.623,221.663z"/>
		<path d="M161.172,223.734v7.915c0,0.937-0.197,1.872-1.361,1.872s-1.363-0.936-1.363-1.872v-11.405
			c0-0.992,0.115-2.014,1.363-2.014c1.221,0,1.361,1.021,1.361,1.985v0.312v0.058l2.215-1.446c0.707-0.454,1.473-0.909,2.354-0.909
			h2.012c1.051,0,1.703,0.284,2.525,0.994c1.219,1.049,1.164,2.212,1.219,3.687l0.285,8.566c0.029,0.965-0.115,2.044-1.332,2.044
			c-1.107,0-1.334-0.936-1.363-1.845l-0.283-8.396c-0.057-1.674-0.199-2.326-1.842-2.326h-0.91c-0.283,0-0.566,0.084-0.852,0.254
			L161.172,223.734z"/>
		<path d="M188.346,218.23c0.934,0,1.701,0.512,2.695,1.504l0.451,0.481v-5.729c0-0.936,0.199-1.872,1.363-1.872
			c1.162,0,1.359,0.937,1.359,1.872v17.134c0,0.937-0.197,1.901-1.359,1.901c-1.078,0-1.363-0.908-1.363-1.816v-0.17l-0.594,0.595
			c-0.852,0.796-1.789,1.392-2.609,1.392h-2.639c-0.908,0-1.93-0.625-2.326-0.965l-0.938-0.795
			c-1.135-0.965-1.504-1.701-1.504-3.148v-5.475c0-1.446,0.369-2.184,1.504-3.149l0.938-0.794c0.852-0.738,1.475-0.965,2.611-0.965
			H188.346z M183.607,227.536c0,0.765,0,1.729,0.426,2.071l0.822,0.652c0.34,0.283,0.68,0.537,1.021,0.537h1.93
			c0.34,0,0.822-0.227,1.332-0.682l1.562-1.332c0.396-0.34,0.791-0.68,0.791-1.19v-3.434c0-0.51-0.395-0.851-0.791-1.19
			l-1.562-1.334c-0.51-0.453-0.992-0.68-1.332-0.68h-1.93c-0.342,0-0.682,0.254-1.021,0.539l-0.822,0.651
			c-0.426,0.341-0.426,1.306-0.426,2.069V227.536z"/>
		<path d="M211.404,230.797h2.041c0.91,0,1.873,0.199,1.873,1.362c0,1.191-1.078,1.362-1.873,1.362h-6.918
			c-0.795,0-1.875-0.171-1.875-1.362c0-1.163,0.967-1.362,1.875-1.362h2.152v-9.842h-2.152c-0.795,0-1.875-0.172-1.875-1.362
			c0-1.163,0.967-1.36,1.875-1.36h2.863c1.561,0,2.014,0.282,2.014,1.898V230.797z M207.293,212.729
			c0-0.965,0.537-1.276,1.277-1.276h1.557c0.738,0,1.277,0.312,1.277,1.276v1.305c0,0.964-0.539,1.275-1.277,1.275h-1.557
			c-0.74,0-1.277-0.312-1.277-1.275V212.729z"/>
		<path d="M234.719,219.338c0.484-0.426,1.164-1.107,1.816-1.107c0.766,0,1.361,0.625,1.361,1.391c0,0.652-0.426,0.965-0.906,1.361
			l-5.275,4.369l6.408,5.332c0.51,0.426,0.965,0.738,0.965,1.446c0,0.767-0.596,1.392-1.361,1.392c-0.539,0-0.881-0.341-1.277-0.652
			l-6.836-5.701l-1.133,1.02v3.462c0,0.937-0.199,1.872-1.363,1.872s-1.359-0.936-1.359-1.872v-17.163
			c0-0.936,0.195-1.872,1.359-1.872s1.363,0.937,1.363,1.872v10.1L234.719,219.338z"/>
		<path d="M252.758,220.955c-0.793,0-1.873-0.172-1.873-1.362c0-1.163,0.967-1.362,1.873-1.362h3.746
			c1.416,0,2.439,0.143,3.516,1.221c1.051,1.049,1.191,1.871,1.221,3.233l0.283,9.248c0.027,0.793-0.369,1.589-1.279,1.589
			c-0.705,0-1.416-0.596-1.387-1.363l-1.871,0.965c-0.768,0.398-0.795,0.398-1.678,0.398h-2.607c-1.219,0-2.098-0.143-3.094-0.965
			c-1.133-0.936-1.416-1.93-1.416-3.348v-1.191c0-1.305,0.312-2.129,1.332-3.035c0.936-0.823,1.988-1.021,3.178-1.021h5.842v-0.624
			c0-2.042-0.451-2.382-2.408-2.382H252.758z M252.73,226.686c-0.738,0-1.814,0.197-1.814,1.19v1.815
			c0,0.908,1.105,1.105,1.756,1.105h3.008l3.008-1.56v-0.596c0-1.503-0.424-1.956-1.928-1.956H252.73z"/>
		<path d="M276.102,228.387c0,1.531-0.057,2.41,1.816,2.41h1.389c1.107,0,1.615-0.085,1.9-1.189c0.17-0.653,0.682-1.108,1.365-1.108
			c0.762,0,1.387,0.596,1.387,1.362c0,0.766-0.482,1.73-0.936,2.269c-0.992,1.193-2.297,1.392-3.744,1.392h-1.391
			c-1.363,0-2.553-0.312-3.518-1.362c-1.049-1.163-0.992-2.326-0.992-3.802v-7.402h-0.881c-0.791,0-1.871-0.172-1.871-1.362
			c0-1.163,0.965-1.36,1.871-1.36h0.881v-2.782c0-0.935,0.199-1.871,1.361-1.871s1.361,0.937,1.361,1.871v2.782h4.568
			c0.908,0,1.869,0.197,1.869,1.36c0,1.19-1.074,1.362-1.869,1.362h-4.568V228.387z"/>
	</g>
</g>
</svg>
